<?xml version="1.0" encoding="utf-8"?>
<!-- Generator: Adobe Illustrator 19.0.0, SVG Export Plug-In . SVG Version: 6.00 Build 0)  -->
<svg version="1.1" id="Layer_1" xmlns="http://www.w3.org/2000/svg" xmlns:xlink="http://www.w3.org/1999/xlink" x="0px" y="0px"
	 viewBox="0 0 182 181" style="enable-background:new 0 0 182 181;" xml:space="preserve">
<style type="text/css">
	.st0{fill:#FFFFFF;}
	.st1{clip-path:url(#XMLID_31_);fill:url(#XMLID_32_);}
	.st2{clip-path:url(#XMLID_31_);}
	.st3{fill:url(#XMLID_33_);}
	.st4{fill:url(#XMLID_34_);}
	.st5{fill:url(#XMLID_35_);}
	.st6{fill:url(#XMLID_37_);}
	.st7{fill:url(#XMLID_38_);}
	.st8{fill:url(#XMLID_41_);}
	.st9{fill:url(#XMLID_44_);}
	.st10{fill:url(#XMLID_45_);}
	.st11{fill:url(#XMLID_48_);}
	.st12{fill:url(#XMLID_49_);}
	.st13{fill:url(#XMLID_50_);}
	.st14{fill:url(#XMLID_51_);}
	.st15{clip-path:url(#XMLID_31_);fill:#F3DEB3;}
	.st16{clip-path:url(#XMLID_31_);fill:none;}
	.st17{clip-path:url(#XMLID_31_);fill:#E52052;}
	.st18{clip-path:url(#XMLID_31_);fill:#070709;}
	.st19{clip-path:url(#XMLID_31_);fill:url(#XMLID_69_);}
	.st20{clip-path:url(#XMLID_31_);fill:url(#XMLID_76_);}
	.st21{clip-path:url(#XMLID_31_);fill:url(#XMLID_77_);}
	.st22{opacity:0.56;clip-path:url(#XMLID_31_);fill:#010101;fill-opacity:9.000000e-002;}
	.st23{clip-path:url(#XMLID_31_);fill:#CDCCCC;}
	.st24{clip-path:url(#XMLID_31_);fill:url(#XMLID_78_);}
	.st25{clip-path:url(#XMLID_31_);fill:url(#XMLID_79_);}
	.st26{fill:#3B424F;}
	.st27{fill:#5A596E;}
	.st28{fill:#6E728D;}
	.st29{opacity:0.56;clip-path:url(#XMLID_31_);}
	.st30{opacity:0.33;fill:url(#XMLID_81_);}
	.st31{opacity:0.33;fill:url(#XMLID_85_);}
	.st32{opacity:0.33;fill:url(#XMLID_88_);}
	.st33{fill:#F9AB8B;stroke:#E6E6E5;stroke-width:2;stroke-miterlimit:10;}
	.st34{opacity:0.17;fill:#F3F3F3;}
	.st35{fill:#212023;}
	.st36{clip-path:url(#XMLID_31_);fill:url(#XMLID_91_);}
	.st37{clip-path:url(#XMLID_31_);fill:url(#XMLID_92_);}
	.st38{clip-path:url(#XMLID_31_);fill:url(#XMLID_93_);}
	.st39{clip-path:url(#XMLID_31_);fill:#CDCCCC;stroke:#E6E6E5;stroke-width:2;stroke-miterlimit:10;}
	.st40{clip-path:url(#XMLID_31_);fill:url(#XMLID_94_);}
	.st41{opacity:0.5;clip-path:url(#XMLID_31_);}
	.st42{fill:url(#XMLID_95_);}
	.st43{fill:url(#XMLID_96_);}
	.st44{clip-path:url(#XMLID_31_);fill:url(#XMLID_97_);}
	.st45{clip-path:url(#XMLID_31_);fill:url(#XMLID_98_);}
	.st46{opacity:9.000000e-002;clip-path:url(#XMLID_31_);fill:url(#XMLID_99_);}
	.st47{clip-path:url(#XMLID_31_);fill:#060609;}
	.st48{clip-path:url(#XMLID_31_);fill:#1F1F1D;}
	.st49{clip-path:url(#XMLID_31_);fill:#494A47;}
	.st50{clip-path:url(#XMLID_31_);fill:#E5EFEE;}
	.st51{opacity:0.25;clip-path:url(#XMLID_31_);fill:#494A47;}
	.st52{opacity:0.15;clip-path:url(#XMLID_31_);fill:#494A47;}
	.st53{fill:#060609;}
	.st54{fill:#1F1F1D;}
	.st55{fill:#494A47;}
	.st56{fill:#E5EFEE;}
	.st57{opacity:0.25;fill:#494A47;}
	.st58{opacity:0.15;fill:#494A47;}
	.st59{fill:url(#XMLID_100_);}
	.st60{clip-path:url(#XMLID_31_);fill:url(#XMLID_101_);}
	.st61{opacity:0.3;clip-path:url(#XMLID_31_);fill:#F3F3F3;}
	.st62{clip-path:url(#XMLID_31_);fill:url(#XMLID_102_);}
	.st63{clip-path:url(#XMLID_31_);fill:url(#XMLID_103_);}
	.st64{clip-path:url(#XMLID_31_);fill:url(#XMLID_106_);}
	.st65{clip-path:url(#XMLID_31_);fill:url(#XMLID_107_);}
	.st66{clip-path:url(#XMLID_31_);fill:url(#XMLID_108_);}
	.st67{opacity:0.52;clip-path:url(#XMLID_31_);fill:url(#XMLID_113_);}
	.st68{opacity:0.52;clip-path:url(#XMLID_31_);fill:url(#XMLID_116_);}
	.st69{opacity:0.52;clip-path:url(#XMLID_31_);fill:url(#XMLID_117_);}
	.st70{opacity:0.52;clip-path:url(#XMLID_31_);fill:url(#XMLID_118_);}
	.st71{opacity:0.52;clip-path:url(#XMLID_31_);fill:url(#XMLID_119_);}
	.st72{opacity:0.52;clip-path:url(#XMLID_31_);fill:url(#XMLID_120_);}
	.st73{opacity:0.52;clip-path:url(#XMLID_31_);fill:url(#XMLID_121_);}
	.st74{fill:#1D2C37;}
	.st75{clip-path:url(#XMLID_31_);fill:#FBE6E8;}
	.st76{fill:url(#XMLID_122_);}
	.st77{fill:#FBE6E8;}
	.st78{clip-path:url(#XMLID_31_);fill:url(#XMLID_123_);}
	.st79{opacity:9.000000e-002;clip-path:url(#XMLID_31_);fill:url(#XMLID_124_);}
	.st80{clip-path:url(#XMLID_31_);fill:#F3F3F3;}
	.st81{clip-path:url(#XMLID_31_);fill:url(#XMLID_127_);}
	.st82{clip-path:url(#XMLID_31_);fill:url(#XMLID_128_);}
	.st83{fill:#1A1A1A;}
	.st84{clip-path:url(#XMLID_31_);fill:url(#XMLID_129_);}
	.st85{clip-path:url(#XMLID_31_);fill:url(#XMLID_133_);}
</style>
<circle id="XMLID_47_" class="st0" cx="93.2" cy="94.3" r="82.3"/>
<g id="XMLID_5_">
	<defs>
		<circle id="XMLID_6_" cx="93.2" cy="94.3" r="76.7"/>
	</defs>
	<clipPath id="XMLID_31_">
		<use xlink:href="#XMLID_6_"  style="overflow:visible;"/>
	</clipPath>
	
		<linearGradient id="XMLID_32_" gradientUnits="userSpaceOnUse" x1="69.7479" y1="839.2232" x2="69.7479" y2="687.2074" gradientTransform="matrix(1 0 0 -1 0 842.0699)">
		<stop  offset="0" style="stop-color:#016FB4"/>
		<stop  offset="0.5634" style="stop-color:#0FB4D2"/>
		<stop  offset="1" style="stop-color:#E6F5F8"/>
	</linearGradient>
	<rect id="XMLID_111_" x="-50.8" y="-41.6" class="st1" width="241.2" height="194.2"/>
	<g id="XMLID_90_" class="st2">
		<g id="XMLID_131_">
			
				<linearGradient id="XMLID_33_" gradientUnits="userSpaceOnUse" x1="559.8714" y1="684.1001" x2="559.8714" y2="737.8818" gradientTransform="matrix(-1 0 0 -1 575.2 842.0699)">
				<stop  offset="0" style="stop-color:#28BDCA"/>
				<stop  offset="0.5419" style="stop-color:#0FB4D2"/>
				<stop  offset="1" style="stop-color:#E6F5F8"/>
			</linearGradient>
			<path id="XMLID_136_" class="st3" d="M-35.4,115.5c0.7,4.7,4.8,8.2,9.6,8.2c5,0,9.1-3.8,9.7-8.7c2.7,3.5,6.9,5.8,11.7,5.8
				c4.2,0,7.9-1.7,10.6-4.5c0.9,2.1,3,3.6,5.5,3.6c1.8,0,3.4-0.8,4.5-2.1c0.8,0.7,1.8,1.1,2.9,1.1c1.7,0,3.2-1,4-2.5
				c0.4,0.2,0.8,0.3,1.2,0.3c0.5,0,0.9-0.1,1.3-0.3c1,2.1,3.1,3.6,5.7,3.6c2,0,3.9-1,5-2.5c0.5,0.3,1.1,0.4,1.8,0.4
				c1,0,2-0.4,2.7-1.1c1,1,2.3,1.6,3.8,1.6c0.3,0,0.6,0,0.9-0.1c0.8,1.7,2.5,2.9,4.5,2.9c0.9,0,1.8-0.3,2.6-0.7
				c1.3,1.2,3.1,1.9,5,1.9c4,0,7.3-3.2,7.3-7.3c2.4-0.1,4.3-2,4.3-4.4c0-2.5-2-4.4-4.4-4.4c-1.7,0-3.1,0.9-3.9,2.3
				c-1-0.5-2.1-0.8-3.3-0.8c-2.6,0-4.9,1.4-6.2,3.5c-0.4-0.1-0.9-0.2-1.3-0.2c-0.2,0-0.4,0-0.6,0c-0.7-1.6-2.1-2.7-3.8-3.1
				c0-0.2,0-0.4,0-0.7c0-3.5-2.8-6.4-6.4-6.4c-3.5,0-6.4,2.8-6.4,6.4c0,0.1,0,0.2,0,0.4c-0.5-0.1-1.1-0.2-1.7-0.2
				c-2.5,0-4.6,1.4-5.6,3.5c-0.4-0.2-0.9-0.3-1.4-0.3c-0.8,0-1.4,0.3-1.9,0.7c-0.8-0.9-2-1.4-3.2-1.4c-0.9,0-1.7,0.3-2.4,0.7
				c-1-1.7-2.9-2.8-5-2.8c0,0-0.1,0-0.1,0c0-0.2,0-0.4,0-0.5c0-3.6-2.9-6.6-6.6-6.6c-2.1,0-3.9,1-5.1,2.5c-0.7-0.6-1.6-1.1-2.5-1.4
				c0-0.2,0-0.3,0-0.5c0-6.3-5.1-11.4-11.4-11.4c-6.1,0-11,4.8-11.3,10.8h0c-2.2,0-4,1.7-4.1,3.9c-0.8,0.3-1.6,0.8-2.3,1.3
				c-0.6-0.2-1.2-0.4-1.9-0.4c-2.8,0-5,2.3-5,5C-38.5,112.9-37.2,114.7-35.4,115.5z"/>
			
				<linearGradient id="XMLID_34_" gradientUnits="userSpaceOnUse" x1="16.6776" y1="679.6931" x2="16.6776" y2="733.7306" gradientTransform="matrix(1 0 0 -1 0 842.0699)">
				<stop  offset="0" style="stop-color:#28BDCA"/>
				<stop  offset="0.5419" style="stop-color:#0FB4D2"/>
				<stop  offset="1" style="stop-color:#E6F5F8"/>
			</linearGradient>
			<path id="XMLID_135_" class="st4" d="M70.8,115c0-2.8-2.3-5.1-5.1-5.1c-0.7,0-1.3,0.1-1.9,0.4c-0.7-0.5-1.5-0.9-2.3-1.3
				c-0.1-2.2-1.9-3.9-4.1-3.9h0c-0.3-6-5.3-10.8-11.4-10.8c-6.3,0-11.4,5.1-11.4,11.4c0,0.2,0,0.3,0,0.5c-0.9,0.3-1.8,0.7-2.5,1.4
				c-1.2-1.5-3.1-2.5-5.1-2.5c-3.7,0-6.6,3-6.6,6.6c0,0.2,0,0.4,0,0.5c0,0-0.1,0-0.1,0c-2.1,0-4,1.1-5.1,2.8
				c-0.7-0.5-1.5-0.7-2.4-0.7c-1.3,0-2.4,0.5-3.3,1.4c-0.5-0.4-1.2-0.7-2-0.7c-0.5,0-1,0.1-1.4,0.3c-1-2.1-3.2-3.5-5.6-3.5
				c-0.6,0-1.1,0.1-1.7,0.2c0-0.1,0-0.2,0-0.4c0-3.5-2.9-6.4-6.4-6.4c-3.5,0-6.4,2.9-6.4,6.4c0,0.2,0,0.4,0,0.7
				c-1.7,0.4-3.1,1.5-3.8,3.1c-0.2,0-0.4,0-0.6,0c-0.4,0-0.9,0.1-1.3,0.2c-1.3-2.1-3.6-3.5-6.3-3.5c-1.2,0-2.3,0.3-3.3,0.8
				c-0.8-1.3-2.2-2.3-3.9-2.3c-2.5,0-4.5,2-4.5,4.5c0,2.4,1.9,4.4,4.3,4.5c0,4,3.3,7.3,7.4,7.3c1.9,0,3.7-0.7,5-2
				c0.8,0.4,1.6,0.7,2.6,0.7c2,0,3.7-1.2,4.6-2.9c0.3,0.1,0.6,0.1,0.9,0.1c1.5,0,2.9-0.6,3.8-1.6c0.7,0.6,1.7,1.1,2.7,1.1
				c0.6,0,1.2-0.2,1.8-0.4c1.1,1.5,3,2.5,5,2.5c2.5,0,4.7-1.5,5.7-3.6c0.4,0.2,0.9,0.3,1.3,0.3c0.4,0,0.8-0.1,1.2-0.3
				c0.7,1.5,2.2,2.5,4,2.5c1.1,0,2.2-0.4,3-1.1c1.1,1.3,2.7,2.1,4.5,2.1c2.5,0,4.6-1.5,5.5-3.7c2.7,2.8,6.5,4.5,10.7,4.5
				c4.8,0,9.1-2.3,11.8-5.8c0.5,4.9,4.7,8.7,9.7,8.7c4.9,0,8.9-3.6,9.7-8.3C69.5,118.9,70.8,117.1,70.8,115z"/>
			
				<linearGradient id="XMLID_35_" gradientUnits="userSpaceOnUse" x1="14.859" y1="661.9859" x2="14.8591" y2="721.0092" gradientTransform="matrix(1 0 0 -1 0 842.0699)">
				<stop  offset="0" style="stop-color:#28BDCA"/>
				<stop  offset="0.5419" style="stop-color:#0FB4D2"/>
				<stop  offset="1" style="stop-color:#E6F5F8"/>
			</linearGradient>
			<path id="XMLID_132_" class="st5" d="M74,128.3c0-3.1-2.5-5.5-5.5-5.5c-0.7,0-1.5,0.2-2.1,0.4c-0.8-0.6-1.6-1-2.5-1.4
				c-0.1-2.4-2.1-4.3-4.5-4.3h0c-0.3-6.6-5.8-11.8-12.4-11.8c-6.9,0-12.5,5.6-12.5,12.5c0,0.2,0,0.4,0,0.5c-1,0.3-2,0.8-2.7,1.5
				c-1.3-1.7-3.3-2.7-5.6-2.7c-4,0-7.2,3.2-7.2,7.2c0,0.2,0,0.4,0,0.6c0,0-0.1,0-0.1,0c-2.3,0-4.4,1.2-5.5,3.1
				c-0.8-0.5-1.7-0.8-2.7-0.8c-1.4,0-2.7,0.6-3.6,1.6c-0.6-0.5-1.3-0.8-2.1-0.8c-0.5,0-1,0.1-1.5,0.4c-1.1-2.3-3.4-3.9-6.1-3.9
				c-0.6,0-1.3,0.1-1.8,0.2c0-0.1,0-0.3,0-0.4c0-3.9-3.1-7-7-7c-3.9,0-7,3.1-7,7c0,0.2,0,0.5,0,0.7c-1.9,0.4-3.4,1.7-4.1,3.4
				c-0.2,0-0.4,0-0.7,0c-0.5,0-1,0.1-1.4,0.2c-1.4-2.3-4-3.8-6.8-3.8c-1.3,0-2.5,0.3-3.6,0.8c-0.8-1.5-2.4-2.5-4.3-2.5
				c-2.7,0-4.9,2.2-4.9,4.9c0,2.6,2.1,4.8,4.7,4.9c0,4.4,3.6,8,8,8c2.1,0,4-0.8,5.4-2.1c0.8,0.5,1.8,0.8,2.8,0.8
				c2.2,0,4.1-1.3,5-3.1c0.3,0.1,0.6,0.1,1,0.1c1.6,0,3.1-0.7,4.2-1.8c0.8,0.7,1.8,1.2,3,1.2c0.7,0,1.4-0.2,2-0.5
				c1.2,1.7,3.2,2.7,5.5,2.7c2.7,0,5.1-1.6,6.2-4c0.4,0.2,0.9,0.3,1.5,0.3c0.5,0,0.9-0.1,1.3-0.3c0.8,1.6,2.4,2.7,4.4,2.7
				c1.2,0,2.4-0.5,3.2-1.2c1.2,1.4,3,2.3,5,2.3c2.7,0,5-1.7,6-4c3,3,7.1,4.9,11.7,4.9c5.2,0,9.9-2.5,12.9-6.3
				c0.6,5.3,5.1,9.5,10.6,9.5c5.3,0,9.8-3.9,10.6-9C72.6,132.5,74,130.6,74,128.3z"/>
		</g>
		<g id="XMLID_178_">
			
				<linearGradient id="XMLID_37_" gradientUnits="userSpaceOnUse" x1="460.1232" y1="688.2666" x2="460.1232" y2="742.0484" gradientTransform="matrix(-1 0 0 -1 575.2 842.0699)">
				<stop  offset="0" style="stop-color:#28BDCA"/>
				<stop  offset="0.5419" style="stop-color:#0FB4D2"/>
				<stop  offset="1" style="stop-color:#E6F5F8"/>
			</linearGradient>
			<path id="XMLID_181_" class="st6" d="M64.3,111.3c0.7,4.7,4.8,8.2,9.6,8.2c5,0,9.1-3.8,9.7-8.7c2.7,3.5,6.9,5.8,11.7,5.8
				c4.2,0,7.9-1.7,10.6-4.5c0.9,2.1,3,3.6,5.5,3.6c1.8,0,3.4-0.8,4.5-2.1c0.8,0.7,1.8,1.1,2.9,1.1c1.7,0,3.2-1,4-2.5
				c0.4,0.2,0.8,0.3,1.2,0.3c0.5,0,0.9-0.1,1.3-0.3c1,2.1,3.1,3.6,5.7,3.6c2,0,3.9-1,5-2.5c0.5,0.3,1.1,0.4,1.8,0.4
				c1,0,2-0.4,2.7-1.1c1,1,2.3,1.6,3.8,1.6c0.3,0,0.6,0,0.9-0.1c0.8,1.7,2.5,2.9,4.5,2.9c0.9,0,1.8-0.3,2.6-0.7
				c1.3,1.2,3.1,1.9,5,1.9c4,0,7.3-3.2,7.3-7.3c2.4-0.1,4.3-2,4.3-4.4c0-2.5-2-4.4-4.4-4.4c-1.7,0-3.1,0.9-3.9,2.3
				c-1-0.5-2.1-0.8-3.3-0.8c-2.6,0-4.9,1.4-6.2,3.5c-0.4-0.1-0.9-0.2-1.3-0.2c-0.2,0-0.4,0-0.6,0c-0.7-1.6-2.1-2.7-3.8-3.1
				c0-0.2,0-0.4,0-0.7c0-3.5-2.8-6.4-6.4-6.4c-3.5,0-6.4,2.8-6.4,6.4c0,0.1,0,0.2,0,0.4c-0.5-0.1-1.1-0.2-1.7-0.2
				c-2.5,0-4.6,1.4-5.6,3.5c-0.4-0.2-0.9-0.3-1.4-0.3c-0.8,0-1.4,0.3-1.9,0.7c-0.8-0.9-2-1.4-3.2-1.4c-0.9,0-1.7,0.3-2.4,0.7
				c-1-1.7-2.9-2.8-5-2.8c0,0-0.1,0-0.1,0c0-0.2,0-0.4,0-0.5c0-3.6-2.9-6.6-6.6-6.6c-2.1,0-3.9,1-5.1,2.5c-0.7-0.6-1.6-1.1-2.5-1.4
				c0-0.2,0-0.3,0-0.5c0-6.3-5.1-11.4-11.4-11.4c-6.1,0-11,4.8-11.3,10.8h0c-2.2,0-4,1.7-4.1,3.9c-0.8,0.3-1.6,0.8-2.3,1.3
				c-0.6-0.2-1.2-0.4-1.9-0.4c-2.8,0-5,2.3-5,5C61.2,108.7,62.5,110.5,64.3,111.3z"/>
			
				<linearGradient id="XMLID_38_" gradientUnits="userSpaceOnUse" x1="116.4258" y1="683.8597" x2="116.4258" y2="737.8972" gradientTransform="matrix(1 0 0 -1 0 842.0699)">
				<stop  offset="0" style="stop-color:#28BDCA"/>
				<stop  offset="0.5419" style="stop-color:#0FB4D2"/>
				<stop  offset="1" style="stop-color:#E6F5F8"/>
			</linearGradient>
			<path id="XMLID_180_" class="st7" d="M170.6,110.8c0-2.8-2.3-5.1-5.1-5.1c-0.7,0-1.3,0.1-1.9,0.4c-0.7-0.5-1.5-0.9-2.3-1.3
				c-0.1-2.2-1.9-3.9-4.1-3.9h0c-0.3-6-5.3-10.8-11.4-10.8c-6.3,0-11.4,5.1-11.4,11.4c0,0.2,0,0.3,0,0.5c-0.9,0.3-1.8,0.7-2.5,1.4
				c-1.2-1.5-3.1-2.5-5.1-2.5c-3.7,0-6.6,3-6.6,6.6c0,0.2,0,0.4,0,0.5c0,0-0.1,0-0.1,0c-2.1,0-4,1.1-5.1,2.8
				c-0.7-0.5-1.5-0.7-2.4-0.7c-1.3,0-2.4,0.5-3.3,1.4c-0.5-0.4-1.2-0.7-2-0.7c-0.5,0-1,0.1-1.4,0.3c-1-2.1-3.2-3.5-5.6-3.5
				c-0.6,0-1.1,0.1-1.7,0.2c0-0.1,0-0.2,0-0.4c0-3.5-2.9-6.4-6.4-6.4c-3.5,0-6.4,2.9-6.4,6.4c0,0.2,0,0.4,0,0.7
				c-1.7,0.4-3.1,1.5-3.8,3.1c-0.2,0-0.4,0-0.6,0c-0.4,0-0.9,0.1-1.3,0.2c-1.3-2.1-3.6-3.5-6.3-3.5c-1.2,0-2.3,0.3-3.3,0.8
				c-0.8-1.3-2.2-2.3-3.9-2.3c-2.5,0-4.5,2-4.5,4.5c0,2.4,1.9,4.4,4.3,4.5c0,4,3.3,7.3,7.4,7.3c1.9,0,3.7-0.7,5-2
				c0.8,0.4,1.6,0.7,2.6,0.7c2,0,3.7-1.2,4.6-2.9c0.3,0.1,0.6,0.1,0.9,0.1c1.5,0,2.9-0.6,3.8-1.6c0.7,0.6,1.7,1.1,2.7,1.1
				c0.6,0,1.2-0.2,1.8-0.4c1.1,1.5,3,2.5,5,2.5c2.5,0,4.7-1.5,5.7-3.6c0.4,0.2,0.9,0.3,1.3,0.3c0.4,0,0.8-0.1,1.2-0.3
				c0.7,1.5,2.2,2.5,4,2.5c1.1,0,2.2-0.4,3-1.1c1.1,1.3,2.7,2.1,4.5,2.1c2.5,0,4.6-1.5,5.5-3.7c2.7,2.8,6.5,4.5,10.7,4.5
				c4.8,0,9.1-2.3,11.8-5.8c0.5,4.9,4.7,8.7,9.7,8.7c4.9,0,8.9-3.6,9.7-8.3C169.2,114.7,170.6,112.9,170.6,110.8z"/>
			
				<linearGradient id="XMLID_41_" gradientUnits="userSpaceOnUse" x1="114.6072" y1="666.1525" x2="114.6072" y2="725.1757" gradientTransform="matrix(1 0 0 -1 0 842.0699)">
				<stop  offset="0" style="stop-color:#28BDCA"/>
				<stop  offset="0.5419" style="stop-color:#0FB4D2"/>
				<stop  offset="1" style="stop-color:#E6F5F8"/>
			</linearGradient>
			<path id="XMLID_179_" class="st8" d="M173.7,124.1c0-3.1-2.5-5.5-5.5-5.5c-0.7,0-1.5,0.2-2.1,0.4c-0.8-0.6-1.6-1-2.5-1.4
				c-0.1-2.4-2.1-4.3-4.5-4.3h0c-0.3-6.6-5.8-11.8-12.4-11.8c-6.9,0-12.5,5.6-12.5,12.5c0,0.2,0,0.4,0,0.5c-1,0.3-2,0.8-2.7,1.5
				c-1.3-1.7-3.3-2.7-5.6-2.7c-4,0-7.2,3.2-7.2,7.2c0,0.2,0,0.4,0,0.6c0,0-0.1,0-0.1,0c-2.3,0-4.4,1.2-5.5,3.1
				c-0.8-0.5-1.7-0.8-2.7-0.8c-1.4,0-2.7,0.6-3.6,1.6c-0.6-0.5-1.3-0.8-2.1-0.8c-0.5,0-1,0.1-1.5,0.4c-1.1-2.3-3.4-3.9-6.1-3.9
				c-0.6,0-1.3,0.1-1.8,0.2c0-0.1,0-0.3,0-0.4c0-3.9-3.1-7-7-7c-3.9,0-7,3.1-7,7c0,0.2,0,0.5,0,0.7c-1.9,0.4-3.4,1.7-4.1,3.4
				c-0.2,0-0.4,0-0.7,0c-0.5,0-1,0.1-1.4,0.2c-1.4-2.3-4-3.8-6.8-3.8c-1.3,0-2.5,0.3-3.6,0.8c-0.8-1.5-2.4-2.5-4.3-2.5
				c-2.7,0-4.9,2.2-4.9,4.9c0,2.6,2.1,4.8,4.7,4.9c0,4.4,3.6,8,8,8c2.1,0,4-0.8,5.4-2.1c0.8,0.5,1.8,0.8,2.8,0.8
				c2.2,0,4.1-1.3,5-3.1c0.3,0.1,0.6,0.1,1,0.1c1.6,0,3.1-0.7,4.2-1.8c0.8,0.7,1.8,1.2,3,1.2c0.7,0,1.4-0.2,2-0.5
				c1.2,1.7,3.2,2.7,5.5,2.7c2.7,0,5.1-1.6,6.2-4c0.4,0.2,0.9,0.3,1.5,0.3c0.5,0,0.9-0.1,1.3-0.3c0.8,1.6,2.4,2.7,4.4,2.7
				c1.2,0,2.4-0.5,3.2-1.2c1.2,1.4,3,2.3,5,2.3c2.7,0,5-1.7,6-4c3,3,7.1,4.9,11.7,4.9c5.2,0,9.9-2.5,12.9-6.3
				c0.6,5.3,5.1,9.5,10.6,9.5c5.3,0,9.8-3.9,10.6-9C172.3,128.4,173.7,126.4,173.7,124.1z"/>
		</g>
		<g id="XMLID_182_">
			
				<linearGradient id="XMLID_44_" gradientUnits="userSpaceOnUse" x1="436.2171" y1="688.6082" x2="436.2171" y2="742.39" gradientTransform="matrix(-1 0 0 -1 575.2 842.0699)">
				<stop  offset="0" style="stop-color:#28BDCA"/>
				<stop  offset="0.5419" style="stop-color:#0FB4D2"/>
				<stop  offset="1" style="stop-color:#E6F5F8"/>
			</linearGradient>
			<path id="XMLID_185_" class="st9" d="M88.2,111c0.7,4.7,4.8,8.2,9.6,8.2c5,0,9.1-3.8,9.7-8.7c2.7,3.5,6.9,5.8,11.7,5.8
				c4.2,0,7.9-1.7,10.6-4.5c0.9,2.1,3,3.6,5.5,3.6c1.8,0,3.4-0.8,4.5-2.1c0.8,0.7,1.8,1.1,2.9,1.1c1.7,0,3.2-1,4-2.5
				c0.4,0.2,0.8,0.3,1.2,0.3c0.5,0,0.9-0.1,1.3-0.3c1,2.1,3.1,3.6,5.7,3.6c2,0,3.9-1,5-2.5c0.5,0.3,1.1,0.4,1.8,0.4
				c1,0,2-0.4,2.7-1.1c1,1,2.3,1.6,3.8,1.6c0.3,0,0.6,0,0.9-0.1c0.8,1.7,2.5,2.9,4.5,2.9c0.9,0,1.8-0.3,2.6-0.7
				c1.3,1.2,3.1,1.9,5,1.9c4,0,7.3-3.2,7.3-7.3c2.4-0.1,4.3-2,4.3-4.4c0-2.5-2-4.4-4.4-4.4c-1.7,0-3.1,0.9-3.9,2.3
				c-1-0.5-2.1-0.8-3.3-0.8c-2.6,0-4.9,1.4-6.2,3.5c-0.4-0.1-0.9-0.2-1.3-0.2c-0.2,0-0.4,0-0.6,0c-0.7-1.6-2.1-2.7-3.8-3.1
				c0-0.2,0-0.4,0-0.7c0-3.5-2.8-6.4-6.4-6.4c-3.5,0-6.4,2.8-6.4,6.4c0,0.1,0,0.2,0,0.4c-0.5-0.1-1.1-0.2-1.7-0.2
				c-2.5,0-4.6,1.4-5.6,3.5c-0.4-0.2-0.9-0.3-1.4-0.3c-0.8,0-1.4,0.3-1.9,0.7c-0.8-0.9-2-1.4-3.2-1.4c-0.9,0-1.7,0.3-2.4,0.7
				c-1-1.7-2.9-2.8-5-2.8c0,0-0.1,0-0.1,0c0-0.2,0-0.4,0-0.5c0-3.6-2.9-6.6-6.6-6.6c-2.1,0-3.9,1-5.1,2.5c-0.7-0.6-1.6-1.1-2.5-1.4
				c0-0.2,0-0.3,0-0.5c0-6.3-5.1-11.4-11.4-11.4c-6.1,0-11,4.8-11.3,10.8h0c-2.2,0-4,1.7-4.1,3.9c-0.8,0.3-1.6,0.8-2.3,1.3
				c-0.6-0.2-1.2-0.4-1.9-0.4c-2.8,0-5,2.3-5,5C85.1,108.4,86.4,110.2,88.2,111z"/>
			
				<linearGradient id="XMLID_45_" gradientUnits="userSpaceOnUse" x1="140.3319" y1="684.2012" x2="140.3319" y2="738.2386" gradientTransform="matrix(1 0 0 -1 0 842.0699)">
				<stop  offset="0" style="stop-color:#28BDCA"/>
				<stop  offset="0.5419" style="stop-color:#0FB4D2"/>
				<stop  offset="1" style="stop-color:#E6F5F8"/>
			</linearGradient>
			<path id="XMLID_184_" class="st10" d="M194.5,110.4c0-2.8-2.3-5.1-5.1-5.1c-0.7,0-1.3,0.1-1.9,0.4c-0.7-0.5-1.5-0.9-2.3-1.3
				c-0.1-2.2-1.9-3.9-4.1-3.9h0c-0.3-6-5.3-10.8-11.4-10.8c-6.3,0-11.4,5.1-11.4,11.4c0,0.2,0,0.3,0,0.5c-0.9,0.3-1.8,0.7-2.5,1.4
				c-1.2-1.5-3.1-2.5-5.1-2.5c-3.7,0-6.6,3-6.6,6.6c0,0.2,0,0.4,0,0.5c0,0-0.1,0-0.1,0c-2.1,0-4,1.1-5.1,2.8
				c-0.7-0.5-1.5-0.7-2.4-0.7c-1.3,0-2.4,0.5-3.3,1.4c-0.5-0.4-1.2-0.7-2-0.7c-0.5,0-1,0.1-1.4,0.3c-1-2.1-3.2-3.5-5.6-3.5
				c-0.6,0-1.1,0.1-1.7,0.2c0-0.1,0-0.2,0-0.4c0-3.5-2.9-6.4-6.4-6.4c-3.5,0-6.4,2.9-6.4,6.4c0,0.2,0,0.4,0,0.7
				c-1.7,0.4-3.1,1.5-3.8,3.1c-0.2,0-0.4,0-0.6,0c-0.4,0-0.9,0.1-1.3,0.2c-1.3-2.1-3.6-3.5-6.3-3.5c-1.2,0-2.3,0.3-3.3,0.8
				c-0.8-1.3-2.2-2.3-3.9-2.3c-2.5,0-4.5,2-4.5,4.5c0,2.4,1.9,4.4,4.3,4.5c0,4,3.3,7.3,7.4,7.3c1.9,0,3.7-0.7,5-2
				c0.8,0.4,1.6,0.7,2.6,0.7c2,0,3.7-1.2,4.6-2.9c0.3,0.1,0.6,0.1,0.9,0.1c1.5,0,2.9-0.6,3.8-1.6c0.7,0.6,1.7,1.1,2.7,1.1
				c0.6,0,1.2-0.2,1.8-0.4c1.1,1.5,3,2.5,5,2.5c2.5,0,4.7-1.5,5.7-3.6c0.4,0.2,0.9,0.3,1.3,0.3c0.4,0,0.8-0.1,1.2-0.3
				c0.7,1.5,2.2,2.5,4,2.5c1.1,0,2.2-0.4,3-1.1c1.1,1.3,2.7,2.1,4.5,2.1c2.5,0,4.6-1.5,5.5-3.7c2.7,2.8,6.5,4.5,10.7,4.5
				c4.8,0,9.1-2.3,11.8-5.8c0.5,4.9,4.7,8.7,9.7,8.7c4.9,0,8.9-3.6,9.7-8.3C193.1,114.4,194.5,112.5,194.5,110.4z"/>
			
				<linearGradient id="XMLID_48_" gradientUnits="userSpaceOnUse" x1="138.5133" y1="666.494" x2="138.5134" y2="725.5173" gradientTransform="matrix(1 0 0 -1 0 842.0699)">
				<stop  offset="0" style="stop-color:#28BDCA"/>
				<stop  offset="0.5419" style="stop-color:#0FB4D2"/>
				<stop  offset="1" style="stop-color:#E6F5F8"/>
			</linearGradient>
			<path id="XMLID_183_" class="st11" d="M197.7,123.8c0-3.1-2.5-5.5-5.5-5.5c-0.7,0-1.5,0.2-2.1,0.4c-0.8-0.6-1.6-1-2.5-1.4
				c-0.1-2.4-2.1-4.3-4.5-4.3h0c-0.3-6.6-5.8-11.8-12.4-11.8c-6.9,0-12.5,5.6-12.5,12.5c0,0.2,0,0.4,0,0.5c-1,0.3-2,0.8-2.7,1.5
				c-1.3-1.7-3.3-2.7-5.6-2.7c-4,0-7.2,3.2-7.2,7.2c0,0.2,0,0.4,0,0.6c0,0-0.1,0-0.1,0c-2.3,0-4.4,1.2-5.5,3.1
				c-0.8-0.5-1.7-0.8-2.7-0.8c-1.4,0-2.7,0.6-3.6,1.6c-0.6-0.5-1.3-0.8-2.1-0.8c-0.5,0-1,0.1-1.5,0.4c-1.1-2.3-3.4-3.9-6.1-3.9
				c-0.6,0-1.3,0.1-1.8,0.2c0-0.1,0-0.3,0-0.4c0-3.9-3.1-7-7-7c-3.9,0-7,3.1-7,7c0,0.2,0,0.5,0,0.7c-1.9,0.4-3.4,1.7-4.1,3.4
				c-0.2,0-0.4,0-0.7,0c-0.5,0-1,0.1-1.4,0.2c-1.4-2.3-4-3.8-6.8-3.8c-1.3,0-2.5,0.3-3.6,0.8c-0.8-1.5-2.4-2.5-4.3-2.5
				c-2.7,0-4.9,2.2-4.9,4.9c0,2.6,2.1,4.8,4.7,4.9c0,4.4,3.6,8,8,8c2.1,0,4-0.8,5.4-2.1c0.8,0.5,1.8,0.8,2.8,0.8
				c2.2,0,4.1-1.3,5-3.1c0.3,0.1,0.6,0.1,1,0.1c1.6,0,3.1-0.7,4.2-1.8c0.8,0.7,1.8,1.2,3,1.2c0.7,0,1.4-0.2,2-0.5
				c1.2,1.7,3.2,2.7,5.5,2.7c2.7,0,5.1-1.6,6.2-4c0.4,0.2,0.9,0.3,1.5,0.3c0.5,0,0.9-0.1,1.3-0.3c0.8,1.6,2.4,2.7,4.4,2.7
				c1.2,0,2.4-0.5,3.2-1.2c1.2,1.4,3,2.3,5,2.3c2.7,0,5-1.7,6-4c3,3,7.1,4.9,11.7,4.9c5.2,0,9.9-2.5,12.9-6.3
				c0.6,5.3,5.1,9.5,10.6,9.5c5.3,0,9.8-3.9,10.6-9C196.2,128,197.7,126.1,197.7,123.8z"/>
		</g>
		<g id="XMLID_140_">
			
				<linearGradient id="XMLID_49_" gradientUnits="userSpaceOnUse" x1="515.1328" y1="681.7095" x2="515.1328" y2="735.4913" gradientTransform="matrix(-1 0 0 -1 575.2 842.0699)">
				<stop  offset="0" style="stop-color:#28BDCA"/>
				<stop  offset="0.5419" style="stop-color:#0FB4D2"/>
				<stop  offset="1" style="stop-color:#E6F5F8"/>
			</linearGradient>
			<path id="XMLID_176_" class="st12" d="M9.3,117.9c0.7,4.7,4.8,8.2,9.6,8.2c5,0,9.1-3.8,9.7-8.7c2.7,3.5,6.9,5.8,11.7,5.8
				c4.2,0,7.9-1.7,10.6-4.5c0.9,2.1,3,3.6,5.5,3.6c1.8,0,3.4-0.8,4.5-2.1c0.8,0.7,1.8,1.1,2.9,1.1c1.7,0,3.2-1,4-2.5
				c0.4,0.2,0.8,0.3,1.2,0.3c0.5,0,0.9-0.1,1.3-0.3c1,2.1,3.1,3.6,5.7,3.6c2,0,3.9-1,5-2.5c0.5,0.3,1.1,0.4,1.8,0.4
				c1,0,2-0.4,2.7-1.1c1,1,2.3,1.6,3.8,1.6c0.3,0,0.6,0,0.9-0.1c0.8,1.7,2.5,2.9,4.5,2.9c0.9,0,1.8-0.3,2.6-0.7
				c1.3,1.2,3.1,1.9,5,1.9c4,0,7.3-3.2,7.3-7.3c2.4-0.1,4.3-2,4.3-4.4c0-2.5-2-4.4-4.4-4.4c-1.7,0-3.1,0.9-3.9,2.3
				c-1-0.5-2.1-0.8-3.3-0.8c-2.6,0-4.9,1.4-6.2,3.5c-0.4-0.1-0.9-0.2-1.3-0.2c-0.2,0-0.4,0-0.6,0c-0.7-1.6-2.1-2.7-3.8-3.1
				c0-0.2,0-0.4,0-0.7c0-3.5-2.8-6.4-6.4-6.4c-3.5,0-6.4,2.8-6.4,6.4c0,0.1,0,0.2,0,0.4c-0.5-0.1-1.1-0.2-1.7-0.2
				c-2.5,0-4.6,1.4-5.6,3.5c-0.4-0.2-0.9-0.3-1.4-0.3c-0.8,0-1.4,0.3-1.9,0.7c-0.8-0.9-2-1.4-3.2-1.4c-0.9,0-1.7,0.3-2.4,0.7
				c-1-1.7-2.9-2.8-5-2.8c0,0-0.1,0-0.1,0c0-0.2,0-0.4,0-0.5c0-3.6-2.9-6.6-6.6-6.6c-2.1,0-3.9,1-5.1,2.5c-0.7-0.6-1.6-1.1-2.5-1.4
				c0-0.2,0-0.3,0-0.5c0-6.3-5.1-11.4-11.4-11.4c-6.1,0-11,4.8-11.3,10.8h0c-2.2,0-4,1.7-4.1,3.9c-0.8,0.3-1.6,0.8-2.3,1.3
				c-0.6-0.2-1.2-0.4-1.9-0.4c-2.8,0-5,2.3-5,5C6.2,115.3,7.5,117.1,9.3,117.9z"/>
			
				<linearGradient id="XMLID_50_" gradientUnits="userSpaceOnUse" x1="61.4162" y1="677.3025" x2="61.4162" y2="731.34" gradientTransform="matrix(1 0 0 -1 0 842.0699)">
				<stop  offset="0" style="stop-color:#28BDCA"/>
				<stop  offset="0.5419" style="stop-color:#0FB4D2"/>
				<stop  offset="1" style="stop-color:#E6F5F8"/>
			</linearGradient>
			<path id="XMLID_166_" class="st13" d="M115.5,117.3c0-2.8-2.3-5.1-5.1-5.1c-0.7,0-1.3,0.1-1.9,0.4c-0.7-0.5-1.5-0.9-2.3-1.3
				c-0.1-2.2-1.9-3.9-4.1-3.9h0c-0.3-6-5.3-10.8-11.4-10.8c-6.3,0-11.4,5.1-11.4,11.4c0,0.2,0,0.3,0,0.5c-0.9,0.3-1.8,0.7-2.5,1.4
				c-1.2-1.5-3.1-2.5-5.1-2.5c-3.7,0-6.6,3-6.6,6.6c0,0.2,0,0.4,0,0.5c0,0-0.1,0-0.1,0c-2.1,0-4,1.1-5.1,2.8
				c-0.7-0.5-1.5-0.7-2.4-0.7c-1.3,0-2.4,0.5-3.3,1.4c-0.5-0.4-1.2-0.7-2-0.7c-0.5,0-1,0.1-1.4,0.3c-1-2.1-3.2-3.5-5.6-3.5
				c-0.6,0-1.1,0.1-1.7,0.2c0-0.1,0-0.2,0-0.4c0-3.5-2.9-6.4-6.4-6.4c-3.5,0-6.4,2.9-6.4,6.4c0,0.2,0,0.4,0,0.7
				c-1.7,0.4-3.1,1.5-3.8,3.1c-0.2,0-0.4,0-0.6,0c-0.4,0-0.9,0.1-1.3,0.2c-1.3-2.1-3.6-3.5-6.3-3.5c-1.2,0-2.3,0.3-3.3,0.8
				c-0.8-1.3-2.2-2.3-3.9-2.3c-2.5,0-4.5,2-4.5,4.5c0,2.4,1.9,4.4,4.3,4.5c0,4,3.3,7.3,7.4,7.3c1.9,0,3.7-0.7,5-2
				c0.8,0.4,1.6,0.7,2.6,0.7c2,0,3.7-1.2,4.6-2.9c0.3,0.1,0.6,0.1,0.9,0.1c1.5,0,2.9-0.6,3.8-1.6c0.7,0.6,1.7,1.1,2.7,1.1
				c0.6,0,1.2-0.2,1.8-0.4c1.1,1.5,3,2.5,5,2.5c2.5,0,4.7-1.5,5.7-3.6c0.4,0.2,0.9,0.3,1.3,0.3c0.4,0,0.8-0.1,1.2-0.3
				c0.7,1.5,2.2,2.5,4,2.5c1.1,0,2.2-0.4,3-1.1c1.1,1.3,2.7,2.1,4.5,2.1c2.5,0,4.6-1.5,5.5-3.7c2.7,2.8,6.5,4.5,10.7,4.5
				c4.8,0,9.1-2.3,11.8-5.8c0.5,4.9,4.7,8.7,9.7,8.7c4.9,0,8.9-3.6,9.7-8.3C114.2,121.3,115.5,119.4,115.5,117.3z"/>
			
				<linearGradient id="XMLID_51_" gradientUnits="userSpaceOnUse" x1="59.5976" y1="659.5953" x2="59.5977" y2="718.6186" gradientTransform="matrix(1 0 0 -1 0 842.0699)">
				<stop  offset="0" style="stop-color:#28BDCA"/>
				<stop  offset="0.5419" style="stop-color:#0FB4D2"/>
				<stop  offset="1" style="stop-color:#E6F5F8"/>
			</linearGradient>
			<path id="XMLID_154_" class="st14" d="M118.7,130.7c0-3.1-2.5-5.5-5.5-5.5c-0.7,0-1.5,0.2-2.1,0.4c-0.8-0.6-1.6-1-2.5-1.4
				c-0.1-2.4-2.1-4.3-4.5-4.3h0c-0.3-6.6-5.8-11.8-12.4-11.8c-6.9,0-12.5,5.6-12.5,12.5c0,0.2,0,0.4,0,0.5c-1,0.3-2,0.8-2.7,1.5
				c-1.3-1.7-3.3-2.7-5.6-2.7c-4,0-7.2,3.2-7.2,7.2c0,0.2,0,0.4,0,0.6c0,0-0.1,0-0.1,0c-2.3,0-4.4,1.2-5.5,3.1
				c-0.8-0.5-1.7-0.8-2.7-0.8c-1.4,0-2.7,0.6-3.6,1.6c-0.6-0.5-1.3-0.8-2.1-0.8c-0.5,0-1,0.1-1.5,0.4c-1.1-2.3-3.4-3.9-6.1-3.9
				c-0.6,0-1.3,0.1-1.8,0.2c0-0.1,0-0.3,0-0.4c0-3.9-3.1-7-7-7c-3.9,0-7,3.1-7,7c0,0.2,0,0.5,0,0.7c-1.9,0.4-3.4,1.7-4.1,3.4
				c-0.2,0-0.4,0-0.7,0c-0.5,0-1,0.1-1.4,0.2c-1.4-2.3-4-3.8-6.8-3.8c-1.3,0-2.5,0.3-3.6,0.8C8.7,127,7.1,126,5.3,126
				c-2.7,0-4.9,2.2-4.9,4.9c0,2.6,2.1,4.8,4.7,4.9c0,4.4,3.6,8,8,8c2.1,0,4-0.8,5.4-2.1c0.8,0.5,1.8,0.8,2.8,0.8
				c2.2,0,4.1-1.3,5-3.1c0.3,0.1,0.6,0.1,1,0.1c1.6,0,3.1-0.7,4.2-1.8c0.8,0.7,1.8,1.2,3,1.2c0.7,0,1.4-0.2,2-0.5
				c1.2,1.7,3.2,2.7,5.5,2.7c2.7,0,5.1-1.6,6.2-4c0.4,0.2,0.9,0.3,1.5,0.3c0.5,0,0.9-0.1,1.3-0.3c0.8,1.6,2.4,2.7,4.4,2.7
				c1.2,0,2.4-0.5,3.2-1.2c1.2,1.4,3,2.3,5,2.3c2.7,0,5-1.7,6-4c3,3,7.1,4.9,11.7,4.9c5.2,0,9.9-2.5,12.9-6.3
				c0.6,5.3,5.1,9.5,10.6,9.5c5.3,0,9.8-3.9,10.6-9C117.3,134.9,118.7,133,118.7,130.7z"/>
		</g>
	</g>
	<rect id="XMLID_110_" x="-51.6" y="118.3" class="st15" width="242.1" height="54.9"/>
	<path id="XMLID_265_" class="st16" d="M60.6,113.7C60.6,113.7,60.6,113.7,60.6,113.7C60.6,113.7,60.6,113.7,60.6,113.7
		C60.6,113.7,60.6,113.7,60.6,113.7z"/>
	<rect id="XMLID_247_" x="159.7" y="105.3" class="st17" width="3.8" height="6.5"/>
	<rect id="XMLID_246_" x="27.3" y="98.6" class="st17" width="1.8" height="2.4"/>
	<path id="XMLID_43_" class="st18" d="M65.2,119.1c-0.4-0.2,56.4-0.5,56.4-0.5l6.3,3l29.2-0.8l1.4-4.7l-15.4-12.9l-42.3-7.1
		c0,0-40.5,0-41,0.5c-0.6,0.5-12.4,0.6-12.8,0.8c-0.4,0.2-9.4,7.7-9.4,7.7l-8.5,9.8l0.7,3.5l23.8,0.6"/>
	<polygon id="XMLID_202_" class="st17" points="28.3,93.3 32.1,94.4 31,98.7 27.1,97.7 	"/>
	<linearGradient id="XMLID_69_" gradientUnits="userSpaceOnUse" x1="95.2516" y1="61.2973" x2="95.2516" y2="111.9442">
		<stop  offset="0" style="stop-color:#E5264E"/>
		<stop  offset="1" style="stop-color:#E52052"/>
	</linearGradient>
	<path id="XMLID_39_" class="st19" d="M41.4,72.2c0,0-10.8,14-10.7,16.5l-1.9,2.6c0,0-2.2,14.1-0.6,20.3c0,0-0.6,5.2,2.4,5.2
		s13.3,0.2,13.3,0.2s-0.3,1.3,1.1-1.3c1.4-2.6,3.5-10.4,6.7-10.4c3.2-0.1,8.7,0,8.7,0s2.5-0.7,5.1,4.3c2.5,5,2.3,7.3,6.4,7.3
		s45.5,0,45.5,0s2.8,0.5,3.9-2.4s2.8-4.5,5.2-4.5c2.4,0,16.1-0.1,16.1-0.1s1.8-0.2,4.2,3.2s2.2,3.9,2.2,3.9l12.6,0.2l1.3-1.2
		l-0.6-27.1c0,0-2.3-18.6-6.7-20"/>
	<linearGradient id="XMLID_76_" gradientUnits="userSpaceOnUse" x1="166.6801" y1="62.4156" x2="62.1557" y2="62.4156">
		<stop  offset="0" style="stop-color:#A88D8D"/>
		<stop  offset="1" style="stop-color:#FFFFFF"/>
	</linearGradient>
	<path id="XMLID_105_" class="st20" d="M47.6,64.4c0,0,4.7-3.9,7.7-4.2c3-0.3,49-3.1,89.5,0.2c0,0,7.8,4.2,8.2,5.3
		S47.6,64.4,47.6,64.4z"/>
	<linearGradient id="XMLID_77_" gradientUnits="userSpaceOnUse" x1="39.4862" y1="68.9896" x2="159.3738" y2="68.9896">
		<stop  offset="0" style="stop-color:#E065A6"/>
		<stop  offset="1" style="stop-color:#E52052"/>
	</linearGradient>
	<path id="XMLID_114_" class="st21" d="M39.5,74.5l7.1-10.7c0,0,93.5-1.1,107.2,1.4c0,0,3.2,1.3,5.6,9L39.5,74.5z"/>
	<path id="XMLID_126_" class="st22" d="M159.1,74.3c-2.3-7.7-5.5-9-5.5-9c-0.4-0.1-0.9-0.1-1.4-0.2c-1.4-1.9-7.8-6.5-7.8-6.5
		c-12.7-1.4-25.9-1.9-38.1-2l-0.1,0c0,0,9.6,1.6,11.2,7.2c0.2,0.6,0.2,1.2,0.2,1.8c-0.1,2.3-1.3,5.2-4.7,8.7c0,0.1-0.1,0.1-0.1,0.2
		c0,0.1-0.1,0.1-0.1,0.2c-0.2,0.2-0.4,0.4-0.5,0.6h47.2v-0.9H159.1z"/>
	<rect id="XMLID_209_" x="152.2" y="108.1" class="st23" width="3.6" height="3"/>
	<rect id="XMLID_248_" x="152.4" y="108.3" class="st17" width="3.2" height="2.7"/>
	<rect id="XMLID_228_" x="26.2" y="116.1" class="st23" width="4.2" height="1"/>
	<rect id="XMLID_229_" x="153.4" y="108.2" class="st23" width="0.2" height="2.9"/>
	<linearGradient id="XMLID_78_" gradientUnits="userSpaceOnUse" x1="70.4371" y1="91.6971" x2="110.8103" y2="91.6971">
		<stop  offset="0" style="stop-color:#A88D8D"/>
		<stop  offset="1" style="stop-color:#6E728D"/>
	</linearGradient>
	<path id="XMLID_238_" class="st24" d="M70.4,91.2c0,0,16.8,3,40.4-0.2L70.4,91.2z"/>
	<linearGradient id="XMLID_79_" gradientUnits="userSpaceOnUse" x1="160.7453" y1="88.6055" x2="48.5076" y2="88.6055">
		<stop  offset="0" style="stop-color:#A88D8D"/>
		<stop  offset="1" style="stop-color:#FFFFFF"/>
	</linearGradient>
	<path id="XMLID_83_" class="st25" d="M162.3,88.8c0,0-0.9-7.2-2.6-13H38.8l-0.2,0L37.9,77l0,0.1C35.8,80,33.3,83.5,32,86l-2.8,4.1
		c-1.2,1.7-1.5,11-1.5,11l0.1-0.2c0,0.2,0,0.4,0,0.6c0,0,2.8-8.2,8.7-8.2c1.7,0,2.8,0,3.5-0.1h122.4L162.3,88.8z"/>
	<g id="XMLID_225_" class="st2">
		<ellipse id="XMLID_212_" class="st26" cx="100.8" cy="100.4" rx="2.2" ry="1.6"/>
		<rect id="XMLID_36_" x="100" y="100.1" class="st27" width="6.6" height="0.4"/>
		<g id="XMLID_335_">
			<ellipse id="XMLID_46_" class="st26" cx="61" cy="100.4" rx="2.2" ry="1.6"/>
			<rect id="XMLID_192_" x="59.8" y="100.1" class="st28" width="6.6" height="0.4"/>
		</g>
	</g>
	<g id="XMLID_82_" class="st29">
		<linearGradient id="XMLID_81_" gradientUnits="userSpaceOnUse" x1="34.4764" y1="96.597" x2="65.8042" y2="96.597">
			<stop  offset="0" style="stop-color:#A88D8D"/>
			<stop  offset="1" style="stop-color:#FFFFFF"/>
		</linearGradient>
		<path id="XMLID_198_" class="st30" d="M34.5,97.9c0,0,2.5-2.6,5.5-2.6s25.8,0,25.8,0v2.5L34.5,97.9z"/>
		<linearGradient id="XMLID_85_" gradientUnits="userSpaceOnUse" x1="71.6505" y1="96.5901" x2="108.935" y2="96.5901">
			<stop  offset="0" style="stop-color:#A88D8D"/>
			<stop  offset="1" style="stop-color:#FFFFFF"/>
		</linearGradient>
		<path id="XMLID_337_" class="st31" d="M72,95.3c-0.1,0-0.2,0-0.3,0v2.6l37.3-0.1v-2.5C108.9,95.3,76.2,95.3,72,95.3z"/>
		<linearGradient id="XMLID_88_" gradientUnits="userSpaceOnUse" x1="114.3402" y1="96.597" x2="159.4566" y2="96.597">
			<stop  offset="0" style="stop-color:#A88D8D"/>
			<stop  offset="1" style="stop-color:#FFFFFF"/>
		</linearGradient>
		<path id="XMLID_336_" class="st32" d="M159.5,97.9c0,0-2.5-2.6-5.5-2.6c-0.4,0-1.2,0-2.3,0c-6.6,0-23.5,0-23.5,0
			c-6.3,0-11.9,0-13.5,0c-0.1,0-0.2,0-0.3,0v2.6l23.4,0L159.5,97.9z"/>
	</g>
	<g id="XMLID_261_" class="st2">
		<g id="XMLID_249_">
			<ellipse id="XMLID_226_" class="st28" cx="30.7" cy="98.3" rx="1.5" ry="1.9"/>
			<ellipse id="XMLID_258_" class="st33" cx="30.4" cy="98.2" rx="1.2" ry="1.4"/>
		</g>
		<g id="XMLID_262_">
			<ellipse id="XMLID_358_" class="st28" cx="30.7" cy="103.3" rx="1.5" ry="1.9"/>
			<ellipse id="XMLID_355_" class="st33" cx="30.4" cy="103.2" rx="1.2" ry="1.4"/>
		</g>
	</g>
	<g id="XMLID_130_" class="st2">
		<path id="XMLID_168_" class="st34" d="M156.8,89c0,0,2.3,0.7,2.9-1.1s-5.1-10.5-5.1-10.5l-4.8,0.2l5.3,11.7L156.8,89z"/>
		<g id="XMLID_26_">
			<path id="XMLID_42_" class="st35" d="M154.1,86.4l0.2,0.9h4.3c0-0.3-0.1-0.6-0.1-0.9H154.1z"/>
			<path id="XMLID_52_" class="st35" d="M153.6,77.5h-3.6l0.2,0.7h4.1C154,77.9,153.8,77.6,153.6,77.5z"/>
			<path id="XMLID_60_" class="st35" d="M153.4,85.1l0.2,0.9h4.4c0-0.3-0.1-0.6-0.2-0.9H153.4z"/>
			<path id="XMLID_62_" class="st35" d="M154.8,88.5l0.5,0.8h2.4l0.8-0.1l0.7-0.6c0,0,0-0.3-0.1-0.9h-4.3L154.8,88.5z"/>
			<path id="XMLID_63_" class="st35" d="M152.7,83.8l0.2,0.9h4.4c-0.1-0.3-0.1-0.6-0.2-0.9H152.7z"/>
			<path id="XMLID_64_" class="st35" d="M150.8,79.9l0.2,0.9h4.4c-0.1-0.3-0.2-0.6-0.3-0.9H150.8z"/>
			<path id="XMLID_67_" class="st35" d="M150.4,78.6l0.2,0.9h4.3c-0.1-0.3-0.2-0.7-0.3-0.9H150.4z"/>
			<path id="XMLID_68_" class="st35" d="M152.2,82.5l0.2,0.9h4.5c-0.1-0.3-0.1-0.6-0.2-0.9H152.2z"/>
			<path id="XMLID_70_" class="st35" d="M151.5,81.2l0.2,0.9h4.5c-0.1-0.3-0.1-0.6-0.2-0.9H151.5z"/>
		</g>
	</g>
	<linearGradient id="XMLID_91_" gradientUnits="userSpaceOnUse" x1="53.048" y1="97.4325" x2="53.048" y2="61.3109">
		<stop  offset="0" style="stop-color:#016FB4"/>
		<stop  offset="0.5634" style="stop-color:#0FB4D2"/>
		<stop  offset="1" style="stop-color:#E6F5F8"/>
	</linearGradient>
	<path id="XMLID_138_" class="st36" d="M67.7,88.7V79l0,0.1c0,0,0.3-1.5-1.2-1.7H45c-1.5,0-2,1.4-2,1.4l0,0
		c-1.2,2.5-3.6,7.5-3.6,7.5c0,0,0,0,0,0l-0.5,1c-0.3,0.7-0.7,1.8-0.2,2.6c0.4,0.6,1.3,0.4,1.8,0.4c0.7,0,1.4,0,2.1,0
		c0.9,0,1.9,0,2.8,0c1.1,0,2.2,0,3.3,0c1.2,0,2.4,0,3.6,0c1.2,0,2.4,0,3.6,0c1.2,0,2.3,0,3.5,0c1,0,2,0,3,0c0.8,0,1.6,0,2.4,0
		c0.5,0,1,0,1.5,0c0.1,0,0.3,0,0.4,0C67.9,89.9,67.6,88.6,67.7,88.7L67.7,88.7z"/>
	<linearGradient id="XMLID_92_" gradientUnits="userSpaceOnUse" x1="132.7561" y1="98.8638" x2="132.7561" y2="60.2024">
		<stop  offset="0" style="stop-color:#A88D8D"/>
		<stop  offset="1" style="stop-color:#FFFFFF"/>
	</linearGradient>
	<path id="XMLID_227_" class="st37" d="M150.3,87.7l-0.5-1.1c0,0,0,0,0,0c0,0-2.3-5.3-3.4-8l0,0c0,0-0.5-1.5-1.9-1.5h-8.2h-12.2
		h-8.2c-1.4,0.2-1.1,1.9-1.1,1.9l0-0.1v10.3l0-0.1c0,0-0.2,1.4,0.8,1.8c0.1,0,0.3,0,0.4,0c0.5,0,1,0,1.4,0c0.8,0,1.5,0,2.3,0
		c1,0,1.9,0,2.9,0c0.4,0,0.8,0,1.3,0c0.1,0,0.3,0,0.4,0c0.5,0,1,0,1.4,0c0.1,0,0.1,0,0.2,0c0.7,0,1.4,0,2.1,0c0.5,0,0.9,0,1.4,0
		c0.5,0,1,0,1.5,0c0.6,0,1.3,0,1.9,0c0.5,0,0.9,0,1.4,0c0.6,0,1.2,0,1.8,0c0.6,0,1.1,0,1.7,0c0.3,0,0.7,0,1,0c0.7,0,1.3,0,2,0
		c0.3,0,0.7,0,1,0c0.8,0,1.7,0,2.5,0c0.9,0,1.8,0,2.7,0c0.7,0,1.3,0,2,0c0.6,0,1.4,0.2,1.8-0.5C151,89.7,150.6,88.5,150.3,87.7z"/>
	<linearGradient id="XMLID_93_" gradientUnits="userSpaceOnUse" x1="131.7352" y1="97.4325" x2="131.7352" y2="61.3109">
		<stop  offset="0" style="stop-color:#016FB4"/>
		<stop  offset="0.5634" style="stop-color:#0FB4D2"/>
		<stop  offset="1" style="stop-color:#E6F5F8"/>
	</linearGradient>
	<path id="XMLID_40_" class="st38" d="M149.3,87l-0.5-1c0,0,0,0,0,0c0,0-2.3-5-3.4-7.5l0,0c0,0-0.5-1.4-1.9-1.4h-8.2h-12.2h-8.2
		c-1.4,0.2-1.1,1.7-1.1,1.7l0-0.1v9.7l0-0.1c0,0-0.2,1.3,0.8,1.7c0.1,0,0.3,0,0.4,0c0.5,0,1,0,1.4,0c0.8,0,1.5,0,2.3,0
		c1,0,1.9,0,2.9,0c0.4,0,0.8,0,1.3,0c0.1,0,0.3,0,0.4,0c0.5,0,1,0,1.4,0c0.1,0,0.1,0,0.2,0c0.7,0,1.4,0,2.1,0c0.5,0,0.9,0,1.4,0
		c0.5,0,1,0,1.5,0c0.6,0,1.3,0,1.9,0c0.5,0,0.9,0,1.4,0c0.6,0,1.2,0,1.8,0c0.6,0,1.1,0,1.7,0c0.3,0,0.7,0,1,0c0.7,0,1.3,0,2,0
		c0.3,0,0.7,0,1,0c0.8,0,1.7,0,2.5,0c0.9,0,1.8,0,2.7,0c0.7,0,1.3,0,2,0c0.6,0,1.4,0.2,1.8-0.4C150,88.9,149.6,87.7,149.3,87z"/>
	<rect id="XMLID_775_" x="73" y="78.1" class="st39" width="35.1" height="3.2"/>
	<linearGradient id="XMLID_94_" gradientUnits="userSpaceOnUse" x1="90.5506" y1="144.6487" x2="90.5506" y2="20.089">
		<stop  offset="0" style="stop-color:#016FB4"/>
		<stop  offset="0.5634" style="stop-color:#0FB4D2"/>
		<stop  offset="1" style="stop-color:#E6F5F8"/>
	</linearGradient>
	<rect id="XMLID_774_" x="73" y="78.1" class="st40" width="35.1" height="10.9"/>
	<g id="XMLID_86_" class="st41">
		
			<linearGradient id="XMLID_95_" gradientUnits="userSpaceOnUse" x1="10005.6406" y1="4691.6304" x2="10005.6406" y2="4649.8364" gradientTransform="matrix(-1 0 0 -1 10075.0947 4768.75)">
			<stop  offset="0" style="stop-color:#FFFFFF"/>
			<stop  offset="1" style="stop-color:#000000"/>
		</linearGradient>
		<rect id="XMLID_73_" x="69.3" y="75.9" class="st42" width="0.3" height="40.2"/>
		
			<linearGradient id="XMLID_96_" gradientUnits="userSpaceOnUse" x1="10341.3506" y1="4691.5313" x2="10341.3506" y2="4648.8774" gradientTransform="matrix(-1 0 0 -1 10452.4287 4768.75)">
			<stop  offset="0" style="stop-color:#FFFFFF"/>
			<stop  offset="1" style="stop-color:#000000"/>
		</linearGradient>
		<rect id="XMLID_158_" x="110.9" y="76" class="st43" width="0.3" height="41"/>
	</g>
	<linearGradient id="XMLID_97_" gradientUnits="userSpaceOnUse" x1="107.5326" y1="74.6214" x2="43.2168" y2="74.6214">
		<stop  offset="0" style="stop-color:#A88D8D"/>
		<stop  offset="1" style="stop-color:#FFFFFF"/>
	</linearGradient>
	<rect id="XMLID_109_" x="39.1" y="74.2" class="st44" width="120.3" height="0.9"/>
	
		<linearGradient id="XMLID_98_" gradientUnits="userSpaceOnUse" x1="103.6445" y1="-104.6811" x2="105.2276" y2="-104.6811" gradientTransform="matrix(0.9994 -3.594902e-002 3.594902e-002 0.9994 -72.4967 205.5622)">
		<stop  offset="0" style="stop-color:#E065A6"/>
		<stop  offset="1" style="stop-color:#E52052"/>
	</linearGradient>
	<path id="XMLID_134_" class="st45" d="M27.8,102.1c0-0.1-0.5-4.4-0.5-4.4l1.4-5.5l-1.1,10"/>
	<linearGradient id="XMLID_99_" gradientUnits="userSpaceOnUse" x1="28.1354" y1="108.7157" x2="162.8378" y2="108.7157">
		<stop  offset="0" style="stop-color:#374657"/>
		<stop  offset="1" style="stop-color:#072B36"/>
	</linearGradient>
	<path id="XMLID_302_" class="st46" d="M30.6,116.7c3,0,13.3,0.2,13.3,0.2s-0.3,1.3,1.1-1.3c1.4-2.6,3.5-10.4,6.7-10.4
		c3.2-0.1,8.7,0,8.7,0s2.5-0.7,5.1,4.3c2.5,5,2.3,7.3,6.4,7.3c4.2,0,45.5,0,45.5,0s2.8,0.5,3.9-2.4c1.1-2.9,2.8-4.5,5.2-4.5
		c2.4,0,16.1-0.1,16.1-0.1s1.8-0.2,4.2,3.2c2.3,3.5,2.2,3.9,2.2,3.9l12.6,0.2l1.3-1.2l-0.3-12.1c-8.4-5.8-20.8-3-20.8-3
		s-36.8,15.5-75.2,4.1c-28.3-8.3-36.2,2.2-38.4,8.4C28.2,114.8,28.7,116.7,30.6,116.7z"/>
	<path id="XMLID_276_" class="st17" d="M65.8,109.4c-2.6-5-5.3-4.3-5.3-4.3s-5.7-0.1-9,0c-3.3,0.1-5.5,7.8-6.9,10.4
		c-0.6,1.1-0.9,1.5-1.1,1.6v0.1c0.1,0,0.2,0,0.2,0c0.3-0.1,0.6-0.3,0.8-0.4c0.1-0.2,0.3-0.5,0.5-0.9c1.4-2.6,3.5-10.4,6.7-10.4
		c3.2-0.1,8.7,0,8.7,0s2.5-0.7,5.1,4.3c1.8,3.6,2.2,5.8,3.8,6.8c0.7,0,1.1,0,1.1-0.1C68.1,115.8,67.9,113.5,65.8,109.4z"/>
	<ellipse id="XMLID_80_" class="st47" cx="134.2" cy="117.2" rx="10.1" ry="10.4"/>
	<ellipse id="XMLID_23_" class="st47" cx="56.4" cy="117.2" rx="10.1" ry="10.4"/>
	<ellipse id="XMLID_75_" class="st48" cx="56.6" cy="117.4" rx="9.4" ry="9.6"/>
	<ellipse id="XMLID_287_" class="st49" cx="56.6" cy="117.4" rx="8.9" ry="9.1"/>
	<ellipse id="XMLID_84_" class="st50" cx="56.6" cy="117.2" rx="6.2" ry="6.3"/>
	<ellipse id="XMLID_112_" class="st51" cx="56.6" cy="117.2" rx="5.3" ry="5.4"/>
	<ellipse id="XMLID_115_" class="st50" cx="56.6" cy="117.2" rx="5.1" ry="5.2"/>
	<ellipse id="XMLID_125_" class="st51" cx="56.6" cy="117.2" rx="4.2" ry="4.3"/>
	<ellipse id="XMLID_270_" class="st50" cx="56.6" cy="117.1" rx="3.9" ry="4"/>
	<ellipse id="XMLID_273_" class="st51" cx="56.6" cy="117.2" rx="1.1" ry="1.1"/>
	<ellipse id="XMLID_275_" class="st50" cx="56.6" cy="117.2" rx="0.9" ry="0.9"/>
	<path id="XMLID_309_" class="st52" d="M56.6,123.4c2.3,0,4.2-1.2,5.3-3.1c-4.8-8.9-10-1.3-10.7-0.1
		C52.2,122.1,54.2,123.4,56.6,123.4z"/>
	<path id="XMLID_308_" class="st51" d="M56.5,120.8c1.8,0,3.4-1.3,3.8-3c-2.9-3.5-5.8-1.7-7.6,0.1C53.2,119.6,54.7,120.8,56.5,120.8
		z"/>
	<ellipse id="XMLID_89_" class="st50" cx="56.6" cy="116.9" rx="0.5" ry="0.5"/>
	<g id="XMLID_311_" class="st2">
		<ellipse id="XMLID_330_" class="st53" cx="134.5" cy="117.2" rx="10.1" ry="10.4"/>
		<ellipse id="XMLID_329_" class="st54" cx="134.7" cy="117.4" rx="9.4" ry="9.6"/>
		<ellipse id="XMLID_328_" class="st55" cx="134.7" cy="117.4" rx="8.9" ry="9.1"/>
		<ellipse id="XMLID_327_" class="st56" cx="134.7" cy="117.2" rx="6.2" ry="6.3"/>
		<ellipse id="XMLID_326_" class="st57" cx="134.7" cy="117.2" rx="5.3" ry="5.4"/>
		<ellipse id="XMLID_325_" class="st56" cx="134.7" cy="117.2" rx="5.1" ry="5.2"/>
		<ellipse id="XMLID_324_" class="st57" cx="134.7" cy="117.2" rx="4.2" ry="4.3"/>
		<ellipse id="XMLID_323_" class="st56" cx="134.7" cy="117.1" rx="3.9" ry="4"/>
		<ellipse id="XMLID_322_" class="st57" cx="134.7" cy="117.2" rx="1.1" ry="1.1"/>
		<ellipse id="XMLID_321_" class="st56" cx="134.7" cy="117.2" rx="0.9" ry="0.9"/>
		<path id="XMLID_318_" class="st58" d="M134.7,123.4c2.3,0,4.2-1.2,5.3-3.1c-4.8-8.9-10-1.3-10.7-0.1
			C130.3,122.1,132.3,123.4,134.7,123.4z"/>
		<path id="XMLID_314_" class="st57" d="M134.6,120.8c1.8,0,3.4-1.3,3.8-3c-2.9-3.5-5.8-1.7-7.6,0.1
			C131.3,119.6,132.8,120.8,134.6,120.8z"/>
		<ellipse id="XMLID_313_" class="st56" cx="134.7" cy="116.9" rx="0.5" ry="0.5"/>
		<linearGradient id="XMLID_100_" gradientUnits="userSpaceOnUse" x1="134.6922" y1="128.8693" x2="134.6922" y2="108.6409">
			<stop  offset="0" style="stop-color:#FFFFFF"/>
			<stop  offset="1" style="stop-color:#000000"/>
		</linearGradient>
		<ellipse id="XMLID_312_" class="st59" cx="134.7" cy="117.4" rx="9.4" ry="9.6"/>
	</g>
	<linearGradient id="XMLID_101_" gradientUnits="userSpaceOnUse" x1="56.4463" y1="129.0196" x2="56.4463" y2="108.7912">
		<stop  offset="0" style="stop-color:#FFFFFF"/>
		<stop  offset="1" style="stop-color:#000000"/>
	</linearGradient>
	<ellipse id="XMLID_285_" class="st60" cx="56.4" cy="117.6" rx="9.4" ry="9.6"/>
	<polygon id="XMLID_215_" class="st61" points="50.7,119.2 55.7,117.2 56.7,117.4 51.8,121.3 	"/>
	<polygon id="XMLID_244_" class="st61" points="129,118.6 133.9,116.6 134.9,116.7 130,120.7 	"/>
	<linearGradient id="XMLID_102_" gradientUnits="userSpaceOnUse" x1="120.6702" y1="97.1764" x2="120.6702" y2="61.0547">
		<stop  offset="0" style="stop-color:#016FB4"/>
		<stop  offset="0.5634" style="stop-color:#0FB4D2"/>
		<stop  offset="1" style="stop-color:#E6F5F8"/>
	</linearGradient>
	<path id="XMLID_260_" class="st62" d="M123.4,76.8h-8.2c-1.4,0.2-1.1,1.7-1.1,1.7l0-0.1v9.7l0-0.1c0,0-0.2,1.3,0.8,1.7
		c0.1,0,0.3,0,0.4,0c0.5,0,1,0,1.4,0c0.8,0,1.5,0,2.3,0c1,0,1.9,0,2.9,0c0.4,0,0.8,0,1.3,0c0.1,0,0.3,0,0.4,0c0.5,0,1,0,1.4,0
		c0.1,0,0.1,0,0.2,0c0.7,0,1.4,0,2.1,0c0.1,0,0.1,0,0.2,0v-13H123.4z"/>
	<linearGradient id="XMLID_103_" gradientUnits="userSpaceOnUse" x1="138.6752" y1="97.1764" x2="138.6752" y2="61.0547">
		<stop  offset="0" style="stop-color:#016FB4"/>
		<stop  offset="0.5634" style="stop-color:#0FB4D2"/>
		<stop  offset="1" style="stop-color:#E6F5F8"/>
	</linearGradient>
	<path id="XMLID_299_" class="st63" d="M130,89.8c0.6,0,1.3,0,1.9,0c0.5,0,0.9,0,1.4,0c0.6,0,1.2,0,1.8,0c0.6,0,1.1,0,1.7,0
		c0.3,0,0.7,0,1,0c0.7,0,1.3,0,2,0c0.3,0,0.7,0,1,0c0.8,0,1.7,0,2.5,0c0.9,0,1.8,0,2.7,0c0.7,0,1.3,0,2,0c0.6,0,1.4,0.2,1.8-0.4
		c0.4-0.8,0.1-1.9-0.2-2.6l-0.5-1c0,0,0,0,0,0c0,0-2.3-5-3.4-7.5l0,0c0,0-0.5-1.4-1.9-1.4h-8.2h-8.2v13c0.4,0,0.8,0,1.2,0
		C129,89.8,129.5,89.8,130,89.8z"/>
	<linearGradient id="XMLID_106_" gradientUnits="userSpaceOnUse" x1="127.3541" y1="83.3114" x2="149.9964" y2="83.3114">
		<stop  offset="0" style="stop-color:#374657"/>
		<stop  offset="1" style="stop-color:#072B36"/>
	</linearGradient>
	<path id="XMLID_297_" class="st64" d="M130,89.8c0.6,0,1.3,0,1.9,0c0.5,0,0.9,0,1.4,0c0.6,0,1.2,0,1.8,0c0.6,0,1.1,0,1.7,0
		c0.3,0,0.7,0,1,0c0.7,0,1.3,0,2,0c0.3,0,0.7,0,1,0c0.8,0,1.7,0,2.5,0c0.9,0,1.8,0,2.7,0c0.7,0,1.3,0,2,0c0.6,0,1.4,0.2,1.8-0.4
		c0.4-0.8,0.1-1.9-0.2-2.6l-0.5-1c0,0,0,0,0,0c0,0-2.3-5-3.4-7.5l0,0c0,0-0.5-1.4-1.9-1.4h-8.2h-8.2v13c0.4,0,0.8,0,1.2,0
		C129,89.8,129.5,89.8,130,89.8z"/>
	<linearGradient id="XMLID_107_" gradientUnits="userSpaceOnUse" x1="99.5872" y1="83.7929" x2="99.5872" y2="60.1158">
		<stop  offset="0" style="stop-color:#374657"/>
		<stop  offset="1" style="stop-color:#072B36"/>
	</linearGradient>
	<polyline id="XMLID_250_" class="st65" points="75.7,65 123,64.9 123.9,65.2 124.2,65.9 124.2,72.2 123.4,73 75.9,73 74.9,72.2 
		75.1,65.7 	"/>
	<linearGradient id="XMLID_108_" gradientUnits="userSpaceOnUse" x1="34.5646" y1="97.4325" x2="34.5646" y2="61.3109">
		<stop  offset="0" style="stop-color:#016FB4"/>
		<stop  offset="0.5634" style="stop-color:#0FB4D2"/>
		<stop  offset="1" style="stop-color:#E6F5F8"/>
	</linearGradient>
	<path id="XMLID_353_" class="st66" d="M33.8,90.3l5.9-12.2c0,0,0.1-0.6-0.2-0.9l0,0l0,0c-0.1-0.1-0.2-0.2-0.4-0.2
		c-0.3,0-0.8,0-1.2,0c-5.5,6.6-7.7,10.8-8.5,13c0.2,0.2,0.5,0.3,0.9,0.3C31.8,90.3,33.8,90.3,33.8,90.3z"/>
	<linearGradient id="XMLID_113_" gradientUnits="userSpaceOnUse" x1="103.1795" y1="101.8912" x2="140.2909" y2="72.9762">
		<stop  offset="0" style="stop-color:#28BDCA"/>
		<stop  offset="0.5419" style="stop-color:#0FB4D2"/>
		<stop  offset="1" style="stop-color:#E6F5F8"/>
	</linearGradient>
	<polyline id="XMLID_74_" class="st67" points="115.9,90.1 133.1,76.9 134.6,76.9 120.9,90 	"/>
	<linearGradient id="XMLID_116_" gradientUnits="userSpaceOnUse" x1="105.7596" y1="105.2027" x2="142.871" y2="76.2877">
		<stop  offset="0" style="stop-color:#28BDCA"/>
		<stop  offset="0.5419" style="stop-color:#0FB4D2"/>
		<stop  offset="1" style="stop-color:#E6F5F8"/>
	</linearGradient>
	<polyline id="XMLID_87_" class="st68" points="122.7,90.1 139.9,76.9 141.5,76.9 127.7,90 	"/>
	<linearGradient id="XMLID_117_" gradientUnits="userSpaceOnUse" x1="27.4768" y1="102.0051" x2="64.5882" y2="73.09">
		<stop  offset="0" style="stop-color:#28BDCA"/>
		<stop  offset="0.5419" style="stop-color:#0FB4D2"/>
		<stop  offset="1" style="stop-color:#E6F5F8"/>
	</linearGradient>
	<polyline id="XMLID_778_" class="st69" points="40.2,90.2 57.4,77 58.9,77 45.2,90.1 	"/>
	<linearGradient id="XMLID_118_" gradientUnits="userSpaceOnUse" x1="68.0033" y1="102.0051" x2="105.1148" y2="73.09">
		<stop  offset="0" style="stop-color:#28BDCA"/>
		<stop  offset="0.5419" style="stop-color:#0FB4D2"/>
		<stop  offset="1" style="stop-color:#E6F5F8"/>
	</linearGradient>
	<polyline id="XMLID_152_" class="st70" points="80.7,90.2 97.9,77 99.5,77 85.7,90.1 	"/>
	<linearGradient id="XMLID_119_" gradientUnits="userSpaceOnUse" x1="95.7638" y1="80.5404" x2="119.099" y2="62.359">
		<stop  offset="0" style="stop-color:#28BDCA"/>
		<stop  offset="0.5419" style="stop-color:#0FB4D2"/>
		<stop  offset="1" style="stop-color:#E6F5F8"/>
	</linearGradient>
	<polyline id="XMLID_779_" class="st71" points="103.7,73.1 114.6,64.8 115.5,64.8 106.9,73.1 	"/>
	<linearGradient id="XMLID_120_" gradientUnits="userSpaceOnUse" x1="73.3945" y1="80.5404" x2="96.7297" y2="62.359">
		<stop  offset="0" style="stop-color:#28BDCA"/>
		<stop  offset="0.5419" style="stop-color:#0FB4D2"/>
		<stop  offset="1" style="stop-color:#E6F5F8"/>
	</linearGradient>
	<polyline id="XMLID_780_" class="st72" points="81.4,73.1 92.2,64.8 93.2,64.8 84.5,73.1 	"/>
	<linearGradient id="XMLID_121_" gradientUnits="userSpaceOnUse" x1="70.5835" y1="105.3166" x2="107.6949" y2="76.4016">
		<stop  offset="0" style="stop-color:#28BDCA"/>
		<stop  offset="0.5419" style="stop-color:#0FB4D2"/>
		<stop  offset="1" style="stop-color:#E6F5F8"/>
	</linearGradient>
	<polyline id="XMLID_104_" class="st73" points="87.5,90.2 104.8,77 106.3,77 92.6,90.1 	"/>
	<path id="XMLID_771_" class="st23" d="M109.3,88.4v-9.7l0,0.1c0,0,0.3-1.5-1.5-1.7H73c-0.9,0.1-1.3,0.5-1.4,0.9v11.2
		c0.1,0.3,0.4,0.7,1,0.9h35.5C109.5,89.7,109.2,88.4,109.3,88.4L109.3,88.4z M108.1,89.1H73v-3.2h35.1V89.1z M108.1,85.2H73V82h35.1
		V85.2z M108.1,81.3H73v-3.2h35.1V81.3z"/>
	<g id="XMLID_24_" class="st2">
		<g id="XMLID_272_">
			<ellipse id="XMLID_237_" class="st27" cx="43.9" cy="88.1" rx="1.5" ry="3.3"/>
			<ellipse id="XMLID_277_" class="st74" cx="43.6" cy="88.1" rx="1.3" ry="3"/>
		</g>
		<path id="XMLID_267_" class="st74" d="M43.7,87.2c0,0-2.8,2.9-2.4,4.1c0,0,0.3,0.2,0.5-0.5s0.9-1.9,2-3
			C43.9,87.7,44.3,87.3,43.7,87.2z"/>
		<ellipse id="XMLID_274_" class="st74" cx="41.5" cy="91.2" rx="0.4" ry="0.5"/>
	</g>
	<path id="XMLID_338_" class="st75" d="M123.3,64.7H76c-0.6,0-1.1,0.5-1.1,1.2v6.1c0,0.6,0.5,1.2,1.1,1.2h47.3
		c0.6,0,1.1-0.5,1.1-1.2v-6.1C124.4,65.2,123.9,64.7,123.3,64.7z M75.1,71.8v-5.7c0-0.6,0.5-1.2,1.1-1.2h24v7.2h0v0.7h-24
		C75.6,72.9,75.1,72.4,75.1,71.8z M124.1,71.8c0,0.6-0.5,1.2-1.1,1.2h-21.8v-0.1h0V65h21.8c0.6,0,1.1,0.5,1.1,1.2V71.8z"/>
	<g id="XMLID_301_" class="st2">
		<linearGradient id="XMLID_122_" gradientUnits="userSpaceOnUse" x1="120.0746" y1="75.4542" x2="120.0746" y2="58.7765">
			<stop  offset="0" style="stop-color:#E53F25"/>
			<stop  offset="1" style="stop-color:#FBA919"/>
		</linearGradient>
		<polygon id="XMLID_783_" class="st76" points="123.9,65.2 123,64.9 115.9,64.9 115.9,73 123.4,73 124.1,72.1 124.2,65.9 		"/>
		<rect id="XMLID_776_" x="120.9" y="64.9" class="st77" width="1.2" height="8.1"/>
		<rect id="XMLID_782_" x="117.9" y="64.9" class="st77" width="1.2" height="8.1"/>
		<rect id="XMLID_784_" x="114.9" y="64.9" class="st77" width="1.2" height="8.1"/>
	</g>
	
		<linearGradient id="XMLID_123_" gradientUnits="userSpaceOnUse" x1="11927.5166" y1="75.4542" x2="11927.5166" y2="58.7765" gradientTransform="matrix(-1 0 0 1 12006.667 0)">
		<stop  offset="0" style="stop-color:#E53F25"/>
		<stop  offset="1" style="stop-color:#FECF09"/>
	</linearGradient>
	<polygon id="XMLID_788_" class="st78" points="75.3,65.2 76.2,64.9 83.3,64.9 83.3,73 75.8,73 75.1,72.1 75,65.9 	"/>
	<rect id="XMLID_787_" x="76" y="64.9" class="st75" width="1.2" height="8.1"/>
	<rect id="XMLID_786_" x="77.8" y="64.9" class="st75" width="1.2" height="8.1"/>
	<rect id="XMLID_785_" x="81.5" y="64.9" class="st75" width="1.2" height="8.1"/>
	<linearGradient id="XMLID_124_" gradientUnits="userSpaceOnUse" x1="37.4547" y1="69.7517" x2="165.5236" y2="69.7517">
		<stop  offset="0" style="stop-color:#374657"/>
		<stop  offset="1" style="stop-color:#072B36"/>
	</linearGradient>
	<path id="XMLID_517_" class="st79" d="M159.3,74.1c-2.2-7.2-5.2-8.8-5.5-9c-9.9-0.3-23.4-0.1-29.3,3.2c-9.9,5.4-38.8,4.4-57.9-0.6
		c-11.6-3-19.7-0.3-24.2,2.4l-2.9,4.4L159.3,74.1z"/>
	<path id="XMLID_334_" class="st80" d="M164.7,114.8L164.7,114.8c0,0,0.1-0.4-0.4-0.4h-9.4c-0.6,0.1-0.6,0.5-0.7,0.7v2
		c0,0.2,0.2,0.6,0.7,0.6h9.5c0.4-0.1,0.3-0.4,0.3-0.4l0,0V114.8z"/>
	<path id="XMLID_333_" class="st80" d="M26.2,114.8L26.2,114.8c0,0,0-0.4,0.2-0.4h3.8c0.2,0.1,0.3,0.5,0.3,0.7v2
		c0,0.2-0.1,0.6-0.3,0.6h-3.8c-0.2-0.1-0.1-0.4-0.1-0.4l0,0V114.8z"/>
	<path id="XMLID_686_" class="st16" d="M117.4,69.5c-0.4-0.3-0.6-0.8-0.8-1.3c-0.8-2.3-2.3-4.5-4.3-6"/>
	<linearGradient id="XMLID_127_" gradientUnits="userSpaceOnUse" x1="129.2955" y1="51.3236" x2="129.2955" y2="57.3181">
		<stop  offset="0" style="stop-color:#E5264E"/>
		<stop  offset="1" style="stop-color:#E52052"/>
	</linearGradient>
	<path id="XMLID_881_" class="st81" d="M131.9,52.2c-1.6,0.6-3.9,2.1-5.2,5.7l4.3-0.2L131.9,52.2z"/>
	<linearGradient id="XMLID_128_" gradientUnits="userSpaceOnUse" x1="101.4686" y1="70.2789" x2="97.3704" y2="49.788">
		<stop  offset="0" style="stop-color:#E53F25"/>
		<stop  offset="1" style="stop-color:#FBA919"/>
	</linearGradient>
	<path id="XMLID_882_" class="st82" d="M141.8,57.6C141.8,57.6,141.8,57.6,141.8,57.6L141.8,57.6c-0.1-0.2,0.1-0.3-1.7-0.4
		c-1.8-0.1-4.2-0.2-6.4-0.2c-10.1-0.3-21.4-0.3-32-0.3c-33.8,0-44.1,0.8-45.4,0.9h-0.2c0,0,0,0,0.1,0c-0.1,0-0.1,0-0.1,0h0.2
		c1.4,0.1,11.6,0.9,45.4,0.9c10.6,0,21.8,0,32-0.3c2.2-0.1,4.6-0.1,6.4-0.2C141.8,57.9,141.7,57.7,141.8,57.6L141.8,57.6
		C141.8,57.6,141.8,57.6,141.8,57.6z"/>
	<g id="XMLID_878_" class="st2">
		<path id="XMLID_948_" class="st27" d="M65.7,57.7v-1.4h0c0-0.1-0.1-0.2-0.2-0.2c-0.1,0-0.2,0.1-0.2,0.2h0v1.4h0c0,0,0,0,0,0
			c0,0,0,0,0,0h0v1.4h0c0,0,0,0,0,0c0,0,0,0,0,0h0v1.4h0c0,0,0,0,0,0c0,0,0,0,0,0h0v1.4h0c0,0,0,0,0,0c0,0,0,0,0,0h0v1.4h0
			c0,0.1,0.1,0.2,0.2,0.2c0.1,0,0.2-0.1,0.2-0.2h0v-1.4h0c0,0,0,0,0,0c0,0,0,0,0,0h0v-1.4h0c0,0,0,0,0,0c0,0,0,0,0,0h0v-1.4h0
			c0,0,0,0,0,0c0,0,0,0,0,0h0V57.7L65.7,57.7C65.7,57.7,65.7,57.7,65.7,57.7C65.7,57.7,65.7,57.7,65.7,57.7L65.7,57.7z"/>
		<path id="XMLID_879_" class="st27" d="M68.8,57.7v-1.4h0c0-0.1-0.1-0.2-0.2-0.2c-0.1,0-0.2,0.1-0.2,0.2h0v1.4h0c0,0,0,0,0,0
			c0,0,0,0,0,0h0v1.4h0c0,0,0,0,0,0c0,0,0,0,0,0h0v1.4h0c0,0,0,0,0,0c0,0,0,0,0,0h0v1.4h0c0,0,0,0,0,0c0,0,0,0,0,0h0v1.4h0
			c0,0.1,0.1,0.2,0.2,0.2c0.1,0,0.2-0.1,0.2-0.2h0v-1.4h0c0,0,0,0,0,0c0,0,0,0,0,0h0v-1.4h0c0,0,0,0,0,0c0,0,0,0,0,0h0v-1.4h0
			c0,0,0,0,0,0c0,0,0,0,0,0h0V57.7L68.8,57.7C68.8,57.7,68.8,57.7,68.8,57.7C68.8,57.7,68.8,57.7,68.8,57.7L68.8,57.7z"/>
		<rect id="XMLID_924_" x="64.5" y="62.4" class="st27" width="4.7" height="1.1"/>
	</g>
	<g id="XMLID_930_" class="st2">
		<path id="XMLID_950_" class="st27" d="M121.6,57.7v-1.4h0c0-0.1-0.1-0.2-0.2-0.2c-0.1,0-0.2,0.1-0.2,0.2h0v1.4h0c0,0,0,0,0,0
			c0,0,0,0,0,0h0v1.4h0c0,0,0,0,0,0c0,0,0,0,0,0h0v1.4h0c0,0,0,0,0,0c0,0,0,0,0,0h0v1.4h0c0,0,0,0,0,0c0,0,0,0,0,0h0v1.4h0
			c0,0.1,0.1,0.2,0.2,0.2c0.1,0,0.2-0.1,0.2-0.2h0v-1.4h0c0,0,0,0,0,0c0,0,0,0,0,0h0v-1.4h0c0,0,0,0,0,0c0,0,0,0,0,0h0v-1.4h0
			c0,0,0,0,0,0c0,0,0,0,0,0h0V57.7L121.6,57.7C121.6,57.7,121.6,57.7,121.6,57.7C121.6,57.7,121.6,57.7,121.6,57.7L121.6,57.7z"/>
		<path id="XMLID_949_" class="st27" d="M124.7,57.7v-1.4h0c0-0.1-0.1-0.2-0.2-0.2c-0.1,0-0.2,0.1-0.2,0.2h0v1.4h0c0,0,0,0,0,0
			c0,0,0,0,0,0h0v1.4h0c0,0,0,0,0,0c0,0,0,0,0,0h0v1.4h0c0,0,0,0,0,0c0,0,0,0,0,0h0v1.4h0c0,0,0,0,0,0c0,0,0,0,0,0h0v1.4h0
			c0,0.1,0.1,0.2,0.2,0.2c0.1,0,0.2-0.1,0.2-0.2h0v-1.4h0c0,0,0,0,0,0c0,0,0,0,0,0h0v-1.4h0c0,0,0,0,0,0c0,0,0,0,0,0h0v-1.4h0
			c0,0,0,0,0,0c0,0,0,0,0,0h0V57.7L124.7,57.7C124.7,57.7,124.7,57.7,124.7,57.7C124.7,57.7,124.7,57.7,124.7,57.7L124.7,57.7z"/>
		<rect id="XMLID_947_" x="120.5" y="62.4" class="st27" width="4.7" height="1.1"/>
	</g>
	<path id="XMLID_21_" class="st18" d="M155.6,126.7c-0.6,0-1.1,0-1.6-0.1H29.4c0,0,0.1,0.1,0.1,0.1l16.1,2.7l111.5-1.4
		c0.6-0.1,1.6-0.2,2.4-0.4l1.7-0.5C161.7,127.1,160.7,126.8,155.6,126.7z"/>
	<g id="XMLID_13_" class="st2">
		<circle id="XMLID_17_" class="st83" cx="134.9" cy="114.5" r="0.7"/>
		<circle id="XMLID_16_" class="st83" cx="137.5" cy="117.1" r="0.7"/>
		<circle id="XMLID_15_" class="st83" cx="134.9" cy="119.7" r="0.7"/>
		<circle id="XMLID_14_" class="st83" cx="132.3" cy="117.1" r="0.7"/>
	</g>
	<linearGradient id="XMLID_129_" gradientUnits="userSpaceOnUse" x1="134.4716" y1="128.7942" x2="134.4716" y2="108.5657">
		<stop  offset="0" style="stop-color:#FFFFFF"/>
		<stop  offset="1" style="stop-color:#000000"/>
	</linearGradient>
	<ellipse id="XMLID_331_" class="st84" cx="134.5" cy="117.4" rx="9.4" ry="9.6"/>
	<path id="XMLID_280_" class="st17" d="M134.7,106.7c-8.4,0.1-11.7,4.6-12.5,5.9c1.1-1.6,2.4-2.5,4.1-2.5c2.4,0,16.5-0.1,16.5-0.1
		s1.9-0.2,4.2,3.6c0.2,0.2,0.3,0.5,0.4,0.7l0.1,0C147.7,114.3,144.7,106.5,134.7,106.7z"/>
	<linearGradient id="XMLID_133_" gradientUnits="userSpaceOnUse" x1="56.5815" y1="128.7942" x2="56.5815" y2="108.5657">
		<stop  offset="0" style="stop-color:#FFFFFF"/>
		<stop  offset="1" style="stop-color:#000000"/>
	</linearGradient>
	<ellipse id="XMLID_300_" class="st85" cx="56.6" cy="117.4" rx="9.4" ry="9.6"/>
	<g id="XMLID_10_" class="st2">
		<circle id="XMLID_12_" class="st83" cx="56.4" cy="114.5" r="0.7"/>
		<circle id="XMLID_11_" class="st83" cx="59" cy="117.1" r="0.7"/>
		<circle id="XMLID_22_" class="st83" cx="56.4" cy="119.7" r="0.7"/>
		<circle id="XMLID_25_" class="st83" cx="53.8" cy="117.1" r="0.7"/>
	</g>
</g>
</svg>
