<?xml version="1.0" encoding="utf-8"?>
<!-- Generator: Adobe Illustrator 19.0.0, SVG Export Plug-In . SVG Version: 6.00 Build 0)  -->
<svg version="1.1" id="Layer_1" xmlns="http://www.w3.org/2000/svg" xmlns:xlink="http://www.w3.org/1999/xlink" x="0px" y="0px"
	 viewBox="0 0 182 181" style="enable-background:new 0 0 182 181;" xml:space="preserve">
<style type="text/css">
	.st0{fill:#FFFFFF;}
	.st1{clip-path:url(#XMLID_11_);fill:url(#XMLID_12_);}
	.st2{opacity:0.14;clip-path:url(#XMLID_11_);fill:#FFFFFF;}
	.st3{clip-path:url(#XMLID_11_);fill:url(#XMLID_13_);}
	.st4{clip-path:url(#XMLID_11_);}
	.st5{fill:url(#XMLID_14_);}
	.st6{fill:url(#XMLID_21_);}
	.st7{clip-path:url(#XMLID_11_);fill:url(#XMLID_23_);}
	.st8{clip-path:url(#XMLID_11_);fill:url(#XMLID_26_);}
	.st9{fill:url(#XMLID_36_);}
	.st10{fill:url(#XMLID_51_);}
	.st11{opacity:0.47;clip-path:url(#XMLID_11_);fill:#5E5E5E;}
	.st12{clip-path:url(#XMLID_11_);fill:#FFFFFF;}
	.st13{opacity:0.21;clip-path:url(#XMLID_11_);fill:#5E5E5E;}
	.st14{clip-path:url(#XMLID_11_);fill:#ED118A;}
	.st15{opacity:0.27;clip-path:url(#XMLID_11_);fill:#FFFFFF;}
	.st16{fill:#0F2542;}
	.st17{fill:#2E464E;}
	.st18{clip-path:url(#XMLID_11_);fill:url(#XMLID_52_);}
	.st19{clip-path:url(#XMLID_11_);fill:url(#XMLID_53_);}
	.st20{clip-path:url(#XMLID_11_);fill:url(#XMLID_54_);}
	.st21{clip-path:url(#XMLID_11_);fill:url(#XMLID_55_);}
	.st22{clip-path:url(#XMLID_11_);fill:url(#XMLID_61_);}
	.st23{clip-path:url(#XMLID_11_);fill:url(#XMLID_68_);}
	.st24{clip-path:url(#XMLID_11_);fill:url(#XMLID_70_);}
	.st25{clip-path:url(#XMLID_11_);fill:url(#XMLID_77_);}
	.st26{clip-path:url(#XMLID_11_);fill:url(#XMLID_78_);}
	.st27{clip-path:url(#XMLID_11_);fill:url(#XMLID_88_);}
	.st28{clip-path:url(#XMLID_11_);fill:url(#XMLID_95_);}
	.st29{clip-path:url(#XMLID_11_);fill:url(#XMLID_96_);}
	.st30{clip-path:url(#XMLID_11_);fill:url(#XMLID_97_);}
</style>
<circle id="XMLID_47_" class="st0" cx="93.2" cy="90.3" r="82.3"/>
<g id="XMLID_5_">
	<defs>
		<circle id="XMLID_6_" cx="93.2" cy="90.3" r="76.6"/>
	</defs>
	<clipPath id="XMLID_11_">
		<use xlink:href="#XMLID_6_"  style="overflow:visible;"/>
	</clipPath>
	<linearGradient id="XMLID_12_" gradientUnits="userSpaceOnUse" x1="322.1884" y1="-48.3312" x2="324.6969" y2="276.4677">
		<stop  offset="0" style="stop-color:#016FB4"/>
		<stop  offset="1" style="stop-color:#55C4C5"/>
	</linearGradient>
	<rect id="XMLID_94_" x="-45.1" y="-140.5" class="st1" width="736.4" height="409.3"/>
	<polyline id="XMLID_93_" class="st2" points="107.3,105.5 111.7,108.3 143.6,245.2 107.3,108.3 	"/>
	<linearGradient id="XMLID_13_" gradientUnits="userSpaceOnUse" x1="92.8592" y1="48.733" x2="93.7858" y2="168.7118">
		<stop  offset="0" style="stop-color:#016FB4"/>
		<stop  offset="1" style="stop-color:#55C4C5"/>
	</linearGradient>
	<circle id="XMLID_92_" class="st3" cx="93.2" cy="90.3" r="76.6"/>
	<g id="XMLID_87_" class="st4">
		
			<linearGradient id="XMLID_14_" gradientUnits="userSpaceOnUse" x1="2372.4192" y1="2123.2949" x2="2372.7183" y2="2162.0168" gradientTransform="matrix(-0.4557 1.0637 -1.0431 -0.4469 3406.2085 -1524.1934)">
			<stop  offset="0" style="stop-color:#28BDCA"/>
			<stop  offset="0.5419" style="stop-color:#0FB4D2"/>
			<stop  offset="1" style="stop-color:#E6F5F8"/>
		</linearGradient>
		<polyline id="XMLID_91_" class="st5" points="111.9,77.8 79.9,11.1 82.8,12.4 112.9,77.5 		"/>
		
			<linearGradient id="XMLID_21_" gradientUnits="userSpaceOnUse" x1="2575.5066" y1="2328.8953" x2="2575.8057" y2="2367.6172" gradientTransform="matrix(-0.4695 0.883 -0.883 -0.4695 3394.1243 -1133.1815)">
			<stop  offset="0" style="stop-color:#28BDCA"/>
			<stop  offset="0.5419" style="stop-color:#0FB4D2"/>
			<stop  offset="1" style="stop-color:#E6F5F8"/>
		</linearGradient>
		<polyline id="XMLID_90_" class="st6" points="128.3,71.3 104.7,11.1 107.2,12.4 129.2,71.1 		"/>
		<path id="XMLID_89_" class="st0" d="M118.7,76l-6.8,1.3l0.1,0.5l0.2,0.1l8.8,0.5l0.2,0.6c0.4,1.3,1.3,3.5,2.7,3.9l0,0
			c0.1,0,0.1,0,0.1,0c0-0.1,0.1-0.1,0.1-0.2c0.6-1.3-0.3-3.4-0.8-4.6l-0.3-0.6l6-6.4l0-0.2l-0.3-0.4l-5.8,3.7l-1.2,0.3
			c-0.5-1.1-1-2.1-1.4-2.7l1.7-2.1l0.1,0.1l0.3,0l-0.8-1.5l-0.1,0.1l0.2,0.6l-2.1,1.8c-0.1-0.1-0.1-0.1-0.1-0.1l-0.3,0l0,0.1
			c0,0,0,0,0,0l0,0l-0.2,0.2c0,0,0,0.1,0,0.2l-2.7,0.2l-0.3-0.6l-0.2,0l0.4,1.6l0.2-0.1l0-0.2l2.7,0.4c0.1,0.8,0.4,1.8,0.8,2.9
			L118.7,76z"/>
	</g>
	
		<linearGradient id="XMLID_23_" gradientUnits="userSpaceOnUse" x1="-4791.3169" y1="408.5475" x2="-4791.3169" y2="755.2358" gradientTransform="matrix(1 0 0 -1 5130.5586 842.0699)">
		<stop  offset="0" style="stop-color:#28BDCA"/>
		<stop  offset="0.5419" style="stop-color:#0FB4D2"/>
		<stop  offset="1" style="stop-color:#E6F5F8"/>
	</linearGradient>
	<path id="XMLID_86_" class="st7" d="M650.5,159.6c-4.5,30.1-29.2,53.1-59,53.1c-30.8,0-56-24.4-59.4-55.8
		c-16.6,22.6-42.6,37.1-71.9,37.1c-25.5,0-48.6-11.1-65.1-28.8c-5.5,13.8-18.5,23.4-33.6,23.4c-11.1,0-21-5.2-27.7-13.4
		c-4.8,4.5-11.1,7.3-18,7.3c-10.7,0-19.9-6.5-24.3-16c-2.3,1.1-4.8,1.7-7.4,1.7c-2.9,0-5.8-0.7-8.2-2c-6,13.8-19.3,23.3-34.7,23.3
		c-12.6,0-23.7-6.3-30.6-16.1c-3.4,1.8-7,2.8-11,2.8c-6.4,0-12.2-2.6-16.6-6.8c-5.9,6.4-14.1,10.3-23.2,10.3c-2,0-3.9-0.2-5.7-0.6
		c-5,10.9-15.6,18.4-27.8,18.4c-5.8,0-11.1-1.7-15.7-4.5c-8.1,7.8-18.7,12.5-30.5,12.5c-24.7,0-44.7-20.9-44.9-46.8
		c-14.6-0.7-26.2-13.2-26.2-28.6c0-15.9,12.1-28.6,27.2-28.6c10.3,0,19.1,5.9,23.8,14.6c6.1-3.2,12.9-5,20.1-5
		c16.1,0,30.3,9,38.2,22.5c2.5-0.8,5.2-1.1,8-1.1c1.3,0,2.5,0.1,3.8,0.2c4.1-10.1,12.7-17.7,23.1-20c-0.1-1.4-0.2-2.9-0.2-4.3
		c0-22.6,17.4-40.9,38.9-40.9c21.5,0,38.9,18.3,38.9,40.9c0,0.8-0.1,1.5-0.1,2.3c3.2-0.9,6.7-1.4,10.3-1.4
		c15.1,0,28.2,9.2,34.3,22.7c2.6-1.4,5.4-2.2,8.5-2.2c4.6,0,8.8,1.8,11.9,4.6c5-5.6,12-9.1,19.9-9.1c5.5,0,10.6,1.7,14.9,4.6
		c6.4-10.9,17.9-18.1,30.9-18.1c0.1,0,0.3,0,0.5,0c0-1.1-0.1-2.3-0.1-3.4c0-23.4,18-42.4,40.3-42.4c12.7,0,24,6.2,31.4,15.9
		c4.3-4.2,9.5-7.3,15.3-8.9c-0.1-1-0.1-2.1-0.1-3.1c0-40.4,31.2-73.2,69.6-73.2c37.2,0,67.6,30.7,69.5,69.3h0.1
		c13.5,0,24.5,11.1,25.1,25.1c5,2.1,9.7,4.8,14,8.1c3.6-1.5,7.5-2.4,11.6-2.4c17.1,0,30.9,14.5,30.9,32.5
		C669.5,142.9,661.6,154.4,650.5,159.6z"/>
	
		<linearGradient id="XMLID_26_" gradientUnits="userSpaceOnUse" x1="5518.7051" y1="270.8558" x2="5518.7051" y2="619.1926" gradientTransform="matrix(-1 0 0 -1 5705.7588 842.0699)">
		<stop  offset="0" style="stop-color:#28BDCA"/>
		<stop  offset="0.5419" style="stop-color:#0FB4D2"/>
		<stop  offset="1" style="stop-color:#E6F5F8"/>
	</linearGradient>
	<path id="XMLID_85_" class="st8" d="M-144.8,265.6c0-18.1,13.9-32.6,31-32.6c4.1,0,8.1,0.9,11.7,2.4c4.3-3.3,9-6.1,14.1-8.1
		c0.6-14.1,11.7-25.2,25.2-25.2h0.1c1.9-38.9,32.5-69.7,69.8-69.7c38.6,0,69.9,32.9,69.9,73.5c0,1,0,2.1-0.1,3.1
		c5.8,1.7,11,4.7,15.4,8.9c7.4-9.7,18.8-16,31.5-16c22.4,0,40.5,19,40.5,42.6c0,1.1-0.1,2.3-0.1,3.4c0.2,0,0.4,0,0.5,0
		c13.1,0,24.6,7.2,31,18.2c4.3-3,9.3-4.6,15-4.6c7.9,0,15,3.5,20,9.1c3.1-2.9,7.3-4.6,12-4.6c3,0,5.9,0.8,8.5,2.2
		c6.2-13.5,19.4-22.8,34.5-22.8c3.6,0,7,0.6,10.3,1.4c0-0.8-0.1-1.5-0.1-2.3c0-22.8,17.6-41.2,39.2-41.2c21.7,0,39.2,18.5,39.2,41.2
		c0,1.4-0.1,2.9-0.2,4.3c10.5,2.3,19.2,9.9,23.2,20.1c1.3-0.1,2.5-0.2,3.8-0.2c2.7,0,5.4,0.3,8,1.1c8.1-13.5,22.2-22.6,38.4-22.6
		c7.2,0,14.1,1.8,20.2,5c4.7-8.7,13.6-14.7,23.9-14.7c15.2,0,27.3,12.9,27.3,28.7c0,15.5-11.7,28.1-26.3,28.7
		c-0.2,26-20.3,47-45.1,47c-11.8,0-22.5-4.7-30.6-12.7c-4.6,2.9-9.9,4.5-15.8,4.5c-12.4,0-22.9-7.5-28-18.5
		c-1.8,0.3-3.7,0.6-5.7,0.6c-9.1,0-17.5-4-23.3-10.3c-4.4,4.2-10.3,6.8-16.8,6.8c-4,0-7.6-1-11-2.8c-6.9,9.8-18.1,16.2-30.7,16.2
		c-15.5,0-28.8-9.6-34.9-23.4c-2.4,1.3-5.2,2-8.2,2c-2.6,0-5.1-0.6-7.4-1.7c-4.4,9.5-13.7,16.1-24.4,16.1c-6.9,0-13.3-2.8-18.1-7.3
		c-6.7,8.3-16.8,13.5-27.8,13.5c-15.2,0-28.2-9.7-33.8-23.6c-16.6,17.8-39.8,28.9-65.4,28.9c-29.4,0-55.6-14.6-72.2-37.3
		c-3.4,31.5-28.7,56-59.7,56c-29.9,0-54.8-23.1-59.4-53.3C-136.7,290.8-144.8,279.1-144.8,265.6z"/>
	<g id="XMLID_82_" class="st4">
		
			<linearGradient id="XMLID_36_" gradientUnits="userSpaceOnUse" x1="5438.0205" y1="-125.1366" x2="5438.0205" y2="255.3397" gradientTransform="matrix(-1 0 0 1 5705.7588 0)">
			<stop  offset="0" style="stop-color:#28BDCA"/>
			<stop  offset="0.5419" style="stop-color:#0FB4D2"/>
			<stop  offset="1" style="stop-color:#E6F5F8"/>
		</linearGradient>
		<path id="XMLID_84_" class="st9" d="M601.6,295.3c0,1.8-0.1,3.6-0.3,5.4l-429.5-10.1l-93,25c-8.7-6.2-16.3-13.8-22.8-22.5
			c-2.1,19.7-12.1,36.9-26.5,48l-4.3,3c-10,6.5-21.7,10.2-34.3,10.2c-32.8,0-59.9-25.2-64.8-58.2c-12.1-5.6-20.9-18.3-20.9-33.1
			c0-19.7,15.2-35.7,33.9-35.7c4.5,0,8.9,1,12.8,2.6c4.7-3.6,9.8-6.6,15.4-8.9c0.7-15.3,12.8-27.5,27.5-27.5h0.1
			c2.1-42.4,35.5-76.1,76.3-76.1c42.2,0,76.4,36,76.4,80.4c0,1.1,0,2.3-0.1,3.4c6.3,1.8,12,5.2,16.8,9.8
			c8.2-10.7,20.5-17.4,34.4-17.4c24.5,0,44.3,20.8,44.3,46.6c0,1.2-0.1,2.5-0.1,3.7c0.2,0,0.4,0,0.5,0c14.2,0,26.9,7.8,33.9,19.8
			c4.7-3.3,10.3-5.1,16.3-5.1c8.6,0,16.3,3.9,21.9,10c3.5-3.2,8.1-5.1,13.1-5.1c3.4,0,6.4,0.9,9.3,2.4c6.8-14.7,21.1-24.9,37.7-24.9
			c3.9,0,7.7,0.6,11.3,1.5c0-0.9-0.1-1.7-0.1-2.5c0-24.9,19.2-44.9,42.7-44.9c23.7,0,42.7,20.1,42.7,44.9c0,1.5-0.1,3.2-0.2,4.7
			c11.5,2.5,20.9,10.9,25.4,22c1.4-0.1,2.7-0.2,4.2-0.2c3,0,6,0.3,8.7,1.2c8.7-14.7,24.3-24.7,42-24.7c8,0,15.4,2,22.1,5.4
			c5.1-9.6,14.9-16.1,26.1-16.1c16.5,0,29.8,14,29.8,31.4C630.3,280.9,617.6,294.6,601.6,295.3z"/>
		
			<linearGradient id="XMLID_51_" gradientUnits="userSpaceOnUse" x1="5163.9863" y1="273.2174" x2="5163.9863" y2="331.4458" gradientTransform="matrix(-1 0 0 1 5705.7588 0)">
			<stop  offset="0" style="stop-color:#28BDCA"/>
			<stop  offset="0.5419" style="stop-color:#0FB4D2"/>
			<stop  offset="1" style="stop-color:#E6F5F8"/>
		</linearGradient>
		<path id="XMLID_83_" class="st10" d="M599.4,310.3c-6.3,21-25,36.3-47.1,36.3c-12.9,0-24.6-5.2-33.4-13.8c-5,3.2-10.9,5-17.3,5
			c-6.4,0-12.4-1.9-17.5-5.2L599.4,310.3z"/>
	</g>
	<polyline id="XMLID_81_" class="st11" points="77,89.6 83.5,79.7 84,80.8 78.3,90.2 97.1,100.9 102.5,92.2 102.8,91.7 104.6,92.8 
		98.7,103.3 76.1,92 76.1,92 	"/>
	<path id="XMLID_80_" class="st12" d="M-15.2,115.1c1.4-1.1,38.9-22.7,38.9-22.7l-10.4,8l-27.9,15.5"/>
	<path id="XMLID_79_" class="st13" d="M-18.2,155.8l88.6-74.3c0,0-59.6,58.3-89.2,36.5"/>
	<polygon id="XMLID_76_" class="st14" points="106.4,97.2 107.3,87.8 87.8,77.9 79.1,81.9 	"/>
	<path id="XMLID_75_" class="st15" d="M4.6,138.1c-0.2-0.5,65.1-54.7,65.1-54.7s10.6,51.2-65.6,55"/>
	<path id="XMLID_74_" class="st12" d="M148.6,263.7l-39.3-156.8L72,82l-1.4-0.9l-5,1.2L23.2,92.8L2.6,105l0.3,0.1
		c0,0-16.2,9.5-18.1,10.8c-1.9,1.3-0.2,1.9-0.2,1.9l-2.5,3.8l-1.6-3.5l-82.4,49l-5.6,5.9L94,603.2l18.2,9l38.3-28.5L148.6,263.7z"/>
	<g id="XMLID_46_" class="st4">
		<path id="XMLID_73_" class="st0" d="M-90.3,189.2c2.2,0.1,21.9-4,21.9-4l111.8,67.2L131,605l-18.8-10.7L33,281.5l-110.5-65.6"/>
		<polyline id="XMLID_72_" class="st0" points="-88.4,186.6 -63.8,180.8 47,249 135.6,601.4 142.8,577.8 56.4,226.3 -43,166.8 
			-94.9,178.2 		"/>
		<path id="XMLID_71_" class="st0" d="M-73.3,227.2c3.1,0.4,101.7,59.9,101.7,59.9l70.7,285.4L20,362.9l-50-44.4"/>
		<polyline id="XMLID_69_" class="st0" points="-95.8,170.1 -23.6,151.7 65.9,206.6 150.8,553.9 151,554.8 144.1,573.5 58.4,222.7 
			-38.7,163.3 -97.6,176.1 		"/>
		<polyline id="XMLID_67_" class="st16" points="15.2,336.7 14,327.7 -35.8,296.5 -29.4,321.5 		"/>
		<polyline id="XMLID_66_" class="st17" points="-41.5,302.4 41.7,349.7 113.6,609.5 		"/>
		<polygon id="XMLID_65_" class="st0" points="1.5,106 54.7,93.1 103.7,122.8 149.4,307.7 149.3,293.7 105.6,119.5 59.4,90.9 
			8.8,102.6 		"/>
		<polygon id="XMLID_64_" class="st0" points="149,288 106.4,118 59.9,89.9 13.2,100.8 18,98.1 63,87 107.2,113.4 148.8,283.3 		"/>
		<polygon id="XMLID_63_" class="st0" points="64.8,85.8 107.8,112.1 148.9,278.6 148.2,270.3 109.5,109.4 66.1,83.6 22.3,94.2 
			20.5,96 		"/>
		<polygon id="XMLID_62_" class="st0" points="148.4,265.3 110.3,108.5 67.7,83.3 70.6,81.2 111,105.6 148.6,261.7 		"/>
		<polyline id="XMLID_60_" class="st0" points="-98.3,167.6 -21.8,148.8 68.6,202.5 149.1,538.7 149.3,497.7 74.1,190.4 -5.5,140.2 
			-96.6,160.9 		"/>
		<polygon id="XMLID_59_" class="st0" points="150,491.9 76,187.4 -5,137.4 -89.9,157.8 -76.1,149.3 5.9,129 81,175.1 150.2,460.5 
					"/>
		<polygon id="XMLID_58_" class="st0" points="-68.9,145.9 7.6,127.6 81,172.2 150.4,453.1 149.1,423.3 85.7,163.4 17.5,121.7 
			-58.1,140.5 		"/>
		<polygon id="XMLID_57_" class="st0" points="149.5,418.7 86.7,161.3 19.5,119.9 -54.5,138.1 -43.5,131.9 27,114.5 89.4,152.1 
			149.5,393.5 		"/>
		<path id="XMLID_56_" class="st0" d="M149.7,389.8L91.5,150.8l-62.6-37.4l-66.2,15.4l9.3-5.1c0,0,62-15.9,62.3-15.3
			c0.3,0.7,58.9,35.8,58.9,35.8l56.1,227.3L149.7,389.8z"/>
		<polyline id="XMLID_50_" class="st0" points="-26.9,121.5 -26.2,121.4 35.6,106.7 94.7,142.4 150,365.5 150,350.7 97.8,137.3 
			42.4,103.2 -20.4,118.4 		"/>
		<polygon id="XMLID_49_" class="st0" points="149.3,342.2 98.7,135.6 43.2,101.5 -15.8,116.4 -11.3,112.9 48.5,98.7 100,129.3 
			150.1,331.3 		"/>
		<path id="XMLID_48_" class="st0" d="M-4.4,110.2l53.3-13.2l52.3,31.5c0,0,48.6,196.9,48.3,196.4c-0.2-0.5-0.5-13.4-0.5-13.4
			l-45.9-187.1L53.7,94.1l-56.1,14.1"/>
	</g>
	
		<linearGradient id="XMLID_52_" gradientUnits="userSpaceOnUse" x1="2053.7068" y1="1460.7953" x2="2534.5334" y2="1460.7953" gradientTransform="matrix(0.4193 0.9078 -0.9078 0.4193 421.2359 -2320.488)">
		<stop  offset="0" style="stop-color:#016FB4"/>
		<stop  offset="1" style="stop-color:#55C4C5"/>
	</linearGradient>
	<polyline id="XMLID_45_" class="st18" points="-90.4,189.5 -65.8,183.7 45,251.9 133.6,604.2 140.8,580.6 54.4,229.1 -45,169.6 
		-96.9,181.1 	"/>
	
		<linearGradient id="XMLID_53_" gradientUnits="userSpaceOnUse" x1="2046.0109" y1="1453.1831" x2="2512.7842" y2="1453.1831" gradientTransform="matrix(0.4193 0.9078 -0.9078 0.4193 421.2359 -2320.488)">
		<stop  offset="0" style="stop-color:#016FB4"/>
		<stop  offset="1" style="stop-color:#55C4C5"/>
	</linearGradient>
	<polyline id="XMLID_44_" class="st19" points="-97.8,173 -25.6,154.6 63.9,209.5 148.8,556.7 149,557.7 142.1,576.3 56.4,225.6 
		-40.7,166.2 -99.6,179 	"/>
	
		<linearGradient id="XMLID_54_" gradientUnits="userSpaceOnUse" x1="2028.6113" y1="1357.1516" x2="2273.7092" y2="1357.1516" gradientTransform="matrix(0.4193 0.9078 -0.9078 0.4193 421.2359 -2320.488)">
		<stop  offset="0" style="stop-color:#016FB4"/>
		<stop  offset="1" style="stop-color:#55C4C5"/>
	</linearGradient>
	<polygon id="XMLID_42_" class="st20" points="-0.5,108.9 52.7,95.9 101.6,125.7 147.4,310.6 147.3,296.6 103.6,122.4 57.4,93.8 
		6.8,105.5 	"/>
	
		<linearGradient id="XMLID_55_" gradientUnits="userSpaceOnUse" x1="2028.2767" y1="1348.7865" x2="2255.6406" y2="1348.7865" gradientTransform="matrix(0.4193 0.9078 -0.9078 0.4193 421.2359 -2320.488)">
		<stop  offset="0" style="stop-color:#016FB4"/>
		<stop  offset="1" style="stop-color:#55C4C5"/>
	</linearGradient>
	<polygon id="XMLID_41_" class="st21" points="147,290.9 104.4,120.9 57.9,92.8 11.2,103.7 16,100.9 61,89.9 105.2,116.3 
		146.8,286.1 	"/>
	
		<linearGradient id="XMLID_61_" gradientUnits="userSpaceOnUse" x1="2035.7683" y1="1321.3488" x2="2235.5271" y2="1321.3488" gradientTransform="matrix(0.4193 0.9078 -0.9078 0.4193 421.2359 -2320.488)">
		<stop  offset="0" style="stop-color:#016FB4"/>
		<stop  offset="1" style="stop-color:#55C4C5"/>
	</linearGradient>
	<polygon id="XMLID_40_" class="st22" points="144.2,270 106,113.2 63.4,88 66.3,85.9 106.7,110.2 144.3,266.4 	"/>
	
		<linearGradient id="XMLID_68_" gradientUnits="userSpaceOnUse" x1="2037.311" y1="1444.567" x2="2483.3389" y2="1444.567" gradientTransform="matrix(0.4193 0.9078 -0.9078 0.4193 421.2359 -2320.488)">
		<stop  offset="0" style="stop-color:#016FB4"/>
		<stop  offset="1" style="stop-color:#55C4C5"/>
	</linearGradient>
	<polyline id="XMLID_39_" class="st23" points="-100.3,170.5 -23.8,151.7 66.6,205.4 147.1,541.6 147.3,500.6 72.1,193.3 
		-7.5,143.1 -98.6,163.8 	"/>
	
		<linearGradient id="XMLID_70_" gradientUnits="userSpaceOnUse" x1="2035.3035" y1="1432.3539" x2="2441.1787" y2="1432.3539" gradientTransform="matrix(0.4193 0.9078 -0.9078 0.4193 421.2359 -2320.488)">
		<stop  offset="0" style="stop-color:#016FB4"/>
		<stop  offset="1" style="stop-color:#55C4C5"/>
	</linearGradient>
	<polygon id="XMLID_38_" class="st24" points="147.9,494.8 74,190.2 -7,140.3 -91.9,160.7 -78.1,152.1 3.9,131.9 79,178 
		148.2,463.4 	"/>
	
		<linearGradient id="XMLID_77_" gradientUnits="userSpaceOnUse" x1="2034.9689" y1="1415.7074" x2="2406.1289" y2="1415.7074" gradientTransform="matrix(0.4193 0.9078 -0.9078 0.4193 421.2359 -2320.488)">
		<stop  offset="0" style="stop-color:#016FB4"/>
		<stop  offset="1" style="stop-color:#55C4C5"/>
	</linearGradient>
	<polygon id="XMLID_37_" class="st25" points="-70.9,148.8 5.6,130.5 79,175.1 148.4,456 147.1,426.2 83.7,166.3 15.5,124.5 
		-60.1,143.4 	"/>
	
		<linearGradient id="XMLID_78_" gradientUnits="userSpaceOnUse" x1="2033.2122" y1="1403.5361" x2="2374.5088" y2="1403.5361" gradientTransform="matrix(0.4193 0.9078 -0.9078 0.4193 421.2359 -2320.488)">
		<stop  offset="0" style="stop-color:#016FB4"/>
		<stop  offset="1" style="stop-color:#55C4C5"/>
	</linearGradient>
	<polygon id="XMLID_33_" class="st26" points="147.5,421.6 84.7,164.2 17.5,122.8 -56.5,140.9 -45.5,134.8 25,117.4 87.3,154.9 
		147.5,396.4 	"/>
	
		<linearGradient id="XMLID_88_" gradientUnits="userSpaceOnUse" x1="2032.2084" y1="1390.3611" x2="2348.4097" y2="1390.3611" gradientTransform="matrix(0.4193 0.9078 -0.9078 0.4193 421.2359 -2320.488)">
		<stop  offset="0" style="stop-color:#016FB4"/>
		<stop  offset="1" style="stop-color:#55C4C5"/>
	</linearGradient>
	<path id="XMLID_25_" class="st27" d="M147.7,392.7L89.5,153.7l-62.6-37.4l-66.2,15.4l9.3-5.1c0,0,62-15.9,62.3-15.3
		c0.3,0.7,58.9,35.8,58.9,35.8l56.1,227.3L147.7,392.7z"/>
	
		<linearGradient id="XMLID_95_" gradientUnits="userSpaceOnUse" x1="2030.619" y1="1380.5739" x2="2326.4094" y2="1380.5739" gradientTransform="matrix(0.4193 0.9078 -0.9078 0.4193 421.2359 -2320.488)">
		<stop  offset="0" style="stop-color:#016FB4"/>
		<stop  offset="1" style="stop-color:#55C4C5"/>
	</linearGradient>
	<polyline id="XMLID_24_" class="st28" points="-28.9,124.4 -28.2,124.2 33.6,109.6 92.7,145.3 148,368.4 148,353.6 95.8,140.2 
		40.4,106 -22.4,121.2 	"/>
	
		<linearGradient id="XMLID_96_" gradientUnits="userSpaceOnUse" x1="2029.4479" y1="1371.7905" x2="2304.9946" y2="1371.7905" gradientTransform="matrix(0.4193 0.9078 -0.9078 0.4193 421.2359 -2320.488)">
		<stop  offset="0" style="stop-color:#016FB4"/>
		<stop  offset="1" style="stop-color:#55C4C5"/>
	</linearGradient>
	<polygon id="XMLID_22_" class="st29" points="147.3,345.1 96.7,138.5 41.2,104.4 -17.8,119.3 -13.3,115.7 46.5,101.6 98,132.1 
		148,334.2 	"/>
	
		<linearGradient id="XMLID_97_" gradientUnits="userSpaceOnUse" x1="2028.9459" y1="1362.9235" x2="2289.4365" y2="1362.9235" gradientTransform="matrix(0.4193 0.9078 -0.9078 0.4193 421.2359 -2320.488)">
		<stop  offset="0" style="stop-color:#016FB4"/>
		<stop  offset="1" style="stop-color:#55C4C5"/>
	</linearGradient>
	<path id="XMLID_17_" class="st30" d="M-6.4,113.1l53.3-13.2l52.3,31.5c0,0,48.6,196.9,48.3,196.4c-0.2-0.5-0.5-13.4-0.5-13.4
		l-45.9-187.1L51.7,96.9l-56.1,14.1"/>
	<path id="XMLID_16_" class="st2" d="M-85,202.6c2.3-0.6,51.7,8.4,70.3-42.6c0,0,30.8-28.5,57-1.1s68-16.9,27.9-77.4l40.4,24.5
		L11.3,313.7l-58.5-18.1"/>
	<polyline id="XMLID_15_" class="st12" points="23.2,92.8 -106.2,166.5 -107.8,172.6 26.1,94.5 	"/>
</g>
</svg>
