<?xml version="1.0" encoding="utf-8"?>
<!-- Generator: Adobe Illustrator 19.0.0, SVG Export Plug-In . SVG Version: 6.00 Build 0)  -->
<svg version="1.1" id="Layer_1" xmlns="http://www.w3.org/2000/svg" xmlns:xlink="http://www.w3.org/1999/xlink" x="0px" y="0px"
	 viewBox="0 0 182 181" style="enable-background:new 0 0 182 181;" xml:space="preserve">
<style type="text/css">
	.st0{fill:#FFFFFF;}
	.st1{clip-path:url(#XMLID_6_);fill:url(#XMLID_10_);}
	.st2{clip-path:url(#XMLID_6_);fill:url(#XMLID_11_);}
	.st3{clip-path:url(#XMLID_6_);fill:url(#XMLID_12_);}
	.st4{clip-path:url(#XMLID_6_);fill:url(#XMLID_13_);}
	.st5{clip-path:url(#XMLID_6_);fill:url(#XMLID_14_);}
	.st6{clip-path:url(#XMLID_6_);}
	.st7{fill:#FEFDF2;}
	.st8{clip-path:url(#XMLID_6_);fill:#FEFDF2;}
	.st9{clip-path:url(#XMLID_6_);fill:none;stroke:#010101;stroke-width:6;stroke-miterlimit:10;}
	.st10{clip-path:url(#XMLID_6_);fill:#F4CB97;}
	.st11{clip-path:url(#XMLID_6_);fill:#0F263C;}
	.st12{clip-path:url(#XMLID_6_);fill:url(#XMLID_15_);fill-opacity:0.21;}
	.st13{clip-path:url(#XMLID_6_);fill:#151C2D;}
	.st14{opacity:7.000000e-002;clip-path:url(#XMLID_6_);}
	.st15{fill:url(#XMLID_16_);}
	.st16{fill:url(#XMLID_17_);}
	.st17{fill:url(#XMLID_21_);}
	.st18{fill:url(#XMLID_22_);}
	.st19{fill:url(#XMLID_23_);}
	.st20{fill:url(#XMLID_24_);}
	.st21{fill:url(#XMLID_25_);}
	.st22{fill:#473A51;}
	.st23{fill:#2C293C;}
	.st24{opacity:0.38;clip-path:url(#XMLID_6_);}
	.st25{fill:url(#XMLID_26_);}
	.st26{fill:url(#XMLID_30_);}
	.st27{clip-path:url(#XMLID_6_);fill:#473A51;}
	.st28{clip-path:url(#XMLID_6_);fill:#CCBFAF;}
	.st29{clip-path:url(#XMLID_6_);fill:#FFFFFF;}
	.st30{clip-path:url(#XMLID_6_);fill:#E73226;}
	.st31{clip-path:url(#XMLID_6_);fill:url(#XMLID_36_);}
	.st32{clip-path:url(#XMLID_6_);fill:#352B3E;}
	.st33{opacity:0.47;clip-path:url(#XMLID_6_);}
	.st34{opacity:0.22;clip-path:url(#XMLID_6_);}
	.st35{opacity:0.32;clip-path:url(#XMLID_6_);fill:url(#XMLID_38_);enable-background:new    ;}
</style>
<circle id="XMLID_47_" class="st0" cx="93.2" cy="94.3" r="82.3"/>
<g id="XMLID_44_">
	<defs>
		<circle id="XMLID_31_" cx="93.2" cy="95.1" r="76.5"/>
	</defs>
	<clipPath id="XMLID_6_">
		<use xlink:href="#XMLID_31_"  style="overflow:visible;"/>
	</clipPath>
	
		<linearGradient id="XMLID_10_" gradientUnits="userSpaceOnUse" x1="144.6219" y1="962.4604" x2="144.6219" y2="638.2767" gradientTransform="matrix(1 0 0 -1 0 842.0699)">
		<stop  offset="0" style="stop-color:#016FB4"/>
		<stop  offset="0.5419" style="stop-color:#0FB4D2"/>
		<stop  offset="1" style="stop-color:#E6F5F8"/>
	</linearGradient>
	<rect id="XMLID_124_" x="-32.3" y="-215.2" class="st1" width="353.8" height="414.2"/>
	
		<linearGradient id="XMLID_11_" gradientUnits="userSpaceOnUse" x1="442.9177" y1="642.2095" x2="442.9177" y2="810.4548" gradientTransform="matrix(-1 0 0 -1 575.2 842.0699)">
		<stop  offset="0" style="stop-color:#28BDCA"/>
		<stop  offset="0.5419" style="stop-color:#0FB4D2"/>
		<stop  offset="1" style="stop-color:#E6F5F8"/>
	</linearGradient>
	<path id="XMLID_123_" class="st2" d="M-26.5,66.9c2.3,14.6,14.9,25.7,30.1,25.7c15.7,0,28.6-11.9,30.3-27.1c8.5,11,21.7,18,36.7,18
		c13,0,24.8-5.4,33.2-14c2.8,6.7,9.5,11.4,17.1,11.4c5.7,0,10.7-2.5,14.2-6.5c2.5,2.2,5.7,3.5,9.2,3.5c5.4,0,10.1-3.2,12.4-7.7
		c1.2,0.5,2.5,0.8,3.8,0.8c1.5,0,2.9-0.3,4.2-1c3,6.7,9.8,11.3,17.7,11.3c6.4,0,12.1-3,15.6-7.8c1.7,0.9,3.6,1.3,5.6,1.3
		c3.3,0,6.2-1.3,8.5-3.3c3,3.1,7.2,5,11.9,5c1,0,2-0.1,2.9-0.3c2.6,5.3,8,8.9,14.2,8.9c2.9,0,5.7-0.8,8-2.2
		c4.1,3.8,9.6,6.1,15.5,6.1c12.6,0,22.8-10.1,22.9-22.7c7.4-0.3,13.4-6.4,13.4-13.9c0-7.7-6.2-13.9-13.9-13.9
		c-5.2,0-9.7,2.9-12.1,7.1c-3.1-1.5-6.6-2.4-10.3-2.4c-8.2,0-15.4,4.4-19.5,10.9c-1.3-0.4-2.7-0.5-4.1-0.5c-0.6,0-1.3,0.1-1.9,0.1
		c-2.1-4.9-6.5-8.6-11.8-9.7c0.1-0.7,0.1-1.4,0.1-2.1c0-11-8.9-19.9-19.9-19.9c-11,0-19.9,8.9-19.9,19.9c0,0.4,0.1,0.7,0.1,1.1
		c-1.7-0.4-3.4-0.7-5.2-0.7c-7.7,0-14.4,4.5-17.5,11c-1.3-0.7-2.8-1.1-4.3-1.1c-2.4,0-4.5,0.9-6.1,2.2c-2.6-2.7-6.1-4.4-10.1-4.4
		c-2.8,0-5.4,0.8-7.6,2.2c-3.3-5.3-9.1-8.8-15.8-8.8c-0.1,0-0.2,0-0.3,0c0-0.5,0.1-1.1,0.1-1.7c0-11.4-9.2-20.6-20.6-20.6
		c-6.5,0-12.2,3-16,7.7c-2.2-2-4.9-3.5-7.8-4.3c0.1-0.5,0.1-1,0.1-1.5c0-19.6-15.9-35.5-35.5-35.5C22-12.2,6.4,2.7,5.5,21.5H5.4
		c-6.9,0-12.5,5.4-12.8,12.2c-2.6,1-5,2.4-7.2,4c-1.8-0.7-3.8-1.2-5.9-1.2c-8.7,0-15.8,7.1-15.8,15.8
		C-36.3,58.8-32.2,64.4-26.5,66.9z"/>
	
		<linearGradient id="XMLID_12_" gradientUnits="userSpaceOnUse" x1="136.5023" y1="628.4233" x2="136.5023" y2="797.4683" gradientTransform="matrix(1 0 0 -1 0 842.0699)">
		<stop  offset="0" style="stop-color:#28BDCA"/>
		<stop  offset="0.5419" style="stop-color:#0FB4D2"/>
		<stop  offset="1" style="stop-color:#E6F5F8"/>
	</linearGradient>
	<path id="XMLID_122_" class="st3" d="M305.8,65.3c0-8.8-7.1-15.8-15.8-15.8c-2.1,0-4.1,0.4-6,1.2c-2.2-1.6-4.6-2.9-7.2-4
		c-0.3-6.8-6-12.2-12.9-12.2h-0.1c-1-18.9-16.6-33.8-35.6-33.8c-19.7,0-35.7,16-35.7,35.7c0,0.5,0,1,0.1,1.5
		c-2.9,0.8-5.6,2.3-7.9,4.3c-3.8-4.7-9.6-7.7-16.1-7.7c-11.4,0-20.7,9.2-20.7,20.7c0,0.5,0.1,1.1,0.1,1.7c-0.1,0-0.2,0-0.3,0
		c-6.7,0-12.6,3.5-15.8,8.8c-2.2-1.4-4.8-2.2-7.6-2.2c-4,0-7.6,1.7-10.2,4.4c-1.6-1.4-3.7-2.2-6.1-2.2c-1.5,0-3,0.4-4.3,1.1
		c-3.2-6.6-9.9-11.1-17.6-11.1c-1.8,0-3.6,0.3-5.2,0.7c0-0.4,0.1-0.7,0.1-1.1c0-11.1-9-20-20-20c-11.1,0-20,9-20,20
		c0,0.7,0.1,1.4,0.1,2.1c-5.3,1.1-9.8,4.8-11.9,9.8c-0.6-0.1-1.3-0.1-1.9-0.1c-1.4,0-2.8,0.2-4.1,0.5c-4.1-6.6-11.3-11-19.6-11
		c-3.7,0-7.2,0.9-10.3,2.4c-2.4-4.2-6.9-7.2-12.2-7.2c-7.7,0-13.9,6.2-13.9,13.9c0,7.5,6,13.6,13.4,13.9c0.1,12.6,10.4,22.8,23,22.8
		c6,0,11.5-2.3,15.6-6.1c2.4,1.4,5.1,2.2,8.1,2.2c6.3,0,11.7-3.6,14.3-9c0.9,0.2,1.9,0.3,2.9,0.3c4.6,0,8.9-1.9,11.9-5
		c2.2,2,5.2,3.3,8.5,3.3c2,0,3.9-0.5,5.6-1.3c3.5,4.8,9.2,7.9,15.7,7.9c7.9,0,14.7-4.6,17.8-11.4c1.2,0.6,2.7,1,4.2,1
		c1.3,0,2.6-0.3,3.8-0.8c2.2,4.6,7,7.8,12.4,7.8c3.5,0,6.8-1.3,9.2-3.5c3.4,4,8.5,6.6,14.2,6.6c7.7,0,14.4-4.7,17.3-11.4
		c8.5,8.7,20.3,14,33.4,14c15,0,28.4-7.1,36.9-18.1c1.7,15.3,14.6,27.2,30.4,27.2c15.3,0,27.9-11.2,30.3-25.9
		C301.7,77.5,305.8,71.9,305.8,65.3z"/>
	
		<linearGradient id="XMLID_13_" gradientUnits="userSpaceOnUse" x1="130.8132" y1="573.0299" x2="130.8133" y2="757.6721" gradientTransform="matrix(1 0 0 -1 0 842.0699)">
		<stop  offset="0" style="stop-color:#28BDCA"/>
		<stop  offset="0.5419" style="stop-color:#0FB4D2"/>
		<stop  offset="1" style="stop-color:#E6F5F8"/>
	</linearGradient>
	<path id="XMLID_121_" class="st4" d="M315.8,107c0-9.6-7.7-17.3-17.3-17.3c-2.3,0-4.5,0.5-6.5,1.3c-2.4-1.8-5-3.2-7.9-4.3
		c-0.4-7.4-6.5-13.4-14-13.4H270c-1.1-20.6-18.1-36.9-38.9-36.9c-21.5,0-39,17.5-39,39c0,0.5,0,1.1,0.1,1.7
		c-3.2,0.9-6.1,2.5-8.5,4.8c-4.2-5.2-10.5-8.4-17.6-8.4c-12.5,0-22.6,10.1-22.6,22.6c0,0.6,0.1,1.2,0.1,1.8c-0.1,0-0.2,0-0.3,0
		c-7.3,0-13.7,3.8-17.3,9.6c-2.4-1.6-5.2-2.5-8.3-2.5c-4.4,0-8.3,1.9-11.2,4.9c-1.8-1.5-4.1-2.5-6.7-2.5c-1.7,0-3.3,0.4-4.8,1.2
		c-3.5-7.2-10.8-12.1-19.2-12.1c-2,0-4,0.3-5.8,0.7c0-0.4,0.1-0.8,0.1-1.2c0-12.1-9.8-21.8-21.8-21.8c-12.1,0-21.8,9.8-21.8,21.8
		c0,0.7,0.1,1.5,0.1,2.3c-5.9,1.2-10.7,5.3-13,10.7c-0.7-0.1-1.4-0.1-2.1-0.1c-1.5,0-3,0.2-4.4,0.6c-4.4-7.2-12.4-12-21.4-12
		c-4.1,0-7.9,1-11.3,2.6c-2.6-4.6-7.6-7.8-13.3-7.8c-8.4,0-15.2,6.8-15.2,15.2c0,8.2,6.5,14.9,14.6,15.2
		c0.1,13.8,11.3,24.9,25.2,24.9c6.6,0,12.6-2.5,17-6.7c2.6,1.5,5.6,2.4,8.8,2.4c6.8,0,12.8-4,15.6-9.8c1,0.2,2,0.3,3.2,0.3
		c5.1,0,9.7-2.1,13-5.5c2.5,2.2,5.8,3.6,9.3,3.6c2.2,0,4.3-0.5,6.1-1.4c3.8,5.2,10.1,8.5,17.1,8.5c8.6,0,16.1-5.1,19.4-12.4
		c1.3,0.7,2.9,1.1,4.6,1.1c1.4,0,2.9-0.3,4.2-0.9c2.5,5,7.6,8.5,13.6,8.5c3.8,0,7.4-1.4,10.1-3.8c3.7,4.4,9.3,7.2,15.5,7.2
		c8.4,0,15.7-5.2,18.8-12.5c9.2,9.5,22.2,15.4,36.5,15.4c16.4,0,30.9-7.7,40.3-19.8c1.9,16.7,16,29.7,33.2,29.7
		c16.7,0,30.6-12.2,33.1-28.3C311.3,120.3,315.8,114.2,315.8,107z"/>
	
		<linearGradient id="XMLID_14_" gradientUnits="userSpaceOnUse" x1="137.7309" y1="313.2076" x2="137.7309" y2="164.3607" gradientTransform="matrix(1 0 0 1 0 -5.999756e-002)">
		<stop  offset="0" style="stop-color:#28BDCA"/>
		<stop  offset="1" style="stop-color:#00ADD8"/>
	</linearGradient>
	<rect id="XMLID_120_" x="-18.8" y="144.6" class="st5" width="313.1" height="191.1"/>
	<g id="XMLID_197_" class="st6">
		<g id="XMLID_200_">
			<path id="XMLID_119_" class="st7" d="M212.9-21.2c0,0,4.1,2,2.6,5.2c0,0,3.8-4.7,5-3.2c0,0-1.7-2.2-3.6,0.1
				C216.8-19.1,214.1-21.9,212.9-21.2z"/>
			<path id="XMLID_118_" class="st7" d="M198.2-23.4c-0.9-0.3-2.4-0.4-3,1.5c0,0-1.3-0.8-3.6-0.4c0,0,2.9,0.7,4,2
				C195.8-21.9,196.7-23.2,198.2-23.4z"/>
			<path id="XMLID_117_" class="st7" d="M198.9-31.4c0,0,6-0.1,5.3,7.3c0,0,3-7.5,6.6-6.7c0,0-3.6-1.3-6,1.7
				C204.9-29.1,204.5-32.2,198.9-31.4z"/>
		</g>
		<path id="XMLID_116_" class="st7" d="M177.5-0.6c0,0-4.6,0-4.6,3.6c0,0-1.3-5.9-3.1-5c0,0,2.5-1.2,3.3,1.7
			C173-0.4,176.8-1.7,177.5-0.6z"/>
	</g>
	<path id="XMLID_113_" class="st8" d="M236.7,15.4c1.5-0.2,4.1,0,4.6,3.6c0,0,2.4-1,6.1,0.3c0,0-5,0.3-7.3,2.2
		C240.2,18.7,239.3,16.3,236.7,15.4z"/>
	<path id="XMLID_108_" class="st8" d="M92.7,8.2c0,0-3.7,2.9-1.5,5.8c0,0-4.9-4-5.8-2.1c0,0,1.3-2.6,3.7-0.7
		C89.1,11.2,91.3,7.8,92.7,8.2z"/>
	<rect id="XMLID_107_" x="-20.1" y="-197.3" class="st9" width="318" height="447.6"/>
	<path id="XMLID_106_" class="st8" d="M2.3,168.7c5.1-4,15.4-7.4,21.3-4.4c4.1,2.1,7.7,6.7,11.5,9.7c3.9,3.1,8,6,12.1,8.4
		c9.9,5.9,20.9,9.9,32.1,9.5c7.7-0.3,15.3-2.9,22-7.5c14.1-9.7,29.5-19.7,45.8-22.4c14.9-2.5,26.9,7.3,41.6,7.9
		c28.6,1.2,59.7-6.5,87.1,7c10.7,5.3,19.3,14.9,21.4,29.1c8.5,57.1,10.3-60,10.3-60l-332.3-2.5l-2.1,36"/>
	<path id="XMLID_103_" class="st10" d="M2.2,159.3c4.4-1.8,8.9-3.3,13.5-3.5c5.9-0.4,10.4,2.1,15.7,5.3c3.7,2.2,7.4,4.3,11.2,6.1
		c10.3,4.9,21.1,8.2,32.1,8.7c9,0.4,18.1-1.2,26.6-5.3c15.6-7.6,32-15,48.8-16.1c5.8-0.4,12-0.2,17.6,1.8c9.6,3.4,19.2,4.3,29.1,4.1
		c19.6-0.3,39.2-1.6,58.7,0.6c12.6,1.4,31.1,3.6,39.2,18.2c1.1,2,2,4.3,2.5,6.7c8.5,40.4,10.3-42.5,10.3-42.5l-332.3-1.8l-2.1,25.4"
		/>
	<path id="XMLID_102_" class="st11" d="M-12.3,134.3l37.9-15.1l6.1-16.6L70,100c0,0,7,6.1,11.3-1.8s4.3-7.9,4.3-7.9l2.6-3.5
		c0,0,5.2,4.3,7.9,5.2c2.6,0.9,13.1,0.9,19.2,0.9s36.6,0,36.6,0c4.3,0,0.9-3.5,4.3,0c3.5,3.5-2.6-2.6,3.5,3.5
		c6.1,6.1,0.9,6.1,6.1,6.1s20.1,0,20.1,0l22.7,6.1c47.1,19.2,47.1,19.2,47.1,19.2h13.1l12.3,5.3l2.6,10.5H-5.9"/>
	
		<linearGradient id="XMLID_15_" gradientUnits="userSpaceOnUse" x1="-12.3207" y1="727.1401" x2="283.6693" y2="727.1401" gradientTransform="matrix(1 0 0 -1 0 842.09)">
		<stop  offset="0" style="stop-color:#2690CA"/>
		<stop  offset="0.5419" style="stop-color:#0FB4D2"/>
		<stop  offset="1" style="stop-color:#E6F5F8"/>
	</linearGradient>
	<path id="XMLID_101_" class="st12" d="M-12.3,131.4l37.8-16.8l6.1-14.4l38.4-2.3c0,0,7,5.3,11.3-1.5s4.3-6.8,4.3-6.8l2.6-3
		c0,0,5.2,3.7,7.9,4.5c2.6,0.7,13.1,0.7,19.2,0.7s36.6,0,36.6,0c4.3,0,0.9-3,4.3,0s-2.6-2.3,3.5,3c6.1,5.3,0.9,5.3,6.1,5.3
		s20.1,0,20.1,0l22.7,5.3c47.1,16.6,47.1,16.6,47.1,16.6h13.1l12.3,4.6l2.6,9L-7,143.2"/>
	<path id="XMLID_100_" class="st13" d="M233.8,120.6c-16.9-0.6-35.7,4.2-35.7,4.2l-37.9,1.9l-8.3-5.8l-22.8-1.3l-12.3-2.2
		c0,0-1.5-3.6-2.5-3.6c-0.9,0-9.9,6.1-11.4,5.8c-1.5-0.3-30.5-3.6-30.5-3.6l-9.6-11.3h-1.5c0,0-5.9-0.6-7.1,1s-7.4,6.5-7.4,6.5
		L28,124.5l-8,11.6l-26.8,1v9.1l293.6-1.9l-6-9.8l-13.1-6l-12.4,0.4L233.8,120.6z"/>
	<g id="XMLID_169_" class="st14">
		
			<linearGradient id="XMLID_16_" gradientUnits="userSpaceOnUse" x1="147.7972" y1="718.0229" x2="148.4847" y2="730.934" gradientTransform="matrix(1 0 0 -1 0 842.09)">
			<stop  offset="0" style="stop-color:#2690CA"/>
			<stop  offset="0.5419" style="stop-color:#0FB4D2"/>
			<stop  offset="1" style="stop-color:#E6F5F8"/>
		</linearGradient>
		<polygon id="XMLID_99_" class="st15" points="280.8,133 277.8,131.8 21.1,120.7 13.9,123.6 281.2,134.5 		"/>
		
			<linearGradient id="XMLID_17_" gradientUnits="userSpaceOnUse" x1="134.2489" y1="718.7444" x2="134.9365" y2="731.6555" gradientTransform="matrix(1 0 0 -1 0 842.09)">
			<stop  offset="0" style="stop-color:#0572BA"/>
			<stop  offset="1" style="stop-color:#E6F5F8"/>
		</linearGradient>
		<path id="XMLID_98_" class="st16" d="M232.6,118.4c-35.7-2.3-153.4-9.9-202.4-13l-1.2,3.3c62.1,3.8,185.7,11.4,211.4,12.9
			C238.2,120.7,235.6,119.7,232.6,118.4z"/>
		
			<linearGradient id="XMLID_21_" gradientUnits="userSpaceOnUse" x1="133.8696" y1="718.7646" x2="134.5572" y2="731.6757" gradientTransform="matrix(1 0 0 -1 0 842.09)">
			<stop  offset="0" style="stop-color:#0572BA"/>
			<stop  offset="1" style="stop-color:#E6F5F8"/>
		</linearGradient>
		<path id="XMLID_97_" class="st17" d="M218.6,112.7c-2.4-1-4.8-2-7.4-3l-131.8-9.3c-4.3,4.3-9.7-0.5-9.7-0.5l-18.6,1.3l-0.2,0.1
			L218.6,112.7z"/>
		
			<linearGradient id="XMLID_22_" gradientUnits="userSpaceOnUse" x1="140.4496" y1="718.4142" x2="141.1373" y2="731.3253" gradientTransform="matrix(1 0 0 -1 0 842.09)">
			<stop  offset="0" style="stop-color:#0572BA"/>
			<stop  offset="1" style="stop-color:#E6F5F8"/>
		</linearGradient>
		<path id="XMLID_96_" class="st18" d="M125.8,92.9l32.4,2.2c-0.5-0.5-0.9-0.9-1.1-1.1c0,0-0.2-0.2-0.5-0.5
			c-0.1-0.1-0.2-0.2-0.3-0.3l-4.1-0.3c-0.2,0-0.3,0-0.5,0C151.7,92.9,136.9,92.9,125.8,92.9z"/>
		
			<linearGradient id="XMLID_23_" gradientUnits="userSpaceOnUse" x1="87.66" y1="721.2255" x2="88.3475" y2="734.1365" gradientTransform="matrix(1 0 0 -1 0 842.09)">
			<stop  offset="0" style="stop-color:#0572BA"/>
			<stop  offset="1" style="stop-color:#E6F5F8"/>
		</linearGradient>
		<path id="XMLID_95_" class="st19" d="M93.2,90.6c-1.1-0.7-2.3-1.5-3.2-2.3l-3-0.2l-1.6,2.1l1.2-0.1L93.2,90.6z"/>
		
			<linearGradient id="XMLID_24_" gradientUnits="userSpaceOnUse" x1="140.6131" y1="718.4055" x2="141.3006" y2="731.3166" gradientTransform="matrix(1 0 0 -1 0 842.09)">
			<stop  offset="0" style="stop-color:#0572BA"/>
			<stop  offset="1" style="stop-color:#E6F5F8"/>
		</linearGradient>
		<path id="XMLID_94_" class="st20" d="M251.2,126L27,114l-1,2.6l229.2,11.1C255,127.6,254.2,127.3,251.2,126z"/>
		
			<linearGradient id="XMLID_25_" gradientUnits="userSpaceOnUse" x1="121.243" y1="719.4371" x2="121.9306" y2="732.348" gradientTransform="matrix(1 0 0 -1 0 842.09)">
			<stop  offset="0" style="stop-color:#0572BA"/>
			<stop  offset="1" style="stop-color:#E6F5F8"/>
		</linearGradient>
		<path id="XMLID_93_" class="st21" d="M161.9,99.2l-78.8-4.9c-0.3,0.5-0.5,1-0.9,1.6l80.7,6C162.8,101.5,162.8,100.7,161.9,99.2z"
			/>
	</g>
	<g id="XMLID_164_" class="st6">
		<path id="XMLID_92_" class="st22" d="M35.2,138.6c2.5-1.7,4-3,4-3s3.4-3,4.3-3c1,0-5.2-0.4,4-3c9.2-2.6,21.6,11.9,21.6,11.9h7.7
			c0,0,8.3-2.1,13.6,0c5.2,2.1,19.4,3,19.4,3h12.6c12-1.3,14.8-2.1,14.8-2.1l2.8-2.1l4.6,1.9l-0.9-0.7c0,0-3.3-3.3-11.2-8.5
			c0,0-4-1.3-15.1-1.3s-15.1-1.3-17-1.3c-1.9,0-14.4,16.3-31.4-10.5c-17-26.8-12.4,0-24.2,0.6l-5.2,9.8c0,0-16.3,8.5-25.5,10.5
			l3.7,6.2l1.9-2C19.8,145,32.8,140.3,35.2,138.6z"/>
		<path id="XMLID_91_" class="st23" d="M148.3,145.4l-3.7-3.2l-4.6-1.9l-2.8,2.1c0,0-2.8,0.9-14.8,2.1h-12.6c0,0-14.2-0.9-19.4-3
			s-13.6,0-13.6,0h-7.7c0,0-12.3-14.4-21.6-11.9c-9.2,2.5-3.1,3-4,3c-0.9,0-4.3,3-4.3,3s-1.5,1.3-4,3c-2.5,1.7-15.4,6.4-15.4,6.4
			l-1.9,2l0.2,0.3c0,0,0,0,2.6,0c0.7,0,2.7,0,5.4,0c1.1-0.2,2-0.5,2.6-0.6c2.8-0.9,11.4,0,11.4,0s16,0,22.8,0c3.4,0,6,1.7,7.9,3.5
			l16,4.4L148.3,145.4z"/>
	</g>
	<g id="XMLID_161_" class="st24">
		
			<linearGradient id="XMLID_26_" gradientUnits="userSpaceOnUse" x1="25.1788" y1="724.9767" x2="283.1885" y2="724.9767" gradientTransform="matrix(1 0 0 -1 0 842.09)">
			<stop  offset="0" style="stop-color:#240E30"/>
			<stop  offset="0.5419" style="stop-color:#0FB4D2"/>
			<stop  offset="1" style="stop-color:#E6F5F8"/>
		</linearGradient>
		<path id="XMLID_88_" class="st25" d="M53.7,111.7c1.2-1.6,7.1-1,7.1-1h1.5l1.1,1.3c41.9-7.4,106.7-12.6,133.4,17.8
			c0.3,0.3,0.5,0.6,0.7,0.9c1.1-0.3,19.3-4.8,35.7-4.2l21.5,8.2l12.4-0.4l13.1,6l0.8,1.3l2.1-0.1l-2.6-9l-12.3-4.6h-13.1
			c0,0,0,0-47.1-16.6l-22.7-5.3c0,0-14.9,0-20.1,0c-5.2,0,0,0-6.1-5.3c-1.2-1-1.9-1.7-2.3-2l0,0l0,0l0,0l0,0l0,0
			c-0.1-0.1-0.1-0.1-0.2-0.2l-0.1-0.1c0,0,0,0-0.1-0.1s-0.1-0.1-0.1-0.1l0,0l0,0l-0.1-0.1l0,0c-0.2-0.2-0.4-0.3-0.6-0.5
			c-3.5-3,0,0-4.3,0c0,0-30.6,0-36.6,0c-6.1,0-16.6,0-19.2-0.7c-2.6-0.7-7.9-4.5-7.9-4.5l-2.6,3c0,0,0,0-4.3,6.8
			c-4.3,6.8-11.3,1.5-11.3,1.5l-38.4,2.3l-6.1,14.4c0,0,10.2-2.9,25.9-6.1C52,113.3,53.2,112.3,53.7,111.7z"/>
		
			<linearGradient id="XMLID_30_" gradientUnits="userSpaceOnUse" x1="197.5592" y1="707.0057" x2="281.0518" y2="707.0057" gradientTransform="matrix(1 0 0 -1 0 842.09)">
			<stop  offset="0" style="stop-color:#240E30"/>
			<stop  offset="0.5419" style="stop-color:#0FB4D2"/>
			<stop  offset="1" style="stop-color:#E6F5F8"/>
		</linearGradient>
		<path id="XMLID_85_" class="st26" d="M267.2,134.3l-12.4,0.4l-21.5-8.2c-16.4-0.6-34.6,3.9-35.7,4.2c4.2,4.9,6.1,9.2,6.3,12.9
			l77.2-2l-0.8-1.3L267.2,134.3z"/>
	</g>
	<ellipse id="XMLID_81_" class="st27" cx="92.8" cy="134.6" rx="15.3" ry="4.2"/>
	<rect id="XMLID_79_" x="77.5" y="126.2" class="st27" width="30.3" height="9.2"/>
	<rect id="XMLID_78_" x="85.7" y="72.1" class="st28" width="13.8" height="3.8"/>
	<path id="XMLID_77_" class="st29" d="M81,126.4c0-0.7,4.7-51.8,4.7-51.8l13.8-0.3l5.2,51.3"/>
	<polyline id="XMLID_76_" class="st30" points="84.7,84.9 100.6,84.7 101.5,94 83.8,94 	"/>
	<polyline id="XMLID_69_" class="st30" points="83.4,99.9 102,99.7 103,108.9 82.5,109 	"/>
	<path id="XMLID_51_" class="st30" d="M99.5,73h-14c-0.6,0-1.2-0.5-1.2-1.2l0,0c0-0.6,0.5-1.2,1.2-1.2h14c0.6,0,1.2,0.5,1.2,1.2l0,0
		C100.7,72.5,100.1,73,99.5,73z"/>
	
		<linearGradient id="XMLID_36_" gradientUnits="userSpaceOnUse" x1="87.2935" y1="776.6321" x2="97.7635" y2="776.6321" gradientTransform="matrix(1 0 0 -1 0 842.09)">
		<stop  offset="0" style="stop-color:#28BDCA"/>
		<stop  offset="1" style="stop-color:#00ADD8"/>
	</linearGradient>
	<rect id="XMLID_50_" x="87.3" y="60.4" class="st31" width="10.5" height="10.1"/>
	<path id="XMLID_49_" class="st30" d="M99.5,61.1h-14c-0.6,0-1.2-0.5-1.2-1.2l0,0c0-0.6,0.5-1.2,1.2-1.2h14c0.6,0,1.2,0.5,1.2,1.2
		l0,0C100.7,60.6,100.1,61.1,99.5,61.1z"/>
	<path id="XMLID_48_" class="st30" d="M97.5,59.2L97.5,59.2c0-2.8-2.2-5.1-5-5.1s-5,2.2-5,5c0,0,0,0,0,0.1H97.5z"/>
	<ellipse id="XMLID_45_" class="st32" cx="92.8" cy="126.4" rx="15.3" ry="4.2"/>
	<ellipse id="XMLID_41_" class="st29" cx="92.9" cy="124.4" rx="12.1" ry="3.2"/>
	<g id="XMLID_143_" class="st33">
		<circle id="XMLID_37_" class="st7" cx="90.9" cy="63.9" r="1.8"/>
		<circle id="XMLID_35_" class="st7" cx="93.4" cy="68" r="0.7"/>
	</g>
	<g id="XMLID_129_" class="st34">
		<g id="XMLID_133_">
			<path id="XMLID_34_" class="st23" d="M108,127c0.1-0.2,0.2-0.4,0.2-0.6c0-1-1.3-1.9-3.4-2.7l-0.1-0.1l-3.8-37.4l-0.2-1.5
				l-1.1-10.4h-0.1V73c0.6,0,1.2-0.6,1.2-1.2c0-0.7-0.6-1.2-1.2-1.2h-8.8c-1.5,0.9,0.2,2.2,0.2,2.2c13.4,29.7-3.4,54.5-3.4,54.5
				l-1.9,3.3c0,0-1.1,5.3,5.2,6.5l-0.1,1.8c0.6,0,1.3,0.1,2,0.1c7.5-0.1,13.8-1.5,15.1-3.5h0.1v-0.2c0.1-0.2,0.2-0.4,0.2-0.6
				s-0.1-0.4-0.2-0.6V127L108,127z"/>
			<path id="XMLID_33_" class="st23" d="M93.1,61.1l4.8,0.3v-0.3h1.7c0.6,0,1.2-0.5,1.2-1.2s-0.6-1.2-1.2-1.2h-2
				c-0.2-2.6-2.4-4.6-5-4.6c-0.2,0-0.4,0-0.6,0.1C99.1,58.5,93.1,61.1,93.1,61.1z"/>
		</g>
	</g>
	
		<linearGradient id="XMLID_38_" gradientUnits="userSpaceOnUse" x1="135.252" y1="549.3878" x2="135.252" y2="637.3397" gradientTransform="matrix(1 0 0 -1 0 842.0699)">
		<stop  offset="0" style="stop-color:#28BDCA"/>
		<stop  offset="0.5419" style="stop-color:#0FB4D2"/>
		<stop  offset="1" style="stop-color:#E6F5F8"/>
	</linearGradient>
	<path id="XMLID_32_" class="st35" d="M-32.7,288.5c0,0-16.4-65.6,144.4-34.4s183.8-42.5,46-53.7s-201.9-20.4-186.3-47.3h332.3
		v134.9"/>
</g>
</svg>
