<?xml version="1.0" encoding="utf-8"?>
<!-- Generator: Adobe Illustrator 19.0.0, SVG Export Plug-In . SVG Version: 6.00 Build 0)  -->
<svg version="1.1" id="Layer_1" xmlns="http://www.w3.org/2000/svg" xmlns:xlink="http://www.w3.org/1999/xlink" x="0px" y="0px"
	 viewBox="0 0 182 181" style="enable-background:new 0 0 182 181;" xml:space="preserve">
<style type="text/css">
	.st0{fill:#FFFFFF;}
	.st1{clip-path:url(#XMLID_6_);fill:url(#XMLID_10_);}
	.st2{clip-path:url(#XMLID_6_);fill:url(#XMLID_11_);}
	.st3{clip-path:url(#XMLID_6_);fill:url(#XMLID_12_);}
	.st4{clip-path:url(#XMLID_6_);}
	.st5{fill:url(#XMLID_13_);}
	.st6{fill:url(#XMLID_14_);}
	.st7{opacity:0.48;fill:url(#XMLID_15_);}
	.st8{opacity:0.48;fill:url(#XMLID_16_);}
	.st9{clip-path:url(#XMLID_6_);fill:#302822;}
	.st10{clip-path:url(#XMLID_6_);fill:#FFFFFF;}
	.st11{clip-path:url(#XMLID_6_);fill:url(#XMLID_17_);}
	.st12{fill:#ACACAC;}
	.st13{fill:#D2D3D3;}
	.st14{fill:#434244;}
	.st15{fill:#B02226;}
	.st16{fill:#BBE4E9;}
	.st17{fill:#554B42;}
	.st18{fill:#121010;}
	.st19{fill:#565655;}
	.st20{fill:#626363;}
	.st21{fill:#6D6D6C;}
	.st22{fill:#272829;}
	.st23{opacity:0.76;fill:url(#XMLID_21_);}
	.st24{fill:#3A3E3E;}
	.st25{fill:#8D8B7A;}
	.st26{fill:#38302A;}
	.st27{fill:#939598;}
	.st28{fill:#BC3B36;}
	.st29{fill:#169F49;}
	.st30{fill:#6D6757;}
	.st31{fill:#F5F6F6;}
	.st32{fill:#2E2C2E;}
	.st33{fill:#515152;}
	.st34{fill:#3C352D;}
	.st35{fill:#BDBEC0;}
	.st36{fill:#BDBEBF;}
	.st37{fill:#343332;}
	.st38{fill:#635C63;}
	.st39{fill:#2A2627;}
	.st40{fill:url(#XMLID_22_);}
	.st41{fill:#433D3D;}
	.st42{fill:#010101;}
	.st43{clip-path:url(#XMLID_6_);fill:url(#XMLID_23_);}
	.st44{fill:#121211;}
	.st45{fill:#C05B53;}
	.st46{opacity:0.14;clip-path:url(#XMLID_6_);fill:#BBE4E9;}
	.st47{opacity:0.26;clip-path:url(#XMLID_6_);fill:url(#XMLID_24_);}
	.st48{opacity:0.3;fill:url(#XMLID_25_);}
	.st49{opacity:0.21;fill:url(#XMLID_26_);}
	.st50{fill:#EE1F33;}
	.st51{fill:none;stroke:#AB9A81;stroke-miterlimit:10;}
	.st52{fill:#CFCFCF;}
	.st53{opacity:0.3;fill:#010101;}
	.st54{fill:#333333;}
	.st55{fill:#5E5E5E;}
	.st56{fill:#4E4E4E;}
	.st57{fill:#1A1A1A;}
	.st58{fill:#292929;}
</style>
<circle id="XMLID_47_" class="st0" cx="93.2" cy="94.3" r="82.3"/>
<g id="XMLID_151_">
	<defs>
		<circle id="XMLID_153_" cx="93.2" cy="94.3" r="76.3"/>
	</defs>
	<clipPath id="XMLID_6_">
		<use xlink:href="#XMLID_153_"  style="overflow:visible;"/>
	</clipPath>
	
		<linearGradient id="XMLID_10_" gradientUnits="userSpaceOnUse" x1="3946.8765" y1="807.5231" x2="3946.8767" y2="491.0543" gradientTransform="matrix(-1.4214 1.097818e-002 -4.382456e-003 -0.5674 5681.7412 427.5953)">
		<stop  offset="0" style="stop-color:#016FB4"/>
		<stop  offset="1" style="stop-color:#55C4C5"/>
	</linearGradient>
	<polygon id="XMLID_671_" class="st1" points="259.3,-41.2 -124.2,-38.1 -119.3,191.1 -33.3,181.5 63.3,175 260.3,175 	"/>
	
		<linearGradient id="XMLID_11_" gradientUnits="userSpaceOnUse" x1="-5002.2383" y1="609.3158" x2="-5002.2383" y2="784.1265" gradientTransform="matrix(1 0 0 -1 5130.5586 842.0699)">
		<stop  offset="0" style="stop-color:#28BDCA"/>
		<stop  offset="0.5419" style="stop-color:#0FB4D2"/>
		<stop  offset="1" style="stop-color:#E6F5F8"/>
	</linearGradient>
	<path id="XMLID_670_" class="st2" d="M285.3,94.6c-2.3,15.2-14.7,26.8-29.8,26.8c-15.5,0-28.2-12.3-29.9-28.1
		c-8.4,11.4-21.5,18.7-36.3,18.7c-12.9,0-24.5-5.6-32.8-14.5c-2.8,6.9-9.3,11.8-16.9,11.8c-5.6,0-10.6-2.6-14-6.8
		c-2.4,2.3-5.6,3.7-9.1,3.7c-5.4,0-10-3.3-12.2-8c-1.2,0.6-2.4,0.8-3.7,0.8c-1.5,0-2.9-0.3-4.1-1c-3,6.9-9.7,11.8-17.5,11.8
		c-6.3,0-11.9-3.2-15.4-8.1c-1.7,0.9-3.5,1.4-5.5,1.4c-3.2,0-6.2-1.3-8.4-3.4c-3,3.2-7.1,5.2-11.7,5.2c-1,0-2-0.1-2.9-0.3
		c-2.5,5.5-7.9,9.3-14,9.3c-2.9,0-5.6-0.8-7.9-2.3c-4.1,3.9-9.4,6.3-15.4,6.3c-12.5,0-22.5-10.5-22.6-23.6
		c-7.3-0.3-13.2-6.7-13.2-14.4c0-8,6.1-14.4,13.7-14.4c5.2,0,9.6,3,12,7.4c3.1-1.6,6.5-2.5,10.1-2.5c8.1,0,15.3,4.6,19.3,11.3
		c1.3-0.4,2.6-0.6,4-0.6c0.6,0,1.3,0.1,1.9,0.1c2.1-5.1,6.4-8.9,11.7-10.1c-0.1-0.7-0.1-1.4-0.1-2.2c0-11.4,8.8-20.6,19.6-20.6
		c10.8,0,19.6,9.2,19.6,20.6c0,0.4-0.1,0.8-0.1,1.2c1.6-0.4,3.4-0.7,5.2-0.7c7.6,0,14.2,4.7,17.3,11.4c1.3-0.7,2.7-1.1,4.3-1.1
		c2.3,0,4.4,0.9,6,2.3c2.5-2.8,6.1-4.6,10-4.6c2.8,0,5.3,0.8,7.5,2.3c3.2-5.5,9-9.1,15.6-9.1c0.1,0,0.2,0,0.3,0
		c0-0.6-0.1-1.2-0.1-1.7c0-11.8,9.1-21.4,20.3-21.4c6.4,0,12.1,3.1,15.8,8c2.2-2.1,4.8-3.7,7.7-4.5c-0.1-0.5-0.1-1.1-0.1-1.6
		c0-20.4,15.7-36.9,35.1-36.9c18.7,0,34.1,15.5,35.1,35h0.1c6.8,0,12.4,5.6,12.7,12.7c2.5,1.1,4.9,2.4,7.1,4.1
		c1.8-0.8,3.8-1.2,5.9-1.2c8.6,0,15.6,7.3,15.6,16.4C294.9,86.2,290.9,92,285.3,94.6z"/>
	
		<linearGradient id="XMLID_12_" gradientUnits="userSpaceOnUse" x1="5685.6045" y1="568.0159" x2="5685.6045" y2="743.6578" gradientTransform="matrix(-1 0 0 -1 5705.7588 842.0699)">
		<stop  offset="0" style="stop-color:#28BDCA"/>
		<stop  offset="0.5419" style="stop-color:#0FB4D2"/>
		<stop  offset="1" style="stop-color:#E6F5F8"/>
	</linearGradient>
	<path id="XMLID_669_" class="st3" d="M-147.2,119.9c0-9.1,7-16.4,15.6-16.4c2.1,0,4.1,0.4,5.9,1.2c2.2-1.7,4.5-3.1,7.1-4.1
		c0.3-7.1,5.9-12.7,12.7-12.7h0.1c1-19.6,16.4-35.1,35.2-35.1c19.5,0,35.3,16.6,35.3,37.1c0,0.5,0,1.1-0.1,1.6
		c2.9,0.8,5.5,2.4,7.8,4.5c3.7-4.9,9.5-8,15.9-8c11.3,0,20.4,9.6,20.4,21.5c0,0.6-0.1,1.2-0.1,1.7c0.1,0,0.2,0,0.3,0
		c6.6,0,12.4,3.6,15.6,9.2c2.2-1.5,4.7-2.3,7.5-2.3c4,0,7.5,1.8,10.1,4.6c1.6-1.4,3.7-2.3,6.1-2.3c1.5,0,3,0.4,4.3,1.1
		c3.1-6.8,9.8-11.5,17.4-11.5c1.8,0,3.5,0.3,5.2,0.7c0-0.4-0.1-0.8-0.1-1.2c0-11.5,8.9-20.8,19.7-20.8c10.9,0,19.7,9.3,19.7,20.8
		c0,0.7-0.1,1.4-0.1,2.2c5.3,1.2,9.7,5,11.7,10.2c0.6-0.1,1.3-0.1,1.9-0.1c1.4,0,2.7,0.2,4,0.6c4.1-6.8,11.2-11.4,19.4-11.4
		c3.6,0,7.1,0.9,10.2,2.5c2.4-4.4,6.9-7.4,12-7.4c7.7,0,13.8,6.5,13.8,14.5c0,7.8-5.9,14.2-13.2,14.5c-0.1,13.1-10.2,23.7-22.8,23.7
		c-6,0-11.3-2.4-15.4-6.4c-2.3,1.4-5,2.3-8,2.3c-6.2,0-11.6-3.8-14.1-9.3c-0.9,0.2-1.8,0.3-2.9,0.3c-4.6,0-8.8-2-11.8-5.2
		c-2.2,2.1-5.2,3.4-8.4,3.4c-2,0-3.9-0.5-5.5-1.4c-3.5,4.9-9.1,8.2-15.5,8.2c-7.8,0-14.5-4.8-17.6-11.8c-1.2,0.7-2.6,1-4.1,1
		c-1.3,0-2.6-0.3-3.7-0.8c-2.2,4.8-6.9,8.1-12.3,8.1c-3.5,0-6.7-1.4-9.1-3.7c-3.4,4.2-8.4,6.8-14,6.8C1.4,149.9-5.2,145-8,138
		c-8.4,9-20.1,14.6-33,14.6c-14.8,0-28-7.4-36.4-18.8c-1.7,15.9-14.5,28.3-30.1,28.3c-15.1,0-27.6-11.7-29.9-26.9
		C-143.1,132.7-147.2,126.8-147.2,119.9z"/>
	<g id="XMLID_666_" class="st4">
		
			<linearGradient id="XMLID_13_" gradientUnits="userSpaceOnUse" x1="5639.7749" y1="-84.3453" x2="5639.7749" y2="107.5022" gradientTransform="matrix(-1 0 0 1 5705.7588 0)">
			<stop  offset="0" style="stop-color:#28BDCA"/>
			<stop  offset="0.5419" style="stop-color:#0FB4D2"/>
			<stop  offset="1" style="stop-color:#E6F5F8"/>
		</linearGradient>
		<path id="XMLID_668_" class="st5" d="M234.3,127.6c0,0.9-0.1,1.8-0.2,2.7l-216.6-5.1l-46.9,12.6c-4.4-3.1-8.2-7-11.5-11.4
			c-1.1,9.9-6.1,18.6-13.4,24.2l-2.2,1.5c-5,3.3-11,5.1-17.3,5.1c-16.5,0-30.2-12.7-32.7-29.4c-6.1-2.8-10.6-9.2-10.6-16.7
			c0-9.9,7.7-18,17.1-18c2.3,0,4.5,0.5,6.4,1.3c2.4-1.8,5-3.3,7.8-4.5c0.4-7.7,6.4-13.9,13.9-13.9h0.1C-70.6,54.9-53.7,38-33.1,38
			c21.3,0,38.5,18.1,38.5,40.5c0,0.6,0,1.2-0.1,1.7c3.2,0.9,6.1,2.6,8.4,4.9c4.1-5.4,10.3-8.8,17.4-8.8c12.4,0,22.3,10.5,22.3,23.5
			c0,0.6-0.1,1.3-0.1,1.9c0.1,0,0.2,0,0.3,0c7.2,0,13.6,3.9,17.1,10c2.4-1.7,5.2-2.6,8.2-2.6c4.3,0,8.2,1.9,11,5.1
			c1.7-1.6,4.1-2.6,6.6-2.6c1.7,0,3.2,0.4,4.7,1.2c3.4-7.4,10.7-12.5,19-12.5c2,0,3.9,0.3,5.7,0.8c0-0.4-0.1-0.8-0.1-1.3
			c0-12.5,9.7-22.6,21.5-22.6c11.9,0,21.5,10.2,21.5,22.6c0,0.8-0.1,1.6-0.1,2.4c5.8,1.3,10.6,5.5,12.8,11.1
			c0.7-0.1,1.4-0.1,2.1-0.1c1.5,0,3,0.2,4.4,0.6c4.4-7.4,12.2-12.4,21.2-12.4c4,0,7.8,1,11.1,2.7c2.6-4.8,7.5-8.1,13.1-8.1
			c8.3,0,15,7,15,15.8C248.8,120.4,242.4,127.3,234.3,127.6z"/>
		
			<linearGradient id="XMLID_14_" gradientUnits="userSpaceOnUse" x1="5501.5986" y1="116.5167" x2="5501.5986" y2="145.8772" gradientTransform="matrix(-1 0 0 1 5705.7588 0)">
			<stop  offset="0" style="stop-color:#28BDCA"/>
			<stop  offset="0.5419" style="stop-color:#0FB4D2"/>
			<stop  offset="1" style="stop-color:#E6F5F8"/>
		</linearGradient>
		<path id="XMLID_667_" class="st6" d="M233.2,135.2c-3.2,10.6-12.6,18.3-23.7,18.3c-6.5,0-12.4-2.6-16.8-6.9
			c-2.5,1.6-5.5,2.5-8.7,2.5c-3.2,0-6.3-1-8.8-2.6L233.2,135.2z"/>
	</g>
	<g id="XMLID_663_" class="st4">
		<linearGradient id="XMLID_15_" gradientUnits="userSpaceOnUse" x1="28.798" y1="34.4632" x2="97.7942" y2="34.4632">
			<stop  offset="0" style="stop-color:#28BDCA"/>
			<stop  offset="0.5419" style="stop-color:#0FB4D2"/>
			<stop  offset="1" style="stop-color:#E6F5F8"/>
		</linearGradient>
		<polyline id="XMLID_665_" class="st7" points="28.8,-50.1 89.2,128.2 97.8,128.2 48.9,-59.3 		"/>
		
			<linearGradient id="XMLID_16_" gradientUnits="userSpaceOnUse" x1="-497.7595" y1="23.5346" x2="-428.7633" y2="23.5346" gradientTransform="matrix(0.8257 -4.170894e-003 5.051242e-003 1 467.2207 9.0032)">
			<stop  offset="0" style="stop-color:#28BDCA"/>
			<stop  offset="0.5419" style="stop-color:#0FB4D2"/>
			<stop  offset="1" style="stop-color:#E6F5F8"/>
		</linearGradient>
		<polyline id="XMLID_664_" class="st8" points="55.9,-49.9 106.7,128.1 113.8,128 72.5,-59.2 		"/>
	</g>
	<path id="XMLID_660_" class="st9" d="M2.1,212.1c0,0-38.5-63.8,22.7-88.6s245.8-14.8,245.8-14.8l3.7,98.1"/>
	<path id="XMLID_657_" class="st10" d="M12.5,210c0,0-36-59.7,21.2-82.9s229.9-13.8,229.9-13.8l3.5,91.8"/>
	<linearGradient id="XMLID_17_" gradientUnits="userSpaceOnUse" x1="135.4302" y1="175.6006" x2="135.4302" y2="108.2725">
		<stop  offset="0" style="stop-color:#F15C27"/>
		<stop  offset="1" style="stop-color:#F0A625"/>
	</linearGradient>
	<path id="XMLID_656_" class="st11" d="M13.7,211.9c0,0-36-59.7,21.2-82.9s229.9-13.8,229.9-13.8l3.5,91.8"/>
	<g id="XMLID_651_" class="st4">
		<rect id="XMLID_655_" x="54.1" y="146.6" class="st12" width="12.4" height="9.3"/>
		<rect id="XMLID_654_" x="54.7" y="147" class="st13" width="11.4" height="8.5"/>
		<rect id="XMLID_653_" x="55.3" y="147.5" class="st14" width="10.2" height="7.6"/>
		<rect id="XMLID_652_" x="55.8" y="147.9" class="st15" width="9" height="6.8"/>
	</g>
	<g id="XMLID_422_" class="st4">
		<circle id="XMLID_650_" class="st16" cx="237.8" cy="152.4" r="5.6"/>
		<rect id="XMLID_649_" x="232.2" y="151.6" class="st16" width="11.2" height="9.6"/>
		<circle id="XMLID_648_" class="st17" cx="237.8" cy="152.4" r="4.1"/>
		<path id="XMLID_647_" class="st16" d="M243.5,162.2v-4.5H4c-0.4,1.5-0.8,3-1.1,4.5H243.5z"/>
		<g id="XMLID_423_">
			<g id="XMLID_642_">
				<circle id="XMLID_646_" class="st18" cx="26.4" cy="142.7" r="5.5"/>
				<circle id="XMLID_645_" class="st19" cx="26.4" cy="142.7" r="4.9"/>
				
					<ellipse id="XMLID_644_" transform="matrix(2.826842e-002 0.9996 -0.9996 2.826842e-002 167.9217 112.4027)" class="st20" cx="26.1" cy="142.6" rx="4.4" ry="4.4"/>
				
					<rect id="XMLID_643_" x="28.3" y="138.5" transform="matrix(0.7742 0.6329 -0.6329 0.7742 95.3422 13.6402)" class="st0" width="0.5" height="4"/>
			</g>
			<g id="XMLID_631_">
				<circle id="XMLID_641_" class="st0" cx="231.1" cy="136.1" r="0.5"/>
				<circle id="XMLID_640_" class="st0" cx="233.5" cy="133.5" r="0.5"/>
				<circle id="XMLID_639_" class="st0" cx="237" cy="132.6" r="0.5"/>
				<circle id="XMLID_638_" class="st0" cx="240.4" cy="133.5" r="0.5"/>
				<circle id="XMLID_637_" class="st0" cx="242.9" cy="136.1" r="0.5"/>
				<circle id="XMLID_636_" class="st19" cx="237" cy="138.7" r="4.9"/>
				
					<ellipse id="XMLID_635_" transform="matrix(2.826842e-002 0.9996 -0.9996 2.826842e-002 368.5576 -101.9351)" class="st20" cx="236.7" cy="138.6" rx="4.4" ry="4.4"/>
				<g id="XMLID_632_">
					<path id="XMLID_634_" class="st21" d="M232.3,139.9l5.8-4.5c0,0,2.1,0.8,2.5,2.3l-3.1,6.5l-1.2-0.3c0,0-0.9-2.5-3.1-2.7
						L232.3,139.9z"/>
					
						<rect id="XMLID_633_" x="238.9" y="134.5" transform="matrix(0.7742 0.6329 -0.6329 0.7742 140.3654 -120.5216)" class="st0" width="0.5" height="4"/>
				</g>
			</g>
			<g id="XMLID_620_">
				<circle id="XMLID_630_" class="st0" cx="231.1" cy="121.2" r="0.5"/>
				<circle id="XMLID_629_" class="st0" cx="233.5" cy="118.6" r="0.5"/>
				<circle id="XMLID_628_" class="st0" cx="237" cy="117.6" r="0.5"/>
				<circle id="XMLID_627_" class="st0" cx="240.4" cy="118.6" r="0.5"/>
				<circle id="XMLID_626_" class="st0" cx="242.9" cy="121.1" r="0.5"/>
				<circle id="XMLID_625_" class="st19" cx="237" cy="123.8" r="4.9"/>
				
					<ellipse id="XMLID_624_" transform="matrix(2.826842e-002 0.9996 -0.9996 2.826842e-002 353.6159 -116.4602)" class="st20" cx="236.7" cy="123.6" rx="4.4" ry="4.4"/>
				<g id="XMLID_621_">
					<path id="XMLID_623_" class="st21" d="M232.3,125l5.8-4.5c0,0,2.1,0.8,2.5,2.3l-3.1,6.5l-1.2-0.3c0,0-0.9-2.5-3.1-2.7
						L232.3,125z"/>
					
						<rect id="XMLID_622_" x="238.9" y="119.6" transform="matrix(0.7742 0.6329 -0.6329 0.7742 130.9049 -123.8964)" class="st0" width="0.5" height="4"/>
				</g>
			</g>
			<g id="XMLID_610_">
				<rect id="XMLID_619_" x="56.5" y="131.1" class="st22" width="7" height="10.4"/>
				<linearGradient id="XMLID_21_" gradientUnits="userSpaceOnUse" x1="60.0204" y1="139.189" x2="60.0204" y2="132.5342">
					<stop  offset="0" style="stop-color:#000000"/>
					<stop  offset="0.6578" style="stop-color:#C9C9C9"/>
					<stop  offset="1" style="stop-color:#000000"/>
				</linearGradient>
				<rect id="XMLID_618_" x="57.6" y="132.6" class="st23" width="4.9" height="7.3"/>
				<g id="XMLID_614_">
					<path id="XMLID_615_" class="st0" d="M60.4,138.9c-0.1,0.1-0.2,0.1-0.3,0.1c-0.1,0-0.3,0-0.3-0.1c-0.1-0.1-0.2-0.2-0.2-0.4
						c0-0.2,0.1-0.3,0.2-0.4c0.1-0.1,0.2-0.1,0.3-0.1c0.1,0,0.3,0,0.3,0.1c0.1,0.1,0.2,0.2,0.2,0.4
						C60.5,138.7,60.5,138.8,60.4,138.9z M60.2,138.8c0-0.1,0.1-0.1,0.1-0.3c0-0.1,0-0.2-0.1-0.3c0-0.1-0.1-0.1-0.2-0.1
						s-0.1,0-0.2,0.1c0,0.1-0.1,0.1-0.1,0.3c0,0.1,0,0.2,0.1,0.3c0,0.1,0.1,0.1,0.2,0.1S60.2,138.8,60.2,138.8z"/>
				</g>
				<g id="XMLID_611_">
					<path id="XMLID_612_" class="st0" d="M60.1,134h-0.2v-1h0.2V134z"/>
				</g>
			</g>
			<g id="XMLID_507_">
				<g id="XMLID_597_">
					<path id="XMLID_609_" class="st24" d="M72.5,155.5C72.5,155.5,72.5,155.5,72.5,155.5c0,0.1,0,0.1,0,0.2v0h0
						c0,0.4-0.3,0.6-0.7,0.6c-0.4,0-0.7-0.3-0.7-0.6h0v0c0,0,0,0,0,0c0,0,0,0,0,0v-8c0,0,0,0,0,0c0,0,0,0,0,0v0h0
						c0-0.4,0.3-0.7,0.7-0.7c0.4,0,0.7,0.3,0.7,0.7c0,0,0,0.1,0,0.1V155.5z"/>
					<path id="XMLID_608_" class="st24" d="M74.7,155.5C74.8,155.5,74.8,155.5,74.7,155.5c0,0.1,0,0.1,0,0.2v0h0
						c0,0.4-0.3,0.6-0.7,0.6c-0.4,0-0.7-0.3-0.7-0.6h0v0c0,0,0,0,0,0c0,0,0,0,0,0v-8c0,0,0,0,0,0c0,0,0,0,0,0v0h0
						c0-0.4,0.3-0.7,0.7-0.7c0.4,0,0.7,0.3,0.7,0.7c0,0,0,0.1,0,0.1V155.5z"/>
					<path id="XMLID_607_" class="st24" d="M77,155.5C77,155.5,77,155.5,77,155.5c0,0.1,0,0.1,0,0.2v0h0c0,0.4-0.3,0.6-0.7,0.6
						c-0.4,0-0.7-0.3-0.7-0.6h0v0c0,0,0,0,0,0c0,0,0,0,0,0v-8c0,0,0,0,0,0c0,0,0,0,0,0v0h0c0-0.4,0.3-0.7,0.7-0.7
						c0.4,0,0.7,0.3,0.7,0.7c0,0,0,0.1,0,0.1V155.5z"/>
					<path id="XMLID_606_" class="st24" d="M79.2,155.5C79.2,155.5,79.2,155.5,79.2,155.5c0,0.1,0,0.1,0,0.2v0h0
						c0,0.4-0.3,0.6-0.7,0.6c-0.4,0-0.7-0.3-0.7-0.6h0v0c0,0,0,0,0,0c0,0,0,0,0,0v-8c0,0,0,0,0,0c0,0,0,0,0,0v0h0
						c0-0.4,0.3-0.7,0.7-0.7c0.4,0,0.7,0.3,0.7,0.7c0,0,0,0.1,0,0.1V155.5z"/>
					<path id="XMLID_605_" class="st24" d="M81.5,155.5C81.5,155.5,81.5,155.5,81.5,155.5c0,0.1,0,0.1,0,0.2v0h0
						c0,0.4-0.3,0.6-0.7,0.6c-0.4,0-0.7-0.3-0.7-0.6h0v0c0,0,0,0,0,0c0,0,0,0,0,0v-8c0,0,0,0,0,0c0,0,0,0,0,0v0h0
						c0-0.4,0.3-0.7,0.7-0.7c0.4,0,0.7,0.3,0.7,0.7c0,0,0,0.1,0,0.1V155.5z"/>
					<path id="XMLID_604_" class="st24" d="M83.7,155.5C83.7,155.5,83.7,155.5,83.7,155.5c0,0.1,0,0.1,0,0.2v0h0
						c0,0.4-0.3,0.6-0.7,0.6c-0.4,0-0.7-0.3-0.7-0.6h0v0c0,0,0,0,0,0c0,0,0,0,0,0v-8c0,0,0,0,0,0c0,0,0,0,0,0v0h0
						c0-0.4,0.3-0.7,0.7-0.7c0.4,0,0.7,0.3,0.7,0.7c0,0,0,0.1,0,0.1V155.5z"/>
					<path id="XMLID_603_" class="st24" d="M86,155.5C86,155.5,86,155.5,86,155.5c0,0.1,0,0.1,0,0.2v0h0c0,0.4-0.3,0.6-0.7,0.6
						s-0.7-0.3-0.7-0.6h0v0c0,0,0,0,0,0c0,0,0,0,0,0v-8c0,0,0,0,0,0c0,0,0,0,0,0v0h0c0-0.4,0.3-0.7,0.7-0.7c0.4,0,0.7,0.3,0.7,0.7
						c0,0,0,0.1,0,0.1V155.5z"/>
					<path id="XMLID_602_" class="st24" d="M88.2,155.5C88.2,155.5,88.2,155.5,88.2,155.5c0,0.1,0,0.1,0,0.2v0h0
						c0,0.4-0.3,0.6-0.7,0.6c-0.4,0-0.7-0.3-0.7-0.6h0v0c0,0,0,0,0,0c0,0,0,0,0,0v-8c0,0,0,0,0,0c0,0,0,0,0,0v0h0
						c0-0.4,0.3-0.7,0.7-0.7c0.4,0,0.7,0.3,0.7,0.7c0,0,0,0.1,0,0.1V155.5z"/>
					<path id="XMLID_601_" class="st24" d="M90.4,155.5C90.5,155.5,90.5,155.5,90.4,155.5c0,0.1,0,0.1,0,0.2v0h0
						c0,0.4-0.3,0.6-0.7,0.6s-0.7-0.3-0.7-0.6h0v0c0,0,0,0,0,0c0,0,0,0,0,0v-8c0,0,0,0,0,0c0,0,0,0,0,0v0h0c0-0.4,0.3-0.7,0.7-0.7
						c0.4,0,0.7,0.3,0.7,0.7c0,0,0,0.1,0,0.1V155.5z"/>
					<path id="XMLID_600_" class="st24" d="M92.7,155.5C92.7,155.5,92.7,155.5,92.7,155.5c0,0.1,0,0.1,0,0.2v0h0
						c0,0.4-0.3,0.6-0.7,0.6c-0.4,0-0.7-0.3-0.7-0.6h0v0c0,0,0,0,0,0c0,0,0,0,0,0v-8c0,0,0,0,0,0c0,0,0,0,0,0v0h0
						c0-0.4,0.3-0.7,0.7-0.7c0.4,0,0.7,0.3,0.7,0.7c0,0,0,0.1,0,0.1V155.5z"/>
					<path id="XMLID_599_" class="st24" d="M94.9,155.5C94.9,155.5,94.9,155.5,94.9,155.5c0,0.1,0,0.1,0,0.2v0h0
						c0,0.4-0.3,0.6-0.7,0.6c-0.4,0-0.7-0.3-0.7-0.6h0v0c0,0,0,0,0,0c0,0,0,0,0,0v-8c0,0,0,0,0,0c0,0,0,0,0,0v0h0
						c0-0.4,0.3-0.7,0.7-0.7c0.4,0,0.7,0.3,0.7,0.7c0,0,0,0.1,0,0.1V155.5z"/>
					<path id="XMLID_598_" class="st24" d="M97.2,155.5C97.2,155.5,97.2,155.5,97.2,155.5c0,0.1,0,0.1,0,0.2v0h0
						c0,0.4-0.3,0.6-0.7,0.6c-0.4,0-0.7-0.3-0.7-0.6h0v0c0,0,0,0,0,0c0,0,0,0,0,0v-8c0,0,0,0,0,0c0,0,0,0,0,0v0h0
						c0-0.4,0.3-0.7,0.7-0.7c0.4,0,0.7,0.3,0.7,0.7c0,0,0,0.1,0,0.1V155.5z"/>
				</g>
				<path id="XMLID_596_" class="st24" d="M33.6,155.5C33.6,155.5,33.6,155.5,33.6,155.5c0,0.1,0,0.1,0,0.2v0h0
					c0,0.4-0.3,0.6-0.7,0.6c-0.4,0-0.7-0.3-0.7-0.6h0v0c0,0,0,0,0,0c0,0,0,0,0,0v-8c0,0,0,0,0,0c0,0,0,0,0,0v0h0
					c0-0.4,0.3-0.7,0.7-0.7c0.4,0,0.7,0.3,0.7,0.7c0,0,0,0.1,0,0.1V155.5z"/>
				<path id="XMLID_595_" class="st24" d="M35.8,155.5C35.8,155.5,35.8,155.5,35.8,155.5c0,0.1,0,0.1,0,0.2v0h0
					c0,0.4-0.3,0.6-0.7,0.6c-0.4,0-0.7-0.3-0.7-0.6h0v0c0,0,0,0,0,0c0,0,0,0,0,0v-8c0,0,0,0,0,0c0,0,0,0,0,0v0h0
					c0-0.4,0.3-0.7,0.7-0.7c0.4,0,0.7,0.3,0.7,0.7c0,0,0,0.1,0,0.1V155.5z"/>
				<path id="XMLID_594_" class="st24" d="M38.1,155.5C38.1,155.5,38.1,155.5,38.1,155.5c0,0.1,0,0.1,0,0.2v0h0
					c0,0.4-0.3,0.6-0.7,0.6c-0.4,0-0.7-0.3-0.7-0.6h0v0c0,0,0,0,0,0c0,0,0,0,0,0v-8c0,0,0,0,0,0c0,0,0,0,0,0v0h0
					c0-0.4,0.3-0.7,0.7-0.7c0.4,0,0.7,0.3,0.7,0.7c0,0,0,0.1,0,0.1V155.5z"/>
				<path id="XMLID_593_" class="st24" d="M40.3,155.5C40.3,155.5,40.3,155.5,40.3,155.5c0,0.1,0,0.1,0,0.2v0h0
					c0,0.4-0.3,0.6-0.7,0.6c-0.4,0-0.7-0.3-0.7-0.6h0v0c0,0,0,0,0,0c0,0,0,0,0,0v-8c0,0,0,0,0,0c0,0,0,0,0,0v0h0
					c0-0.4,0.3-0.7,0.7-0.7c0.4,0,0.7,0.3,0.7,0.7c0,0,0,0.1,0,0.1V155.5z"/>
				<path id="XMLID_592_" class="st24" d="M42.5,155.5C42.5,155.5,42.5,155.5,42.5,155.5c0,0.1,0,0.1,0,0.2v0h0
					c0,0.4-0.3,0.6-0.7,0.6c-0.4,0-0.7-0.3-0.7-0.6h0v0c0,0,0,0,0,0c0,0,0,0,0,0v-8c0,0,0,0,0,0c0,0,0,0,0,0v0h0
					c0-0.4,0.3-0.7,0.7-0.7c0.4,0,0.7,0.3,0.7,0.7c0,0,0,0.1,0,0.1V155.5z"/>
				<path id="XMLID_591_" class="st24" d="M44.8,155.5C44.8,155.5,44.8,155.5,44.8,155.5c0,0.1,0,0.1,0,0.2v0h0
					c0,0.4-0.3,0.6-0.7,0.6c-0.4,0-0.7-0.3-0.7-0.6h0v0c0,0,0,0,0,0c0,0,0,0,0,0v-8c0,0,0,0,0,0c0,0,0,0,0,0v0h0
					c0-0.4,0.3-0.7,0.7-0.7c0.4,0,0.7,0.3,0.7,0.7c0,0,0,0.1,0,0.1V155.5z"/>
				<path id="XMLID_590_" class="st24" d="M47,155.5C47,155.5,47,155.5,47,155.5c0,0.1,0,0.1,0,0.2v0h0c0,0.4-0.3,0.6-0.7,0.6
					c-0.4,0-0.7-0.3-0.7-0.6h0v0c0,0,0,0,0,0c0,0,0,0,0,0v-8c0,0,0,0,0,0c0,0,0,0,0,0v0h0c0-0.4,0.3-0.7,0.7-0.7
					c0.4,0,0.7,0.3,0.7,0.7c0,0,0,0.1,0,0.1V155.5z"/>
				<path id="XMLID_589_" class="st24" d="M49.3,155.5C49.3,155.5,49.3,155.5,49.3,155.5c0,0.1,0,0.1,0,0.2v0h0
					c0,0.4-0.3,0.6-0.7,0.6c-0.4,0-0.7-0.3-0.7-0.6h0v0c0,0,0,0,0,0c0,0,0,0,0,0v-8c0,0,0,0,0,0c0,0,0,0,0,0v0h0
					c0-0.4,0.3-0.7,0.7-0.7c0.4,0,0.7,0.3,0.7,0.7c0,0,0,0.1,0,0.1V155.5z"/>
				<g id="XMLID_549_">
					<g id="XMLID_586_">
						<circle id="XMLID_588_" class="st25" cx="73.2" cy="122.6" r="0.9"/>
						<circle id="XMLID_587_" class="st26" cx="73.2" cy="122.6" r="0.6"/>
					</g>
					<g id="XMLID_583_">
						<circle id="XMLID_585_" class="st25" cx="73.2" cy="125.9" r="0.9"/>
						<circle id="XMLID_584_" class="st26" cx="73.2" cy="125.9" r="0.6"/>
					</g>
					<g id="XMLID_580_">
						<circle id="XMLID_582_" class="st25" cx="73.2" cy="129.3" r="0.9"/>
						<circle id="XMLID_581_" class="st26" cx="73.2" cy="129.3" r="0.6"/>
					</g>
					<g id="XMLID_577_">
						<circle id="XMLID_579_" class="st25" cx="73.2" cy="132.6" r="0.9"/>
						<circle id="XMLID_578_" class="st26" cx="73.2" cy="132.6" r="0.6"/>
					</g>
					<rect id="XMLID_576_" x="71.3" y="142.1" class="st27" width="3" height="1.6"/>
					<rect id="XMLID_575_" x="71.3" y="139.5" class="st27" width="3" height="1.6"/>
					<rect id="XMLID_574_" x="71.3" y="136.5" class="st27" width="3" height="1.6"/>
					<path id="XMLID_573_" class="st26" d="M78.1,141.2c0,0.2-0.3,0.4-0.6,0.4l0,0c-0.3,0-0.6-0.2-0.6-0.4v-15.7
						c0-0.2,0.3-0.4,0.6-0.4l0,0c0.3,0,0.6,0.2,0.6,0.4V141.2z"/>
					<rect id="XMLID_572_" x="78.6" y="138" class="st0" width="2" height="0.2"/>
					<rect id="XMLID_571_" x="78.6" y="137.3" class="st0" width="2" height="0.2"/>
					<rect id="XMLID_570_" x="78.6" y="136.6" class="st0" width="2" height="0.2"/>
					<rect id="XMLID_569_" x="78.6" y="135.9" class="st0" width="2" height="0.2"/>
					<rect id="XMLID_568_" x="78.6" y="135.1" class="st0" width="2" height="0.2"/>
					<rect id="XMLID_567_" x="78.6" y="134.4" class="st0" width="2" height="0.2"/>
					<rect id="XMLID_566_" x="78.6" y="133.7" class="st0" width="2" height="0.2"/>
					<rect id="XMLID_565_" x="78.6" y="133" class="st0" width="2" height="0.2"/>
					<rect id="XMLID_564_" x="78.6" y="132.3" class="st0" width="2" height="0.2"/>
					<rect id="XMLID_563_" x="78.6" y="131.6" class="st0" width="2" height="0.2"/>
					<rect id="XMLID_562_" x="78.6" y="130.8" class="st0" width="2" height="0.2"/>
					<rect id="XMLID_561_" x="78.6" y="130.1" class="st0" width="2" height="0.2"/>
					<rect id="XMLID_560_" x="78.6" y="129.4" class="st0" width="2" height="0.2"/>
					<rect id="XMLID_559_" x="78.6" y="128.7" class="st0" width="2" height="0.2"/>
					<rect id="XMLID_558_" x="78.6" y="128" class="st0" width="2" height="0.2"/>
					<rect id="XMLID_557_" x="78.6" y="127.3" class="st0" width="2" height="0.2"/>
					<rect id="XMLID_556_" x="78.6" y="126.5" class="st0" width="2" height="0.2"/>
					<rect id="XMLID_555_" x="78.6" y="125.8" class="st0" width="2" height="0.2"/>
					<circle id="XMLID_554_" class="st28" cx="79.4" cy="121.4" r="0.6"/>
					<circle id="XMLID_553_" class="st29" cx="79.4" cy="123.4" r="0.6"/>
					<g id="XMLID_550_">
						<rect id="XMLID_552_" x="75.2" y="132.1" class="st30" width="4.8" height="2.8"/>
						<rect id="XMLID_551_" x="75.2" y="133.1" class="st31" width="4.8" height="0.5"/>
					</g>
				</g>
				<g id="XMLID_508_">
					<g id="XMLID_546_">
						<circle id="XMLID_548_" class="st25" cx="91.2" cy="122.6" r="0.9"/>
						<circle id="XMLID_547_" class="st26" cx="91.2" cy="122.6" r="0.6"/>
					</g>
					<g id="XMLID_543_">
						<circle id="XMLID_545_" class="st25" cx="91.2" cy="125.9" r="0.9"/>
						<circle id="XMLID_544_" class="st26" cx="91.2" cy="125.9" r="0.6"/>
					</g>
					<g id="XMLID_540_">
						<circle id="XMLID_542_" class="st25" cx="91.2" cy="129.3" r="0.9"/>
						<circle id="XMLID_541_" class="st26" cx="91.2" cy="129.3" r="0.6"/>
					</g>
					<g id="XMLID_537_">
						<circle id="XMLID_539_" class="st25" cx="91.2" cy="132.6" r="0.9"/>
						<circle id="XMLID_538_" class="st26" cx="91.2" cy="132.6" r="0.6"/>
					</g>
					<rect id="XMLID_536_" x="89.3" y="142.1" class="st27" width="3" height="1.6"/>
					<rect id="XMLID_535_" x="89.3" y="139.5" class="st27" width="3" height="1.6"/>
					<rect id="XMLID_534_" x="89.3" y="136.5" class="st27" width="3" height="1.6"/>
					<path id="XMLID_533_" class="st26" d="M96.1,141.2c0,0.2-0.3,0.4-0.6,0.4l0,0c-0.3,0-0.6-0.2-0.6-0.4v-15.7
						c0-0.2,0.3-0.4,0.6-0.4l0,0c0.3,0,0.6,0.2,0.6,0.4V141.2z"/>
					<rect id="XMLID_532_" x="96.6" y="138" class="st0" width="2" height="0.2"/>
					<rect id="XMLID_531_" x="96.6" y="137.3" class="st0" width="2" height="0.2"/>
					<rect id="XMLID_530_" x="96.6" y="136.6" class="st0" width="2" height="0.2"/>
					<rect id="XMLID_529_" x="96.6" y="135.9" class="st0" width="2" height="0.2"/>
					<rect id="XMLID_528_" x="96.6" y="135.1" class="st0" width="2" height="0.2"/>
					<rect id="XMLID_527_" x="96.6" y="134.4" class="st0" width="2" height="0.2"/>
					<rect id="XMLID_526_" x="96.6" y="133.7" class="st0" width="2" height="0.2"/>
					<rect id="XMLID_525_" x="96.6" y="133" class="st0" width="2" height="0.2"/>
					<rect id="XMLID_524_" x="96.6" y="132.3" class="st0" width="2" height="0.2"/>
					<rect id="XMLID_523_" x="96.6" y="131.6" class="st0" width="2" height="0.2"/>
					<rect id="XMLID_522_" x="96.6" y="130.8" class="st0" width="2" height="0.2"/>
					<rect id="XMLID_521_" x="96.6" y="130.1" class="st0" width="2" height="0.2"/>
					<rect id="XMLID_520_" x="96.6" y="129.4" class="st0" width="2" height="0.2"/>
					<rect id="XMLID_519_" x="96.6" y="128.7" class="st0" width="2" height="0.2"/>
					<rect id="XMLID_518_" x="96.6" y="128" class="st0" width="2" height="0.2"/>
					<rect id="XMLID_516_" x="96.6" y="127.3" class="st0" width="2" height="0.2"/>
					<rect id="XMLID_515_" x="96.6" y="126.5" class="st0" width="2" height="0.2"/>
					<rect id="XMLID_514_" x="96.6" y="125.8" class="st0" width="2" height="0.2"/>
					<circle id="XMLID_513_" class="st28" cx="97.4" cy="121.4" r="0.6"/>
					<circle id="XMLID_512_" class="st29" cx="97.4" cy="123.4" r="0.6"/>
					<g id="XMLID_509_">
						<rect id="XMLID_511_" x="93.2" y="132.1" class="st30" width="4.8" height="2.8"/>
						<rect id="XMLID_510_" x="93.2" y="133.1" class="st31" width="4.8" height="0.5"/>
					</g>
				</g>
			</g>
			<g id="XMLID_494_">
				<g id="XMLID_501_">
					<circle id="XMLID_506_" class="st32" cx="208.2" cy="152.1" r="3"/>
					<circle id="XMLID_505_" class="st33" cx="208.2" cy="152.1" r="2.8"/>
					<circle id="XMLID_504_" class="st18" cx="208.2" cy="152.1" r="2.5"/>
					<circle id="XMLID_503_" class="st33" cx="208.2" cy="152.1" r="1.9"/>
					<circle id="XMLID_502_" class="st18" cx="208.2" cy="152.1" r="0.9"/>
				</g>
				<g id="XMLID_495_">
					<circle id="XMLID_500_" class="st32" cx="218.2" cy="152.1" r="3"/>
					<circle id="XMLID_499_" class="st33" cx="218.2" cy="152.1" r="2.8"/>
					<circle id="XMLID_498_" class="st18" cx="218.2" cy="152.1" r="2.5"/>
					<circle id="XMLID_497_" class="st33" cx="218.2" cy="152.1" r="1.9"/>
					<circle id="XMLID_496_" class="st18" cx="218.2" cy="152.1" r="0.9"/>
				</g>
			</g>
			<g id="XMLID_481_">
				<g id="XMLID_488_">
					<circle id="XMLID_493_" class="st32" cx="40.2" cy="136.3" r="3"/>
					<circle id="XMLID_492_" class="st33" cx="40.2" cy="136.3" r="2.8"/>
					<circle id="XMLID_491_" class="st18" cx="40.2" cy="136.3" r="2.5"/>
					<circle id="XMLID_490_" class="st33" cx="40.2" cy="136.3" r="1.9"/>
					<circle id="XMLID_489_" class="st18" cx="40.2" cy="136.3" r="0.9"/>
				</g>
				<g id="XMLID_482_">
					<circle id="XMLID_487_" class="st32" cx="50.1" cy="136.3" r="3"/>
					<circle id="XMLID_486_" class="st33" cx="50.1" cy="136.3" r="2.8"/>
					<circle id="XMLID_485_" class="st18" cx="50.1" cy="136.3" r="2.5"/>
					<circle id="XMLID_484_" class="st33" cx="50.1" cy="136.3" r="1.9"/>
					<circle id="XMLID_483_" class="st18" cx="50.1" cy="136.3" r="0.9"/>
				</g>
			</g>
			<g id="XMLID_441_">
				<g id="XMLID_478_">
					<circle id="XMLID_480_" class="st25" cx="212.7" cy="120.6" r="0.9"/>
					<circle id="XMLID_479_" class="st26" cx="212.7" cy="120.6" r="0.6"/>
				</g>
				<g id="XMLID_475_">
					<circle id="XMLID_477_" class="st25" cx="212.7" cy="124" r="0.9"/>
					<circle id="XMLID_476_" class="st26" cx="212.7" cy="124" r="0.6"/>
				</g>
				<g id="XMLID_472_">
					<circle id="XMLID_474_" class="st25" cx="212.7" cy="127.4" r="0.9"/>
					<circle id="XMLID_473_" class="st26" cx="212.7" cy="127.4" r="0.6"/>
				</g>
				<g id="XMLID_469_">
					<circle id="XMLID_471_" class="st25" cx="212.7" cy="130.7" r="0.9"/>
					<circle id="XMLID_470_" class="st26" cx="212.7" cy="130.7" r="0.6"/>
				</g>
				<rect id="XMLID_468_" x="210.7" y="140.2" class="st27" width="3" height="1.6"/>
				<rect id="XMLID_467_" x="210.7" y="137.6" class="st27" width="3" height="1.6"/>
				<rect id="XMLID_466_" x="210.7" y="134.6" class="st27" width="3" height="1.6"/>
				<path id="XMLID_465_" class="st26" d="M217.6,139.3c0,0.2-0.3,0.4-0.6,0.4l0,0c-0.3,0-0.6-0.2-0.6-0.4v-15.7
					c0-0.2,0.3-0.4,0.6-0.4l0,0c0.3,0,0.6,0.2,0.6,0.4V139.3z"/>
				<rect id="XMLID_464_" x="218.1" y="136.1" class="st0" width="2" height="0.2"/>
				<rect id="XMLID_463_" x="218.1" y="135.4" class="st0" width="2" height="0.2"/>
				<rect id="XMLID_462_" x="218.1" y="134.7" class="st0" width="2" height="0.2"/>
				<rect id="XMLID_461_" x="218.1" y="133.9" class="st0" width="2" height="0.2"/>
				<rect id="XMLID_460_" x="218.1" y="133.2" class="st0" width="2" height="0.2"/>
				<rect id="XMLID_459_" x="218.1" y="132.5" class="st0" width="2" height="0.2"/>
				<rect id="XMLID_458_" x="218.1" y="131.8" class="st0" width="2" height="0.2"/>
				<rect id="XMLID_457_" x="218.1" y="131.1" class="st0" width="2" height="0.2"/>
				<rect id="XMLID_456_" x="218.1" y="130.4" class="st0" width="2" height="0.2"/>
				<rect id="XMLID_455_" x="218.1" y="129.6" class="st0" width="2" height="0.2"/>
				<rect id="XMLID_454_" x="218.1" y="128.9" class="st0" width="2" height="0.2"/>
				<rect id="XMLID_453_" x="218.1" y="128.2" class="st0" width="2" height="0.2"/>
				<rect id="XMLID_452_" x="218.1" y="127.5" class="st0" width="2" height="0.2"/>
				<rect id="XMLID_451_" x="218.1" y="126.8" class="st0" width="2" height="0.2"/>
				<rect id="XMLID_450_" x="218.1" y="126.1" class="st0" width="2" height="0.2"/>
				<rect id="XMLID_449_" x="218.1" y="125.3" class="st0" width="2" height="0.2"/>
				<rect id="XMLID_448_" x="218.1" y="124.6" class="st0" width="2" height="0.2"/>
				<rect id="XMLID_447_" x="218.1" y="123.9" class="st0" width="2" height="0.2"/>
				<circle id="XMLID_446_" class="st28" cx="218.8" cy="119.5" r="0.6"/>
				<circle id="XMLID_445_" class="st29" cx="218.8" cy="121.4" r="0.6"/>
				<g id="XMLID_442_">
					<rect id="XMLID_444_" x="214.6" y="130.2" class="st30" width="4.8" height="2.8"/>
					<rect id="XMLID_443_" x="214.6" y="131.2" class="st31" width="4.8" height="0.5"/>
				</g>
			</g>
			<g id="XMLID_438_">
				<rect id="XMLID_440_" x="104.4" y="118.4" class="st34" width="2.5" height="5.6"/>
				<circle id="XMLID_439_" class="st35" cx="105.7" cy="123" r="1.1"/>
			</g>
			<g id="XMLID_435_">
				<rect id="XMLID_437_" x="140.4" y="118.4" class="st34" width="2.5" height="5.6"/>
				<circle id="XMLID_436_" class="st35" cx="141.7" cy="123" r="1.1"/>
			</g>
			<g id="XMLID_432_">
				<rect id="XMLID_434_" x="203.8" y="118.4" class="st34" width="2.5" height="5.6"/>
				<circle id="XMLID_433_" class="st35" cx="205.1" cy="123" r="1.1"/>
			</g>
			<g id="XMLID_424_">
				<circle id="XMLID_431_" class="st36" cx="20" cy="159.6" r="7.4"/>
				<circle id="XMLID_430_" class="st37" cx="20" cy="159.6" r="6.3"/>
				<circle id="XMLID_429_" class="st38" cx="20" cy="159.6" r="5.7"/>
				<circle id="XMLID_428_" class="st39" cx="17" cy="159.5" r="1.1"/>
				<circle id="XMLID_427_" class="st39" cx="23" cy="159.5" r="1.1"/>
				<circle id="XMLID_426_" class="st39" cx="20.2" cy="162.8" r="1.1"/>
				<rect id="XMLID_425_" x="19.7" y="155.3" class="st39" width="0.8" height="2.7"/>
			</g>
		</g>
	</g>
	<g id="XMLID_421_" class="st4">
		<g id="XMLID_685_">
			<linearGradient id="XMLID_22_" gradientUnits="userSpaceOnUse" x1="113.0193" y1="-29.9259" x2="115.9172" y2="-29.9405">
				<stop  offset="0" style="stop-color:#28BDCA"/>
				<stop  offset="0.5419" style="stop-color:#0FB4D2"/>
				<stop  offset="1" style="stop-color:#E6F5F8"/>
			</linearGradient>
			<path id="XMLID_690_" class="st40" d="M114.5-28.4c1.9,0,1.9-3,0-3C112.5-31.4,112.5-28.4,114.5-28.4L114.5-28.4z"/>
		</g>
	</g>
	<g id="XMLID_418_" class="st4">
		<circle id="XMLID_420_" class="st41" cx="123.3" cy="142.8" r="21.7"/>
		<circle id="XMLID_419_" class="st42" cx="123.3" cy="142.8" r="18.1"/>
	</g>
	<linearGradient id="XMLID_23_" gradientUnits="userSpaceOnUse" x1="123.6498" y1="126.1035" x2="123.6498" y2="147.6215">
		<stop  offset="0" style="stop-color:#016FB4"/>
		<stop  offset="0.5419" style="stop-color:#0FB4D2"/>
		<stop  offset="1" style="stop-color:#E6F5F8"/>
	</linearGradient>
	<circle id="XMLID_417_" class="st43" cx="123.6" cy="142.2" r="15.9"/>
	<g id="XMLID_413_" class="st4">
		<path id="XMLID_416_" class="st44" d="M109.6,146.4c1.8,5.9,7.2,10.2,13.7,10.2c6.5,0,11.9-4.3,13.7-10.2H109.6z"/>
		<rect id="XMLID_415_" x="110.6" y="144.6" class="st45" width="25.7" height="1.2"/>
		<path id="XMLID_414_" class="st16" d="M112.4,141.2c0.1-6.2,5.1-11.3,11.3-11.3s11.3,5,11.3,11.3h1.6c-0.1-7.1-5.8-12.8-12.9-12.8
			c-7.1,0-12.9,5.7-12.9,12.8H112.4z"/>
	</g>
	<path id="XMLID_412_" class="st46" d="M16.1,131.7c0,0,28.2-17,54.6-17.8c0,0-26.4,4.3-56.1,20.7L16.1,131.7z"/>
	<linearGradient id="XMLID_24_" gradientUnits="userSpaceOnUse" x1="124.3595" y1="125.7894" x2="124.3595" y2="135.4794">
		<stop  offset="0" style="stop-color:#28BDCA"/>
		<stop  offset="0.5419" style="stop-color:#0FB4D2"/>
		<stop  offset="1" style="stop-color:#E6F5F8"/>
	</linearGradient>
	<circle id="XMLID_411_" class="st47" cx="124.4" cy="135" r="3"/>
	<g id="XMLID_408_" class="st4">
		<linearGradient id="XMLID_25_" gradientUnits="userSpaceOnUse" x1="129.5206" y1="117.4235" x2="129.9659" y2="175.0799">
			<stop  offset="0" style="stop-color:#B754A0"/>
			<stop  offset="1" style="stop-color:#E6F5F8"/>
		</linearGradient>
		<path id="XMLID_410_" class="st48" d="M271.7,108.4c0,0-19.8-1.1-48.1-1.6c5.6,8.2,10.4,22.6-8.5,36.7
			c-28.9,21.5-63.6-25.5-73.1-5.6c-9.5,19.8-25.6,3.4-27.4-2.4c-1.8-5.9-8.3-2.1-8.3-2.1s-49.6,19.2-79.5,7.4
			c-2.9-1.2-5.6-1.9-8.1-2.3c-23-3.5-28.4,22.7-28.4,22.7l-3.2,10.1l22.6,0.2l255.1,1.8l7.7-46.1L271.7,108.4z"/>
		<linearGradient id="XMLID_26_" gradientUnits="userSpaceOnUse" x1="123.038" y1="156.4681" x2="123.038" y2="106.2151">
			<stop  offset="0" style="stop-color:#B754A0"/>
			<stop  offset="1" style="stop-color:#E6F5F8"/>
		</linearGradient>
		<path id="XMLID_409_" class="st49" d="M4.6,137.5c0,0,9.5,39.1,147.5,33.3c138-5.7,91.7-60.9,91.7-60.9l16.1,0.9l1.7,67.3
			l-277.1,5.5"/>
	</g>
	<g id="XMLID_391_" class="st4">
		<path id="XMLID_407_" class="st0" d="M77,86.4c0,0-17.2-12.8-20.1-31C54,37.1,72.2,31.6,72.2,31.6s3.3-1.8,6.3-1.5
			c2.3-1.2,3.5,0,3.5,0s1.8-1,2.9-1c0,2.5,0,58.2,0,58.2L77,86.4z"/>
		<path id="XMLID_406_" class="st50" d="M78.1,86c4.1,1.4,3.3,0,3.3,0l-3.7-5.4L68,49.4l1.4-12l5.6-5.8l-0.5-1
			c-1.3,0.4-2.3,0.9-2.3,0.9s-4.9,1.5-9.2,5.4v0c0,0-5.6,6.9-3,17.4C62.6,64.9,68.8,78.4,78.1,86z"/>
		<path id="XMLID_405_" class="st0" d="M74.3,41.7l4.4-9.7l0.2-2.2c-0.2,0.1-0.3,0.1-0.5,0.2c-3-0.3-6.3,1.5-6.3,1.5
			s-0.2,0.1-0.6,0.2c-1.9,0.8-7.2,4.2-7.2,17.7c0,16.3,15.1,36,15.1,36l3.7,0.4l-1.6-6.7L74.3,41.7z"/>
		<path id="XMLID_404_" class="st50" d="M71.4,47.9c0,16.7,9.8,37.2,9.8,37.2l3.6,1.5c0-1.1,0-3.6,0-7.1L83,68.2l-0.5-35.6l0.6-3
			c-0.6,0.3-1.1,0.5-1.1,0.5s-1.2-1.1-3.5,0C78.5,30.1,71.4,31.3,71.4,47.9z"/>
		<path id="XMLID_403_" class="st0" d="M92.7,86.4c0,0,17.2-12.8,20.1-31c2.9-18.3-15.3-23.8-15.3-23.8s-3.3-1.8-6.3-1.5
			c-2.3-1.2-3.5,0-3.5,0s-1.8-1-2.9-1c0,2.5,0,58.2,0,58.2L92.7,86.4z"/>
		<path id="XMLID_402_" class="st50" d="M91.6,86c-4.1,1.4-3.3,0-3.3,0l3.7-5.4l9.8-31.1l-1.4-12l-5.6-5.8l0.5-1
			c1.3,0.4,2.3,0.9,2.3,0.9s4.9,1.5,9.2,5.4l0,0c0,0,5.6,6.9,3,17.4C107.1,64.9,100.9,78.4,91.6,86z"/>
		<path id="XMLID_401_" class="st0" d="M95.4,41.7L90.9,32l-0.2-2.2c0.2,0.1,0.3,0.1,0.5,0.2c3-0.3,6.3,1.5,6.3,1.5s0.2,0.1,0.6,0.2
			c1.9,0.8,7.2,4.2,7.2,17.7c0,16.3-15.1,36-15.1,36L86.5,86l1.6-6.7L95.4,41.7z"/>
		<path id="XMLID_400_" class="st50" d="M98.3,47.9c0,16.7-9.8,37.2-9.8,37.2l-3.6,1.5c0-1.1,0-3.6,0-7.1l1.9-11.3l0.5-35.6l-0.6-3
			c0.6,0.3,1.1,0.5,1.1,0.5s1.2-1.1,3.5,0C91.2,30.1,98.3,31.3,98.3,47.9z"/>
		<path id="XMLID_399_" class="st0" d="M87.7,30.1c0,0-1.8-1-2.9-1c-1.1,0-2.9,1-2.9,1s-2.5,5.7-2.5,23c0,17.3,5.4,34.1,5.4,34.1
			s5.4-16.8,5.4-34.1C90.2,35.8,87.7,30.1,87.7,30.1z"/>
		<rect id="XMLID_398_" x="82.7" y="98.4" class="st42" width="5.1" height="3.7"/>
		<polyline id="XMLID_397_" class="st51" points="80.7,91 82.9,98.4 87.6,98.4 89.6,91 		"/>
		<path id="XMLID_396_" class="st0" d="M80.4,92.2h9.6l3.3-5.9c0,0-8.5-3.1-16.3,0.3C78.3,89,80.4,92.2,80.4,92.2z"/>
		<path id="XMLID_393_" class="st52" d="M92.8,88.8l0.6-1.6c0,0-8.7-5.1-16.5,0.5c0.2,0.5,0.4,1,0.6,1.5
			C84,85.1,90.8,87.8,92.8,88.8z"/>
		<path id="XMLID_392_" class="st53" d="M92,88.4c0.3,0.1,0.6,0.3,0.8,0.4l0.6-1.6c0,0-0.2-0.1-0.5-0.3l0.3-0.6c0,0-0.1,0-0.3-0.1
			c2-1.5,17.2-13.8,19.9-30.9c0.7-4.6,0.1-8.4-1.2-11.4c0,0.2,0,0.5,0.1,0.7C114.7,74,84,82.3,84,82.3l1,0.8l-0.8,2.2
			c2,2,0.1,5-1.5,6.9h7.3L92,88.4z"/>
	</g>
	<path id="XMLID_388_" class="st10" d="M41.4,121c0,0-13.6,3-17.1-3.7c-3.4-6.7,23.4-0.5,17.4,3.5"/>
	<g id="XMLID_156_" class="st4">
		<path id="XMLID_387_" class="st54" d="M124.4,170.8c4.4-0.2,5.7-2.1,6-3c0.4-1.9,0.8-4.4,0.8-7.1l0,0c0,0,0.9-7.2-3.2-12.9
			c-1.2-1.7-3.1-2.6-5.2-3.2c-2.9-1.2-6.6-1.8-10.4-2.2c-4.3-0.4-8.4-0.7-12.8-0.8c-4.1-0.1-8.4,0.3-12.5,0.7
			c-3.8,0.4-7.5,1-10.4,2.2c-2.1,0.5-4,1.5-5.2,3.2c-4.1,5.7-3.2,12.9-3.2,12.9l0,0c0.1,2.8,0.5,5.4,0.9,7.4c0.5,1,1.9,2.6,6,2.8
			c0.4,0,0.8,0.1,1.1,0.1l21.3-0.6l25,0.7C123.1,171,123.6,170.9,124.4,170.8z"/>
		<path id="XMLID_386_" class="st55" d="M76.8,146.9c2.9-1.2,6.6-1.8,10.4-2.2c4.1-0.4,8.4-0.7,12.5-0.7c4.3,0.1,8.5,0.4,12.8,0.8
			c3.8,0.4,7.5,1,10.4,2.2c2.1,0.5,4,1.5,5.2,3.2c2.4,3.3,3.1,7.2,3.3,9.8c0.1-1.5,0.3-7.6-3.3-12.5c-1.2-1.7-3.1-2.6-5.2-3.2
			c-2.9-1.2-6.6-1.8-10.4-2.2c-4.3-0.4-8.4-0.7-12.8-0.8c-4.1-0.1-8.4,0.3-12.5,0.7c-3.8,0.4-7.5,1-10.4,2.2c-2.1,0.5-4,1.5-5.2,3.2
			c-3.5,4.9-3.4,10.9-3.3,12.5c0.2-2.6,0.9-6.4,3.3-9.8C72.8,148.4,74.7,147.5,76.8,146.9z"/>
		<path id="XMLID_385_" class="st54" d="M53,171.6c0,0-6.4,0.9-10.4-2.4c-21-27.6-13-61.4-13-61.4l19.2,3.7l-5.7,3.9
			c-6.4,12.6,2.8,33.3,7.7,43.1l34.6-10l0.9,19.2L53,171.6L53,171.6z"/>
		<path id="XMLID_384_" class="st56" d="M48.6,112.3c0,0-14.9,3.3-18.6-4c-3.7-7.3,25.5-0.5,18.9,3.8"/>
		<path id="XMLID_383_" class="st57" d="M69.6,168.4c-0.4-1.9-0.8-4.5-0.9-7.4l0,0c0,0-0.4-3.4,0.7-7.4l-5.7,1.6
			c-0.6,3.2-0.3,5.7-0.3,5.7l0,0c0.1,2.8,0.5,5.4,0.9,7.4c0.3,0.6,0.9,1.4,2.3,2l4.4-0.5C70.2,169.4,69.8,168.8,69.6,168.4z"/>
		<path id="XMLID_382_" class="st58" d="M50.6,159.7l-0.4-2.5c-4.6-9.3-11.9-28.6-7.3-41.3C25.3,133.7,50.6,159.7,50.6,159.7z"/>
		<path id="XMLID_381_" class="st54" d="M147.2,171.6c0,0,6.4,0.9,10.4-2.4c21-27.6,13-61.4,13-61.4l-19.2,3.7l5.7,3.9
			c6.4,12.6-2.8,33.3-7.7,43.1l-34.6-10l-0.9,19.2L147.2,171.6L147.2,171.6z"/>
		<path id="XMLID_380_" class="st56" d="M151.6,111.7c0,0,14.9,3.3,18.6-4c3.7-7.3-25.5-0.5-18.9,3.8"/>
		<path id="XMLID_368_" class="st57" d="M130.6,168.4c0.4-1.9,0.8-4.5,0.9-7.4l0,0c0,0,0.4-3.4-0.7-7.4l5.7,1.6
			c0.6,3.2,0.3,5.7,0.3,5.7l0,0c-0.1,2.8-0.5,5.4-0.9,7.4c-0.3,0.6-0.9,1.4-2.3,2l-4.4-0.5C130,169.4,130.4,168.8,130.6,168.4z"/>
		<path id="XMLID_359_" class="st58" d="M149.6,159.7l0.4-2.5c4.6-9.3,12-29,7.4-41.6C175,133.4,149.6,159.7,149.6,159.7z"/>
		<path id="XMLID_351_" class="st57" d="M100.8,166.2c-12.3,0-22.9-5.6-27.4-13.7c-0.1,0.1-0.2,0.2-0.2,0.2
			c-3.9,4.1-3.1,9.2-3.1,9.2l0,0c0.1,2,0.5,3.9,0.9,5.3c0.4,0.7,1.8,1.8,5.7,2c0.4,0,0.7,0,1,0.1l20.2-0.4l23.7,0.5
			c0.4-0.1,1-0.1,1.7-0.1c4.2-0.2,5.4-1.5,5.7-2.1c0.4-1.3,0.7-3.1,0.8-5l0,0c0,0,0.7-4.5-2.3-8.4
			C122.6,161.1,112.5,166.2,100.8,166.2z"/>
		<path id="XMLID_332_" class="st55" d="M151.3,111.4l0.3,0.2c0,0,14.9,3.3,18.6-4c1.2-2.3-0.9-3.2-4-3.2c2.9,2.5-3.9,5.6-9.3,4.2
			c-3.8-1-5.5,0.4-6.2,2.3C150.8,111.1,151,111.3,151.3,111.4z"/>
		<path id="XMLID_165_" class="st55" d="M48.9,112l-0.3,0.2c0,0-14.9,3.3-18.6-4c-1.2-2.3,0.9-3.2,4-3.2c-2.9,2.5,3.9,5.6,9.3,4.2
			c3.8-1,5.5,0.4,6.2,2.3C49.4,111.7,49.2,111.8,48.9,112z"/>
		<path id="XMLID_163_" class="st55" d="M170.7,107.8l-2.2,0.4c0.5,2.8,5.6,33.5-9.2,53.8c0,0.1,0,0.3,0,0.4
			c-0.2,1.7-4.7,5.6-9.4,9.3c2.2,0,5.5-0.5,7.9-2.5C178.8,141.5,170.7,107.8,170.7,107.8z"/>
		<path id="XMLID_157_" class="st55" d="M29.6,107.8l2.2,0.4c-0.5,2.8-5.6,33.5,9.2,53.8c0,0.1,0,0.3,0,0.4c0.2,1.7,4.7,5.6,9.4,9.3
			c-2.2,0-5.5-0.5-7.9-2.5C21.6,141.5,29.6,107.8,29.6,107.8z"/>
	</g>
</g>
</svg>
