<?xml version="1.0" encoding="utf-8"?>
<!-- Generator: Adobe Illustrator 19.0.0, SVG Export Plug-In . SVG Version: 6.00 Build 0)  -->
<svg version="1.1" id="Layer_1" xmlns="http://www.w3.org/2000/svg" xmlns:xlink="http://www.w3.org/1999/xlink" x="0px" y="0px"
	 viewBox="-206 330.9 182 181" style="enable-background:new -206 330.9 182 181;" xml:space="preserve">
<style type="text/css">
	.st0{fill:#FFFFFF;}
	.st1{opacity:0.31;clip-path:url(#XMLID_24_);fill:#FEF7CD;}
	.st2{clip-path:url(#XMLID_24_);fill:url(#XMLID_25_);}
	.st3{clip-path:url(#XMLID_24_);}
	.st4{fill:url(#XMLID_26_);}
	.st5{fill:url(#XMLID_27_);}
	.st6{fill:url(#XMLID_28_);}
	.st7{opacity:0.27;clip-path:url(#XMLID_24_);fill:#FFB831;}
	.st8{clip-path:url(#XMLID_24_);fill:url(#XMLID_29_);}
	.st9{fill:url(#XMLID_31_);}
	.st10{fill:url(#XMLID_34_);}
	.st11{clip-path:url(#XMLID_24_);fill:url(#XMLID_35_);}
	.st12{clip-path:url(#XMLID_24_);fill:#FFB831;}
	.st13{clip-path:url(#XMLID_24_);fill:#FF8331;}
	.st14{clip-path:url(#XMLID_24_);fill:url(#XMLID_36_);}
	.st15{clip-path:url(#XMLID_24_);fill:#FFFFFF;}
	.st16{clip-path:url(#XMLID_24_);fill:#333333;}
	.st17{opacity:0.75;clip-path:url(#XMLID_24_);fill:#FFB831;}
</style>
<circle id="XMLID_47_" class="st0" cx="-112.8" cy="425.2" r="82.3"/>
<g id="XMLID_4_">
	<defs>
		<circle id="XMLID_3_" cx="-111.8" cy="425.2" r="76.3"/>
	</defs>
	<clipPath id="XMLID_24_">
		<use xlink:href="#XMLID_3_"  style="overflow:visible;"/>
	</clipPath>
	<circle id="XMLID_41_" class="st1" cx="-103.3" cy="434.6" r="58.4"/>
	
		<linearGradient id="XMLID_25_" gradientUnits="userSpaceOnUse" x1="3348.3848" y1="149.763" x2="3348.3848" y2="-165.7065" gradientTransform="matrix(-1.4214 1.097818e-002 -4.382456e-003 -0.5674 4681.689 433.3519)">
		<stop  offset="0" style="stop-color:#006EB3"/>
		<stop  offset="1" style="stop-color:#2ED9D2"/>
	</linearGradient>
	<polygon id="XMLID_22_" class="st2" points="112.2,331.3 -270.1,334.4 -265.1,562.9 -179.4,553.3 -83.1,546.8 113.2,546.8 	"/>
	<g id="XMLID_17_" class="st3">
		
			<linearGradient id="XMLID_26_" gradientUnits="userSpaceOnUse" x1="-5177.1763" y1="280.7567" x2="-5177.1763" y2="455.0154" gradientTransform="matrix(1 0 0 -1 5130.5586 843.63)">
			<stop  offset="0" style="stop-color:#22BCCA"/>
			<stop  offset="0.5419" style="stop-color:#10B4D2"/>
			<stop  offset="1" style="stop-color:#E3FFFF"/>
		</linearGradient>
		<path id="XMLID_21_" class="st4" d="M109.8,425.2c-2.3,15.1-14.7,26.7-29.7,26.7c-15.5,0-28.2-12.3-29.8-28.1
			c-8.4,11.3-21.4,18.6-36.2,18.6c-12.8,0-24.4-5.6-32.7-14.5c-2.8,6.9-9.3,11.8-16.9,11.8c-5.6,0-10.6-2.6-13.9-6.7
			c-2.4,2.3-5.6,3.7-9.1,3.7c-5.4,0-10-3.3-12.2-8c-1.2,0.6-2.4,0.8-3.7,0.8c-1.5,0-2.9-0.3-4.1-1c-3,6.9-9.7,11.7-17.4,11.7
			c-6.3,0-11.9-3.2-15.4-8.1c-1.7,0.9-3.5,1.4-5.5,1.4c-3.2,0-6.2-1.3-8.4-3.4c-2.9,3.2-7.1,5.2-11.7,5.2c-1,0-1.9-0.1-2.8-0.3
			c-2.5,5.5-7.8,9.2-14,9.2c-2.9,0-5.6-0.8-7.9-2.3c-4.1,3.9-9.4,6.3-15.3,6.3c-12.4,0-22.5-10.5-22.6-23.5
			c-7.3-0.3-13.2-6.6-13.2-14.4c0-8,6.1-14.4,13.7-14.4c5.2,0,9.6,3,11.9,7.4c3.1-1.6,6.5-2.5,10.1-2.5c8.1,0,15.2,4.5,19.2,11.3
			c1.3-0.4,2.6-0.6,4-0.6c0.6,0,1.3,0.1,1.9,0.1c2.1-5.1,6.4-8.9,11.6-10.1c-0.1-0.7-0.1-1.4-0.1-2.2c0-11.3,8.7-20.6,19.6-20.6
			c10.8,0,19.6,9.2,19.6,20.6c0,0.4-0.1,0.8-0.1,1.2c1.6-0.4,3.4-0.7,5.2-0.7c7.6,0,14.2,4.6,17.3,11.4c1.3-0.7,2.7-1.1,4.3-1.1
			c2.3,0,4.4,0.9,6,2.3c2.5-2.8,6.1-4.6,10-4.6c2.8,0,5.3,0.8,7.5,2.3c3.2-5.5,9-9.1,15.5-9.1c0.1,0,0.2,0,0.3,0
			c0-0.6-0.1-1.2-0.1-1.7c0-11.8,9.1-21.3,20.3-21.3c6.4,0,12.1,3.1,15.8,8c2.2-2.1,4.8-3.7,7.7-4.5c-0.1-0.5-0.1-1.1-0.1-1.5
			c0-20.3,15.7-36.8,35-36.8c18.7,0,34,15.4,34.9,34.9h0.1c6.8,0,12.3,5.6,12.6,12.6c2.5,1.1,4.9,2.4,7.1,4.1
			c1.8-0.8,3.8-1.2,5.8-1.2c8.6,0,15.5,7.3,15.5,16.3C119.4,416.8,115.4,422.6,109.8,425.2z"/>
		<g id="XMLID_18_">
			
				<linearGradient id="XMLID_27_" gradientUnits="userSpaceOnUse" x1="4964.9648" y1="237.3528" x2="4964.9648" y2="428.5947" gradientTransform="matrix(-1 0 0 1 4879.7588 0)">
				<stop  offset="0" style="stop-color:#22BCCA"/>
				<stop  offset="0.5419" style="stop-color:#10B4D2"/>
				<stop  offset="1" style="stop-color:#E3FFFF"/>
			</linearGradient>
			<path id="XMLID_20_" class="st5" d="M82.6,448.7c0,0.9-0.1,1.8-0.2,2.7l-215.9-5.1l-46.8,12.5c-4.4-3.1-8.2-7-11.5-11.3
				c-1.1,9.9-6.1,18.5-13.3,24.1l-2.1,1.5c-5,3.3-10.9,5.1-17.3,5.1c-16.5,0-30.1-12.7-32.6-29.3c-6.1-2.8-10.5-9.2-10.5-16.7
				c0-9.9,7.6-17.9,17-17.9c2.3,0,4.5,0.5,6.4,1.3c2.4-1.8,4.9-3.3,7.7-4.5c0.4-7.7,6.4-13.8,13.8-13.8h0.1
				c1.1-21.3,17.8-38.2,38.4-38.2c21.2,0,38.4,18.1,38.4,40.4c0,0.6,0,1.2-0.1,1.7c3.2,0.9,6.1,2.6,8.4,4.9
				c4.1-5.4,10.3-8.7,17.3-8.7c12.3,0,22.3,10.5,22.3,23.4c0,0.6-0.1,1.3-0.1,1.9c0.1,0,0.2,0,0.3,0c7.2,0,13.5,3.9,17,10
				c2.4-1.7,5.2-2.5,8.2-2.5c4.3,0,8.2,1.9,11,5c1.7-1.6,4.1-2.5,6.6-2.5c1.7,0,3.2,0.4,4.7,1.2c3.4-7.4,10.6-12.5,18.9-12.5
				c1.9,0,3.9,0.3,5.7,0.8c0-0.4-0.1-0.8-0.1-1.3c0-12.5,9.6-22.6,21.5-22.6c11.9,0,21.5,10.1,21.5,22.6c0,0.8-0.1,1.6-0.1,2.4
				c5.8,1.3,10.5,5.5,12.8,11.1c0.7-0.1,1.4-0.1,2.1-0.1c1.5,0,3,0.2,4.4,0.6c4.4-7.4,12.2-12.4,21.1-12.4c4,0,7.7,1,11.1,2.7
				c2.6-4.8,7.5-8.1,13.1-8.1c8.3,0,15,7,15,15.8C97,441.4,90.6,448.3,82.6,448.7z"/>
			
				<linearGradient id="XMLID_28_" gradientUnits="userSpaceOnUse" x1="4827.2251" y1="437.5806" x2="4827.2251" y2="466.8484" gradientTransform="matrix(-1 0 0 1 4879.7588 0)">
				<stop  offset="0" style="stop-color:#22BCCA"/>
				<stop  offset="0.5419" style="stop-color:#10B4D2"/>
				<stop  offset="1" style="stop-color:#E3FFFF"/>
			</linearGradient>
			<path id="XMLID_19_" class="st6" d="M81.5,456.2c-3.1,10.6-12.5,18.2-23.7,18.2c-6.5,0-12.4-2.6-16.8-6.9
				c-2.5,1.6-5.5,2.5-8.7,2.5c-3.2,0-6.2-1-8.8-2.6L81.5,456.2z"/>
		</g>
	</g>
	<circle id="XMLID_33_" class="st7" cx="-103.3" cy="434.6" r="60.3"/>
	
		<linearGradient id="XMLID_29_" gradientUnits="userSpaceOnUse" x1="-5171.2344" y1="138.718" x2="-5171.2344" y2="312.9767" gradientTransform="matrix(0.9996 2.812050e-002 2.812050e-002 -0.9996 5115.3872 861.2883)">
		<stop  offset="0" style="stop-color:#22BCCA"/>
		<stop  offset="0.5419" style="stop-color:#10B4D2"/>
		<stop  offset="1" style="stop-color:#E3FFFF"/>
	</linearGradient>
	<path id="XMLID_16_" class="st8" d="M110.3,444c-2.7,15-15.4,26.2-30.4,25.8c-15.5-0.4-27.8-13.1-29-28.9
		C42.2,452,29,459,14.2,458.5c-12.8-0.4-24.2-6.3-32.3-15.4c-3,6.8-9.6,11.5-17.2,11.3c-5.6-0.2-10.5-2.9-13.7-7.1
		c-2.5,2.2-5.7,3.5-9.1,3.4c-5.4-0.2-9.9-3.5-12-8.4c-1.2,0.5-2.4,0.8-3.8,0.7c-1.5,0-2.9-0.4-4.1-1.1c-3.2,6.8-10,11.5-17.7,11.2
		c-6.3-0.2-11.8-3.5-15.1-8.5c-1.7,0.8-3.6,1.3-5.6,1.2c-3.2-0.1-6.1-1.5-8.3-3.7c-3,3.1-7.2,5-11.8,4.9c-1,0-1.9-0.2-2.8-0.4
		c-2.7,5.4-8.1,9-14.3,8.8c-2.9-0.1-5.6-1-7.8-2.5c-4.2,3.8-9.6,6-15.5,5.9c-12.4-0.3-22.2-11.1-21.9-24.1c-7.3-0.5-13-7-12.7-14.7
		c0.2-8,6.5-14.2,14.1-14c5.2,0.1,9.5,3.3,11.7,7.7c3.1-1.5,6.5-2.3,10.2-2.2c8.1,0.2,15.1,5,18.9,11.8c1.3-0.4,2.6-0.5,4-0.4
		c0.6,0,1.3,0.1,1.9,0.2c2.2-5,6.6-8.7,11.9-9.7c0-0.7-0.1-1.4,0-2.2c0.3-11.3,9.3-20.3,20.1-20c10.8,0.3,19.3,9.7,19,21.1
		c0,0.4-0.1,0.8-0.1,1.2c1.6-0.4,3.4-0.6,5.2-0.6c7.6,0.2,14,5,16.9,11.9c1.3-0.7,2.8-1,4.3-1c2.3,0.1,4.4,1,5.9,2.5
		c2.6-2.7,6.2-4.4,10.1-4.3c2.8,0.1,5.3,1,7.4,2.5c3.4-5.4,9.2-8.8,15.8-8.6c0.1,0,0.2,0,0.3,0c0-0.6,0-1.2,0-1.7
		c0.3-11.8,9.6-21,20.8-20.7c6.4,0.2,12,3.4,15.6,8.4c2.2-2,4.9-3.5,7.8-4.3c0-0.5,0-1.1,0-1.6c0.6-20.3,16.7-36.3,36-35.8
		c18.7,0.5,33.5,16.4,33.9,35.8l0.1,0c6.8,0.2,12.2,5.9,12.3,13c2.5,1.1,4.8,2.6,6.9,4.3c1.8-0.7,3.8-1.1,5.9-1.1
		c8.6,0.2,15.3,7.7,15.1,16.8C120.2,435.8,116,441.5,110.3,444z"/>
	<g id="XMLID_13_" class="st3">
		
			<linearGradient id="XMLID_31_" gradientUnits="userSpaceOnUse" x1="4983.0107" y1="378.1429" x2="4983.0107" y2="569.3847" gradientTransform="matrix(-0.9996 -2.812050e-002 -2.812050e-002 0.9996 4888.4097 10.9393)">
			<stop  offset="0" style="stop-color:#22BCCA"/>
			<stop  offset="0.5419" style="stop-color:#10B4D2"/>
			<stop  offset="1" style="stop-color:#E3FFFF"/>
		</linearGradient>
		<path id="XMLID_15_" class="st9" d="M58.6,464.8c0,0.9-0.1,1.8-0.2,2.7l-215.7-11.1l-47.1,11.2c-4.3-3.2-8-7.2-11.1-11.6
			c-1.3,9.9-6.6,18.4-14,23.7l-2.2,1.5c-5.1,3.1-11.1,4.8-17.4,4.6c-16.5-0.5-29.7-13.5-31.7-30.2c-6-3-10.3-9.5-10.1-16.9
			c0.3-9.9,8.1-17.7,17.5-17.4c2.3,0.1,4.5,0.6,6.4,1.5c2.4-1.8,5-3.2,7.9-4.3c0.6-7.7,6.8-13.6,14.2-13.4l0.1,0
			c1.7-21.3,18.9-37.7,39.4-37.1c21.2,0.6,37.9,19.2,37.3,41.5c0,0.6,0,1.2-0.1,1.7c3.1,1,6,2.8,8.3,5.2c4.3-5.2,10.6-8.4,17.6-8.3
			c12.3,0.3,22,11.1,21.6,24c0,0.6-0.1,1.3-0.1,1.9c0.1,0,0.2,0,0.3,0c7.2,0.2,13.4,4.3,16.8,10.4c2.4-1.6,5.2-2.4,8.3-2.3
			c4.3,0.1,8.2,2.2,10.9,5.3c1.8-1.6,4.1-2.4,6.6-2.4c1.7,0,3.2,0.5,4.6,1.3c3.6-7.3,11-12.2,19.3-12c1.9,0.1,3.9,0.4,5.7,0.9
			c0-0.4,0-0.8,0-1.3c0.4-12.5,10.3-22.3,22.1-22c11.9,0.3,21.2,10.7,20.8,23.2c0,0.8-0.1,1.6-0.2,2.4c5.8,1.4,10.4,5.8,12.5,11.4
			c0.7,0,1.4-0.1,2.1-0.1c1.5,0,3,0.3,4.3,0.7c4.6-7.3,12.6-12,21.4-11.8c4,0.1,7.7,1.2,11,3c2.7-4.7,7.7-7.9,13.3-7.7
			c8.3,0.2,14.8,7.4,14.5,16.2C73.2,457.9,66.6,464.7,58.6,464.8z"/>
		
			<linearGradient id="XMLID_34_" gradientUnits="userSpaceOnUse" x1="4845.271" y1="578.3707" x2="4845.271" y2="607.6385" gradientTransform="matrix(-0.9996 -2.812050e-002 -2.812050e-002 0.9996 4888.4097 10.9393)">
			<stop  offset="0" style="stop-color:#22BCCA"/>
			<stop  offset="0.5419" style="stop-color:#10B4D2"/>
			<stop  offset="1" style="stop-color:#E3FFFF"/>
		</linearGradient>
		<path id="XMLID_14_" class="st10" d="M57.2,472.3c-3.4,10.5-13.1,17.9-24.2,17.5c-6.5-0.2-12.3-2.9-16.6-7.4
			c-2.6,1.5-5.5,2.3-8.7,2.2c-3.2-0.1-6.2-1.1-8.7-2.8L57.2,472.3z"/>
	</g>
	<circle id="XMLID_32_" class="st7" cx="-103.3" cy="434.6" r="48.9"/>
	<circle id="XMLID_30_" class="st7" cx="-103.3" cy="434.6" r="39.2"/>
	<linearGradient id="XMLID_35_" gradientUnits="userSpaceOnUse" x1="-267.1864" y1="433.6909" x2="-156.9218" y2="433.6909">
		<stop  offset="0" style="stop-color:#006EB3"/>
		<stop  offset="1" style="stop-color:#2ED9D2"/>
	</linearGradient>
	<polyline id="XMLID_12_" class="st11" points="-267.2,428.4 -233.8,425.3 -232.3,429.5 -233.8,431.8 -224.2,431.8 -224.2,434.7 
		-211.6,429.6 -204.5,419.8 -182.6,422.6 -156.9,429.5 -259.3,447.5 	"/>
	<circle id="XMLID_185_" class="st12" cx="-103.3" cy="434.6" r="27.4"/>
	<circle id="XMLID_11_" class="st13" cx="-103.3" cy="434.6" r="18.9"/>
	<path id="XMLID_10_" class="st12" d="M-262.1,440.5c0,0,185.5-38.7,385.4,4.4l-7.2,101.7c0,0-378.9,12.3-378.2,11.1"/>
	<linearGradient id="XMLID_36_" gradientUnits="userSpaceOnUse" x1="-71.9327" y1="376.9797" x2="-71.9327" y2="487.1205">
		<stop  offset="0" style="stop-color:#FFB831"/>
		<stop  offset="1" style="stop-color:#F3DEB3"/>
	</linearGradient>
	<path id="XMLID_9_" class="st14" d="M-264.6,441.6c0,0,185.5-38.7,385.4,4.4l-7.2,101.7c0,0-378.9,12.3-378.2,11.1"/>
	<polyline id="XMLID_6_" class="st15" points="123.3,522.6 -105,426.8 -270.1,473.5 	"/>
	<path id="XMLID_2_" class="st16" d="M-104.2,426.8l-0.8,0c-29.2,10.3-199.1,65.5-199.1,65.5l101.8,6.4l3.2-2.9l299.7,29
		L-104.2,426.8z"/>
	<path id="XMLID_1_" class="st17" d="M-106.3,426.9l157.5-82c0,0-12.9-2.4-13.2,0c-0.3,2.4-147.9,82.8-147.9,82.8"/>
</g>
</svg>
